<mxfile host="app.diagrams.net" modified="2023-05-27T17:02:09.195Z" agent="Mozilla/5.0 (X11; Linux x86_64; rv:109.0) Gecko/20100101 Firefox/110.0" etag="RuU7aJ82b2OryLtad6go" version="21.3.4" type="device">
  <diagram name="Page-1" id="Z9B19-f5W8R52BnHPJb8">
    <mxGraphModel dx="1402" dy="730" grid="1" gridSize="10" guides="1" tooltips="1" connect="1" arrows="1" fold="1" page="1" pageScale="1" pageWidth="850" pageHeight="1100" math="0" shadow="0">
      <root>
        <mxCell id="0" />
        <mxCell id="1" parent="0" />
        <mxCell id="tobCYrUzQc5iDKJvixrN-2" value="" style="rounded=0;whiteSpace=wrap;html=1;" parent="1" vertex="1">
          <mxGeometry x="80" y="35" width="100" height="150" as="geometry" />
        </mxCell>
        <mxCell id="tobCYrUzQc5iDKJvixrN-3" value="&lt;font style=&quot;font-size: 13px;&quot;&gt;&lt;font style=&quot;font-size: 14px;&quot;&gt;&lt;font style=&quot;font-size: 15px;&quot;&gt;&lt;font style=&quot;font-size: 16px;&quot;&gt;&lt;font style=&quot;font-size: 17px;&quot;&gt;&lt;font style=&quot;font-size: 18px;&quot;&gt;&lt;font style=&quot;font-size: 19px;&quot;&gt;&lt;font style=&quot;font-size: 20px;&quot;&gt;&lt;font style=&quot;font-size: 21px;&quot;&gt;&lt;font style=&quot;font-size: 22px;&quot;&gt;&lt;font style=&quot;font-size: 23px;&quot;&gt;Text&lt;/font&gt;&lt;/font&gt;&lt;/font&gt;&lt;/font&gt;&lt;/font&gt;&lt;/font&gt;&lt;/font&gt;&lt;/font&gt;&lt;/font&gt;&lt;/font&gt;&lt;/font&gt;" style="text;html=1;strokeColor=none;fillColor=none;align=center;verticalAlign=middle;whiteSpace=wrap;rounded=0;" parent="1" vertex="1">
          <mxGeometry x="90" y="75" width="80" height="80" as="geometry" />
        </mxCell>
        <mxCell id="tobCYrUzQc5iDKJvixrN-4" value="" style="rounded=0;whiteSpace=wrap;html=1;fillColor=#d5e8d4;strokeColor=#82b366;" parent="1" vertex="1">
          <mxGeometry x="340" y="55" width="100" height="100" as="geometry" />
        </mxCell>
        <mxCell id="tobCYrUzQc5iDKJvixrN-5" value="&lt;font style=&quot;font-size: 13px;&quot;&gt;&lt;font style=&quot;font-size: 14px;&quot;&gt;&lt;font style=&quot;font-size: 15px;&quot;&gt;&lt;font style=&quot;font-size: 16px;&quot;&gt;&lt;font style=&quot;font-size: 17px;&quot;&gt;Sentences&lt;/font&gt;&lt;/font&gt;&lt;/font&gt;&lt;/font&gt;&lt;/font&gt;" style="text;html=1;strokeColor=none;fillColor=none;align=center;verticalAlign=middle;whiteSpace=wrap;rounded=0;" parent="1" vertex="1">
          <mxGeometry x="350" y="90" width="80" height="40" as="geometry" />
        </mxCell>
        <mxCell id="tobCYrUzQc5iDKJvixrN-6" value="" style="rounded=0;whiteSpace=wrap;html=1;fillColor=#f8cecc;strokeColor=#b85450;" parent="1" vertex="1">
          <mxGeometry x="597.5" y="55" width="100" height="100" as="geometry" />
        </mxCell>
        <mxCell id="tobCYrUzQc5iDKJvixrN-7" value="&lt;div style=&quot;font-size: 13px;&quot;&gt;&lt;font style=&quot;font-size: 13px;&quot;&gt;&lt;font style=&quot;font-size: 14px;&quot;&gt;&lt;font style=&quot;font-size: 15px;&quot;&gt;&lt;font style=&quot;font-size: 16px;&quot;&gt;&lt;font style=&quot;font-size: 17px;&quot;&gt;&lt;font style=&quot;font-size: 18px;&quot;&gt;Vectors&lt;/font&gt;&lt;/font&gt;&lt;/font&gt;&lt;/font&gt;&lt;/font&gt;&lt;/font&gt;&lt;/div&gt;" style="text;html=1;strokeColor=none;fillColor=none;align=center;verticalAlign=middle;whiteSpace=wrap;rounded=0;" parent="1" vertex="1">
          <mxGeometry x="607.5" y="85" width="80" height="40" as="geometry" />
        </mxCell>
        <mxCell id="tobCYrUzQc5iDKJvixrN-8" value="" style="shape=table;startSize=0;container=1;collapsible=0;childLayout=tableLayout;fontSize=16;fillColor=#f8cecc;strokeColor=#b85450;" parent="1" vertex="1">
          <mxGeometry x="560" y="310" width="180" height="120" as="geometry" />
        </mxCell>
        <mxCell id="tobCYrUzQc5iDKJvixrN-9" value="" style="shape=tableRow;horizontal=0;startSize=0;swimlaneHead=0;swimlaneBody=0;strokeColor=inherit;top=0;left=0;bottom=0;right=0;collapsible=0;dropTarget=0;fillColor=none;points=[[0,0.5],[1,0.5]];portConstraint=eastwest;fontSize=16;" parent="tobCYrUzQc5iDKJvixrN-8" vertex="1">
          <mxGeometry width="180" height="40" as="geometry" />
        </mxCell>
        <mxCell id="tobCYrUzQc5iDKJvixrN-10" value="" style="shape=partialRectangle;html=1;whiteSpace=wrap;connectable=0;strokeColor=inherit;overflow=hidden;fillColor=none;top=0;left=0;bottom=0;right=0;pointerEvents=1;fontSize=16;" parent="tobCYrUzQc5iDKJvixrN-9" vertex="1">
          <mxGeometry width="60" height="40" as="geometry">
            <mxRectangle width="60" height="40" as="alternateBounds" />
          </mxGeometry>
        </mxCell>
        <mxCell id="tobCYrUzQc5iDKJvixrN-11" value="" style="shape=partialRectangle;html=1;whiteSpace=wrap;connectable=0;strokeColor=inherit;overflow=hidden;fillColor=none;top=0;left=0;bottom=0;right=0;pointerEvents=1;fontSize=16;" parent="tobCYrUzQc5iDKJvixrN-9" vertex="1">
          <mxGeometry x="60" width="60" height="40" as="geometry">
            <mxRectangle width="60" height="40" as="alternateBounds" />
          </mxGeometry>
        </mxCell>
        <mxCell id="tobCYrUzQc5iDKJvixrN-12" value="" style="shape=partialRectangle;html=1;whiteSpace=wrap;connectable=0;strokeColor=inherit;overflow=hidden;fillColor=none;top=0;left=0;bottom=0;right=0;pointerEvents=1;fontSize=16;" parent="tobCYrUzQc5iDKJvixrN-9" vertex="1">
          <mxGeometry x="120" width="60" height="40" as="geometry">
            <mxRectangle width="60" height="40" as="alternateBounds" />
          </mxGeometry>
        </mxCell>
        <mxCell id="tobCYrUzQc5iDKJvixrN-13" value="" style="shape=tableRow;horizontal=0;startSize=0;swimlaneHead=0;swimlaneBody=0;strokeColor=inherit;top=0;left=0;bottom=0;right=0;collapsible=0;dropTarget=0;fillColor=none;points=[[0,0.5],[1,0.5]];portConstraint=eastwest;fontSize=16;" parent="tobCYrUzQc5iDKJvixrN-8" vertex="1">
          <mxGeometry y="40" width="180" height="40" as="geometry" />
        </mxCell>
        <mxCell id="tobCYrUzQc5iDKJvixrN-14" value="" style="shape=partialRectangle;html=1;whiteSpace=wrap;connectable=0;strokeColor=inherit;overflow=hidden;fillColor=none;top=0;left=0;bottom=0;right=0;pointerEvents=1;fontSize=16;" parent="tobCYrUzQc5iDKJvixrN-13" vertex="1">
          <mxGeometry width="60" height="40" as="geometry">
            <mxRectangle width="60" height="40" as="alternateBounds" />
          </mxGeometry>
        </mxCell>
        <mxCell id="tobCYrUzQc5iDKJvixrN-15" value="" style="shape=partialRectangle;html=1;whiteSpace=wrap;connectable=0;strokeColor=inherit;overflow=hidden;fillColor=none;top=0;left=0;bottom=0;right=0;pointerEvents=1;fontSize=16;" parent="tobCYrUzQc5iDKJvixrN-13" vertex="1">
          <mxGeometry x="60" width="60" height="40" as="geometry">
            <mxRectangle width="60" height="40" as="alternateBounds" />
          </mxGeometry>
        </mxCell>
        <mxCell id="tobCYrUzQc5iDKJvixrN-16" value="" style="shape=partialRectangle;html=1;whiteSpace=wrap;connectable=0;strokeColor=inherit;overflow=hidden;fillColor=none;top=0;left=0;bottom=0;right=0;pointerEvents=1;fontSize=16;" parent="tobCYrUzQc5iDKJvixrN-13" vertex="1">
          <mxGeometry x="120" width="60" height="40" as="geometry">
            <mxRectangle width="60" height="40" as="alternateBounds" />
          </mxGeometry>
        </mxCell>
        <mxCell id="tobCYrUzQc5iDKJvixrN-17" value="" style="shape=tableRow;horizontal=0;startSize=0;swimlaneHead=0;swimlaneBody=0;strokeColor=inherit;top=0;left=0;bottom=0;right=0;collapsible=0;dropTarget=0;fillColor=none;points=[[0,0.5],[1,0.5]];portConstraint=eastwest;fontSize=16;" parent="tobCYrUzQc5iDKJvixrN-8" vertex="1">
          <mxGeometry y="80" width="180" height="40" as="geometry" />
        </mxCell>
        <mxCell id="tobCYrUzQc5iDKJvixrN-18" value="" style="shape=partialRectangle;html=1;whiteSpace=wrap;connectable=0;strokeColor=inherit;overflow=hidden;fillColor=none;top=0;left=0;bottom=0;right=0;pointerEvents=1;fontSize=16;" parent="tobCYrUzQc5iDKJvixrN-17" vertex="1">
          <mxGeometry width="60" height="40" as="geometry">
            <mxRectangle width="60" height="40" as="alternateBounds" />
          </mxGeometry>
        </mxCell>
        <mxCell id="tobCYrUzQc5iDKJvixrN-19" value="" style="shape=partialRectangle;html=1;whiteSpace=wrap;connectable=0;strokeColor=inherit;overflow=hidden;fillColor=none;top=0;left=0;bottom=0;right=0;pointerEvents=1;fontSize=16;" parent="tobCYrUzQc5iDKJvixrN-17" vertex="1">
          <mxGeometry x="60" width="60" height="40" as="geometry">
            <mxRectangle width="60" height="40" as="alternateBounds" />
          </mxGeometry>
        </mxCell>
        <mxCell id="tobCYrUzQc5iDKJvixrN-20" value="" style="shape=partialRectangle;html=1;whiteSpace=wrap;connectable=0;strokeColor=inherit;overflow=hidden;fillColor=none;top=0;left=0;bottom=0;right=0;pointerEvents=1;fontSize=16;" parent="tobCYrUzQc5iDKJvixrN-17" vertex="1">
          <mxGeometry x="120" width="60" height="40" as="geometry">
            <mxRectangle width="60" height="40" as="alternateBounds" />
          </mxGeometry>
        </mxCell>
        <mxCell id="tobCYrUzQc5iDKJvixrN-22" value="&lt;font style=&quot;font-size: 13px;&quot;&gt;&lt;font style=&quot;font-size: 14px;&quot;&gt;&lt;font style=&quot;font-size: 15px;&quot;&gt;&lt;font style=&quot;font-size: 16px;&quot;&gt;&lt;font style=&quot;font-size: 17px;&quot;&gt;&lt;font style=&quot;font-size: 18px;&quot;&gt;&lt;font style=&quot;font-size: 19px;&quot;&gt;Similarity matrix&lt;/font&gt;&lt;/font&gt;&lt;/font&gt;&lt;/font&gt;&lt;/font&gt;&lt;/font&gt;&lt;/font&gt;" style="text;html=1;strokeColor=none;fillColor=none;align=center;verticalAlign=middle;whiteSpace=wrap;rounded=0;" parent="1" vertex="1">
          <mxGeometry x="560" y="260" width="175" height="30" as="geometry" />
        </mxCell>
        <mxCell id="tobCYrUzQc5iDKJvixrN-23" value="" style="shape=image;verticalLabelPosition=bottom;labelBackgroundColor=default;verticalAlign=top;aspect=fixed;imageAspect=0;image=data:image/png,iVBORw0KGgoAAAANSUhEUgAAAhIAAAISCAYAAACZPSa/AAEAAElEQVR4nOydd5glRdXGfzOzibTsEpbMLkFABVmCCVHSZxYBEQVFRUCQoICoGJBoDoCAOYAIKiKiEoxIMouCgihJMoISlrzshPv9ceqlTtft7tt9w+4C/T5PPzO3Q1V1ddWpUydCgwYNGjRo0KBBgwYNGjRo0KBBgwYNGjRo0KBBgwYNGjRo0KBBgwYNGjRo0KBBgwYNGjRo0KBBg/5jaFE3oEGDBosthog0ohWOBg0aNGjQoEGDXAwBI8CkknsmhXuaTUiDBg2Ahhg0aNDAMAKMJ+dmwLRl7d/5DwDzKjzToEGDpxkaRqJBg6c3pL6YAEZg5GUwvD1MPBcm1oLWUuG2h2H4Zhj+M0ycC+M/D88M06g9GjRo0KBBg6clht3/r4ORvxCZgnBMCkd6fuQvwE4FZTVo0KBBgwYNnuLQwr80DJ0KQ4FBWGIcdhmFU8bh8gm4IRyXT9i5XUbtHlr2zNApVkamzAYNGjRo0KDBUxhSZ6wAQ7/HpAxj8I5xuK4FrQ7HdS27lzF7duh3wPJkvTwaNGjQoEGDBk9ByDNjCgxdBrRgqQVwlmMUxlow2oLx5BgN13Tf98OztGDoUiuz8eho0KBBgwYNnsoYsT9Dn4ORFiyxAC4MjIGYh04SCTEVrRb8KpQx0rIyfR0NGjRo0KBBg6cStMBvDsNBNXHKhDEECyowEOmhZ745AYyGMjdL6mrQoEGDBg0aPEUQjCEn/RhowcvGoiSiLhOhQ8++LNhLTPpRtq4GDRo0aNCgwVMBWtjXguH5wARcMgETid1D3WOsZWVcPGFlDs8H5iR1NmjQoEGDBg2e5AhhryfvDbTg2WORCeiWidAhZuRZQSoxea9snQ0aNHgqo9kxNGjwtMLQc+3vNq3+Rbgex8rappWto0GDBk8HNIxEgwZPD0zYn9ba9nf9AbhobjDk6hiiCZvdoMHTAg0j0aDB0wNa1JexP8sOoIonypwe6pugyRbaoMFTHg0j0aDB0wOKOjlqP0cHUMUC/fM4MDP8P4bpPloYvZkU/jaMRYMGTxE0xlANGjw1MZRzjAJ32eXb6a/moRXKBOC/wNmYZOKXwMXA5cC9PKFiAWKsiYk+N6ZBgwYNGjRoUBNDxB1/UTCoYZjyEaAFrxyNUSp79dpQGa8IkodJ3wLuIZsx9C7gR8C7gY1p38Q00ooGDZ6kaCZsgwZPTkjKMIwt1Kn7xTCwFvBsYBNgC+BBGPkSjF8IS7fg2iFYhah16AYToRl3Ahu04OEhGHkpjN8GvAzYFnghsFLy4FXApcCvgD/whKTkCUwi2lk00ooGDRo0aNCgR3SSOEwFngPsBXwNuBIzWmglxyyYHDJ+HjXev8iWR0ka8Zecti0HvBz4NPAnTMXi23QvcB5wMCatSLmaRlrRoEGDBg0a1EQnxmFJYHPgQOB7wA20Mw0t4HpMpXAYJpXYAIYuhqFRWHYMbnYRKruJatlqwU0tK2t4NGQBXde9w5Sctq+PMTxnADfntPnvwEnADsDKOc+P0HiCNGjQoEGDBm0YJi6SKZbAGIeDgLOAm2hfgB/BdvxfAN6CSSiWcGW8B7jP7h0Oz2zZgvldMBO6d34LXtTKlsn9wNFEz41hjKHIM+5eGngJcCSm6ngseaf7gJ8Ch2IJwSbn9FkjrWjQoEGDBk9LDGFMQ94COwnYCNgH27nnSRweAn6DqQxeC6xZUM9ewL/dc38G9oaRB4BxeM04POJUFUWhsxUKW+qMh1v2LOOhrL1C2arnOmAP144RbMEvk7SsBbwV+Db50oqrMGnFa4FZBf3WSCsaNGjQoMFTEl5dkWfduBawG/AV4GraF9FHgd8RGYfVc8rwTMlLsV2+nr8Ns0MAeBXwEIyEa5u14I8J4zAemIbRVrt3xx9asGl4dkRMzatC2QeHulTvJcB2rl1+offMVLr4LwNsDRwb3vvxpD/uAX6CeYI8h3bGpJFWNGjQoEGDJz3K1BUrAq8EPoktlKlYfxT4C7YD3wWYnVPGELZYTnXnngV8x5XzMPAZor3Bbu7ab2HkRvt/ZBR2H4NfBWlDKpF4uGXXdh+ze2nByA2YVETlvSnUsXKo82F37TuhbUJen5RJK54BvB04nXxpxd+AEzHbitRLBBppRYMGDRo0eBKgbIc9FbNzeA/mpfBf2hfD64BTgbcB6xWUrwVRTIqwHPBx4AFX3veADd09u2PRJluhDdjf4aQda7TgpeOw64QdLx23c/6eYV/GT8L5sdB2YUPgTPfcA8DHQluForgXZaof2VYcjTEy87Nty3iCzM2po5FWNGjQoEGDxQZlu+jZmATg68C/aGcc/oN5VRyMMRlTc8rwjIOvc9j9/w6ydhS/w6QdHm8iul5eEJ57NU9IP4bfA5POhqFHiPEb/DFh1yadbfc+UdZrsMX4PCIz8dak7leGNqmsG0Kb/Tt0CmZR1s/rYtKK75BVq+i4Ejg+vO/yOc830ooGDRo0aLDQULZTXgrYEvgIFhrai/Zl5/BbTHLwUrI7c0Fl5+2WVbeQLtA3Afu6tokx2ZWsJGKJcPwznDvFlXm5SRsmnQOTL7Rj0jlBAnG5u++U8Ow/Q1nTgB+Hc+OY54hvw6TQtpsoZniqLuZlkp9lMZuMT2DBrtJ4GncD52CusxvRxK1o0KBBgwYDRicjyWdg3gnfJt8t819YkKjdMIPKFFUXLs+4bIS5gXqVwUfJMiZawHcjy0RMC+ffT3SxXANbmNfDjBofxyJT/i8cL3Pn1wv3rsET7qS8P5Q5BVukxUxIzeElLcth6g2vgvk+WRVM3TxAZdKK9YA9MWnFrbR/n78Bn8ckKyvmPN9IKxo0aNCgQW2USR2WxyI1fgr4I+073nuB87HYB3nqCm/nUGVx8ovjLMxr4yFX3xnABu6eScR4C7sRVRDnEgNErRba6ZkAMJVECzPyXBdTcUyE//8Srnm1hZiRe0OZhLp/SGQm9nDnfX8+M7Rd7/FQeDfv1llkP1GGsm+3DLANxsj8nvZv919M1XQAxtg00ooGDRo0aFAJnSJJPhtbXM7BRON5OvgTgO3Jj28gz406SS283cAIsB9Zb4VLgf9z90vMrwU0j4lQeV8P56/B1BJ65lSMcTgOmOHqmhHOTYR7VN8SoYxWKFPtnoRlAE2ZibSNhHfwbqo3A+8kfocq9hNlKPuu62O2GmdhCUPS73oF9l2LpBXdfNcGDRo0aPAUQdnOdQYmzv80ZhcQckk8cdyFMRUH0H89e54dxB9c3TdghoUq1y9kRUzEVKIE5PnEnfgOrr3TiIGrXoNFplSdM8O5FnBjuFd17hDOLwCeR7Zff8AThpq8PdwvaYn3OhnC1A/eYPQPwCtcP/RDvVD2zWdidiufJF/SdA/9lTQ1aNCgwdMOftfujyfTjqzM1uGZWCTJ7wN3kF1ExjHR/mexxW1Qlv9+gXs2WdfJecAxGJMjeIbDqzNkEyFJxFC4PoQFiJLnhn/ueeH8I9j7rYq993j4f/lwrRXu9c9eEM5fQlxQtWh7ZmKv5Ln0HWaEd5zn3vt7oS+EuvYTZeiX7cvsnOfLjGYXB4iRS+fz4treBg0aPImRxisoQ54V/aJE2Q50OYwp+AwmddDiq+NObBF8J9lASkI/9eW+f5fHPA4edG05HRPD590PnW0idP3N4dpjmCQF4s5a9g6Xht9rY30yFv6HqIJ4f/LsRsSAWm92dar/v09kJvYO19Nv4t9pfbL2Ew9ini5V4k90i07eOC8GjsC8ccRQ6XgknD8S2AqYnlPG4sB0p2qlMizqtjZo0OApgFTEPhUmbwKT3wxTDoPJR8GUQ2DKjjB13eTZfhP5OijTiW+ASR3ydOLjWK6IT2NqjRk5z/dbdO2ZNMWD8HkxfoOJ2339ad1lNhEQF4TpxJ31Cck1sORYE8BR4fe6REZC3/eo8PxPc9p/AtEFdbq7pnEk6cpEeE/fdiFd6F5KNnLmv6kff6JblI2jOVhcjm9gQcRSacWt2Pvui0lT0jYuCjVI8h5T17W5O+WQMJcPs7k9eROyaptGVdOgQYOu4AnHujDyaRjJI5g65sPI72H4QMwyHhYeM1G2k5wObIvtZv9AXGh1KKbA/mTF58KgxNP9WjDLbCKkitJ3OIYoaVkhubYi0ZVzq3BuHSIjsU44tzXRZXSFcE7MyApE5uwYd22IdmaihTF0/h088gJu1WWw+omyuBVLAC8APgD8gtiPOiYwo80TgdeRnyPFMy2DeA995+kw/C6bq23RQN0xcp3N+Se+OwNqV4MGDZ6icIZ7wx+BEedquFQLNhuD147CG0bhVaPwzLFsiOWR64CdXVmDIECdpA7vwHTrt9NO1P+KeSC8mrgYegx6p5iK8E937XsAU2tUEeGX2URAXIyHsAVB33HfcN33nyJc3kEUy69FZCQU/2I60X7k1a59YgbeSVRFrENkZobd/99z76u2pOnB8959OeqrfAaFshwqK2NJ1Y4jX2X2IKYGORpjcmfmlKE+7XUciokDeD2MXB/bMdyyufuqMJdfO2pzeyk/lx8yGpCRmjVo0KBBKUQoVoahi3iCoGw2Cl8dh1tatCVzGmvB1RPwkXFYOeyKh1tYSGKVOUhr+xmYC+EngT/RTrjvwlwR98OkDmlbFlZsAL8ozMCyWs5z7TyT6kaFeUzEeWSZCNUJ0UbhcrILlOr4HMZknenqmENkJOa482eGez/n2um/z+Whru8nbfDMxHfde7+zwvvWMUJNVXKDhn/3vIV2A8wj5TTy08H/B2MA3wdsgeURSdENY6G+BjghMvsrj8IR4zZnx3Lm8y0tm+ubOend0K+JSd8aZqJBgwaFEKGfBcNXAy2YtgBOzCE4Y+7w5+9uwd7jWO6GFgydGsruZmdVJnV4BuYB8F3apQ4tTJR8HJbaelAeFlWRujm+nd7cHDvZRKRMxHbYwj+O7YD9NS02CjYlCQEUMxL7hnv/Qpb5UpnbEr09iuobJmtMuV+4XiSZ0LPdusUuTJQxvUtgHi+HYonO7iLfvuIs4KBwbx5j0UkV4vpq6FuBiRiFd4zbHK0yl8daNvenBTfY4asxFZhnUBo0aNDgCTjiNxwkETMXwGWBqEy0YDT8TXcwEy0YD9d17rgWsABGWjB8RKij0y6xjAAvi0UkPBbLz/A4WeJ7D7aYvht4DotHRMLUDmIbTKStNt9M/cBLVWwiBL2zmARJG1Ix9XpYzIQxzAVWmEM+I/HMcG4BMUNpyrxIYvAX2nfqXtXhmYn9k3csgu+nEdoDdV2M2XIIi9KTqFOgs+UwRu8o4ELgftoZi1swidrBmC1GnkdIKhUJdQ0faXOQBXC8m5+jYc4WzWc/1y8NtIAWDP+aqNJpbCYaNGiQgQjPYbZ7meqYiAUFBCfv8AzFxyeAURgZJ8Yd8MTUE9m8BVRRB88kP6PjFZj65DXkR5NclMGB/HuuS4wY2cISeX2G+qGgtVvflc5MhMrLs1nQNS3Ye4Z7/kZ2Fz+HdkZCi9TfwjN7JmWpv9ch2jK8010TPDPhbUQOSMorgy9vFhbj4+FQjiJwrltw/6JCJzXIKth4/hRwGVl7EB23Yd/9QxgTslJBXc+HkTAHPzER5/J4xbk8Ee4XMzF1gdGG4cNC+YtDfzZo0GAxgQja6sGwchyOc4SnCtEpIkCvDPr7kUuJRLRI6qDIgp/AIgumHhZpHoRFZetQBl/3dCyugLfiPxvY2N1f1affSyKKDCt9G+RF8Z9wr/eiIPn/DGzhPTH8VplzaGckdO3E8MwZJeXKS+Q/RC8R307P/Hyb2EcHJu/cCf6+jYmhuVtY3x9J3MUvbmL5Mm8QMA+P12KMxaVkbWp0PIDlDfkCxtiF+CAjwQvoVWP1NwT+0Fz+XFCPjTxI9DxZnPqyQYMGixCBEI8cC7TgmaMmVRjrkvC03LNXt2DyOAy1YNKLk3qHMIZgPyzwU16ug7/x5MjM6O0gwFJo/4v4Hn/C3kGo0+aqNhG+bLB+a2Fuk8uQZXL0d0lMdN4CdgznJPmYQzsjoWs7EsXuSyZlarFehuiyeULSNpJ7hzBjRPXXu5N374TUfuI1WEwQlfcvYlpztWNxXAQ7MRYrY8z2h7ExkGcfdJbFghhqwZRx+EeYi3mGlVU3BmMtowkbhPE3Isa0n1FGGzRo8CSF3MMmwaRrgAk4aZwn9KjdEB7PTLRa8JpRK3fyFzBmYEdMJXEF7UTwbswI7SBgLu2EanGQOnikdhBbAr8kK4Z+F9n8EnUWsDo2ERAX0+cQ4wS8KSnL37cFcVe7cnJtDu2MhK6tTEwDvkVyzdf1pnDPfGIkzZSZ8H3yLWLfHeTKqvqtfVmTMYbEq8V+CbwoaefiMI7y4FV/Re1cFlMb7gt8Efg7sDdM/jgwAduPZudit4dowUnjVu6kf5CNEdKgQYOnMQLRnbI+MAZTW/DvoNaoqkstIz4TLfhWSHg18gfgZ2QZh1Fst/5pzAo/T+qg9NOecC0Oh1/EZxMzarYwY9DPYzkqIDIcdcrXgrsbMWnYecSEWWl/aNEBizzZwsThKfM1RAxf/aFw34WuTpW7Ftk4Eun1C8OzH0zKTG1fLg33KRpm2hZfLphtg/rxkHBuJOeZssMvvKuFb+ENdL9ONj9GnbIX5XiTtGIy7QyZ+mkKjFxp73naeDSe7GUuixbcOGE0grFAM9R3DRo0eBojLDxTdgRa8KyxSDS6VWukxOeqieB+dhMMnYS56SnZ0ZqL6L37henYQio7iPmY696GfSp/N6KR5g8qPvO6cP9DZO0x8vCrcO+hOddWJTISq+ZcPzQ8+6sOdWxMDIb1ug73Cl8k2oLkta0bbIj1oSQ192HfLs8L4kmM6csBD9qcu6pPmwLRgvFAI2gFmgGNeuNpj0Yk1WASJok4AB4/GbYdgwsn2drV60ajhQ2x/2JG/A+Pw9B10JqP6XYnsN31EsTdlRbNxRFeSjCESVNWw15OUogFmKHoOGYj0M37eEmDMnK2MJ3/49g3m6B9/g6H+zbCYg88jEXxnET8GEIL29VuHq5fDdxL9jssCTw3/P4z8ChxUIxj8Tk2xBb8y0N/pHUMheubujZdFc5PJO1vhfLVZy8MvyeH+he4uutAu/mHwvs9H7MvkXroRixa52Titxpn8R2HZRiBoRuhtRMsvYy92izaP383EE3Ybgx+PSnQjC/yBA1p8HRFw0k2CGgFw70p5bd1hSecNEaIcQo2GUBFixJDGFM0jWwOiH5ii863ZDCDGBCqE57T4frzSq5NoXrbZmBZNOviuZ1v6RrrkM0p8WTHTGC8OHRFrxCNaE0tva3B0wYNI9EgYOgB+/uQfvehTO2CHmvBfO1AP44ZhC3AdoTTiDvBFu271EWNEWx3+iAW6vgAzI5jSjj/TSy64hBxB9utVGVSqGd3zF5kMvBzLNT0MFHUn0KSiFWxNNdTga+Gdqk96f0TWBTIl2DxCk4hSgl0fQXMdgUsbfg97prqfDvGGFyC2TboelofWDClfTCpyjGYl06eZAKincMEFshrd0zi8RfMA2RpupMaeNsWfbMXYG6TI9i4/C+mWvkXpvbQGFgcoPZL0vMYpqqZitmxbAP8E3irnX4sTMJ+SCT0/IP6/UCPBTZo0OApgrBlmbot0ILVJuCRPtlIyFL8ssAgDE1gKZe/gVnz52VBXFzxFkwkL4bnV5jovd94OfA/omFlHRHRceG5f1Bt1VB46bcUXJ9BtJGYUXDPW0MZfyi47jEU2tYi5umoii+F5x4mG8a7X3gh0V6khX3ron5ZnLA6xmSdRkxn/mMYCq7Hl01k52KvNhKPBBpBC0a2CW1oAlM1aPA0hxacWTAUouj9bqI3v/PUZeyYQJwnaafuj39ggXR2wqL6eYxgEoupRM+NQR+TQ33CDpidgdp7LfDmpI291rlEKOstrh4xEfKGKHp2avj7Yves4lVMzbl/Svi7EbbbX4BFEPXX9HddIiOxbsE964cyJkKZ/lraToDtXTu3TN6h6HtoofqCe1Zh1yXR6qX//UL4ZuKC3MK+/Q7u+sIYixqDejeP5bH8MSdgdi3pfLoF+CRMDi7IHx3LzsVeNgUTLfhtmMNDDxAjsza2dg0aNJCod/IvgQnYrw/Ex+ff2EDRLY/GFo9PYjvYosiVB2KLUlG+jEEFoPILykaYhb/adj+2ePU7QqLUi1WDTXnI+HMYU0+IAYHiXaLqK0q85eucQ36IbF//MDGXxz5JHSnUpvPD/ZeRdWMtgjdyPYn4TQ539fU6HtKIpEeQzXvxA2IcDOj/LrwsH8ccjMk8nfZQ8aNY7pljMGYyJPiadJhdV3C5orwadTcF+41hMWF+7trdoEGDBiL8w7vCUAuWHrNUwr1IJUR4vq2wug/RnoVzA2zx+T75US2vxPz/X0t+PoGynAV14Im37AIedu04lcHkbChiIrR77/Reel6SjEeJaciLnlXb81KBC1UZCT2TpiAv6h89+2xMt9/CxPJp/XnwzMSJtEsm+sFMQLbt65INkPUwNjZWKLi/DvQ+ee1eGtgKS+R1KfZd/bz4H8Zw70c2yZpvz6wY7v70id42BpJG3Bxow1ALht8Y6un03Ro0aPA0QnCzUyCb1zipRN2djJiPu1qwaisk+nkc+B7F3gEzMW8HSStCtsEnjnuxgEbvwzwIpiXPyzivjrTCh7UewhKEKaRzCzMg3Mbd36/FSmVB90yEpAHTiZkvxRQULW5q+9KYu2MLeHXOM1UZCT3zmlDW7cSU10X9pGdkz3FzeIcqkUo9M3EC8Tsd5crux/fRWBK2wcaC6vs3NlZUV9Vw22VSh3WAPbDcJbdAG1N9FcZUb0970LYhsuq4ZwPfszk3FObgXcncrCNZFAPyakkWr8BULo00okGDBhmIuL0YRh4BxuH9E5GYVCFAPlnXwy14UdCnDv+XSBAfwjw3JJ2QTjjFM4C3YUZkfnHXcR3mMbE7sHbB+0hakS4ufkEC+D+iaqCFOd/vRf2Foip8Fk+fgKsqE6E2AXw0PH8H1qdlIbj1zEvCM/cTd9fdqjYIZdwfynxJUlcKtW95ohTq2A7PePhvdzzxm/ncD/1i9jyjOQzsjY0N1XkZln1TSBmZMqnDUlhfHR3KkYRGx33ABcB7MFfpdOcvpkTRRMFSkn+cGPzLzb0tnRF11eRdPtfO+yRZfBhTT+p9GzRo0CADLXDfC6m/F8C7HROh3clYy3SuOpTQRwTothZs2bLnRyYwhmAzLENh0WItopgnKl0Sy49wOPBrMoSSFkaEf4MtSNuS72GgnaAnfuuTTWH9EJZ51Ktg+k0s1cfd2ET4Ng1honf1xT7uWhHUt0dgqgiFrM6zRYHOjIT/rZDcXtVQ1n6IdhoP0Z7ivAz+vs8Rv58Ykn4yE5BlEJbHxogfg6djY0koUrethTG+3yKfOb4G8055He2GxypXbUmlaXuRZXJ+j825PcIcXAAvDnPTqx+L5rIYiLEWvEtzeRz4bqgzj/lv0KDB0xwi/PvwBJEcCURpiwn41UTnHcyjLfjaBKwykX2em4iEdj+yRPQiTB/s2yFCWSQGXgN4IxYr4Z+0E+TbsTDV+2GRF1Oiviy2g33APfM94FnunkHstnoxrPRQ274fyricYumLh65dFJ57X9IuoQ4joWffT/yevq6iduj7Xh6e62RfkVeG7v0M8Tt+zLWr3wa5vm3Pxtqseh/EpAvLuntmYNKujwG/pV3qcC9meHootuini3NegrpU7bIVcLEr89/YuAebczeRmYurTNgcfbSCROJXE/DCdC4/RGej2gYNGjwNIYLwDiJB+gZwiCMgLdhyFD47DpdMWPKe2ybg2gn4aQsOa8EzxuK9ww8Cr8eCT7Uwj4y5oZ6VMOL/SLg2gakp1nJt8kS7TEQ8BYt6+F5MFHwvtDEWV2M7ve2xuAc3uGu/C+d9XwzCI6TMJqKOB4j6ZRssSNI4MXpl2SKs8lcjGpIqWmX6XB1GQs8qlPfDxLwcZe+k57YjvkfduASemfgU8Zt+wpXT7285TDa2x0uxjKL6ptdjNhs/BO6ifSz+HfM8KTMgLmq375e1sTkjl+pHsDmlMudic051vj7MydCO9cbgAy2bu9eGuXzjhM3tz47Di5xH1UgLOBijCXqPd4R6GmaiQYMGT+yCPBNxVjj3CWAChu+HoflkCOKklmUBHBYjIKJzPww9hhlLboMRtuvD9buw3A7CxsA5rtx7sWyUMtgr0vdLrJu34KyEGf99DosB4L0v/DEfE0kvk1NGv11MvTqjW5sIyO7k/0z2W3VafEXwX0/cucpgNS9nB1RjJPTsNKKkaeekziKozWeF5/5ENclKWr/K+STx+37S1dEP19Ci8bYkFgPlZmIyMH/ciL3fe7DFvcjWoeyd/TxYGpsjnmE+h2xyts2JTMz12JzYBlhgc3PkfvdsSKg3Ncxp3/ah+Tb3mSAyZ2e5e8RMNGqOBg2exvCSCDEDCsc81517I7A+TD4aJl8IQ/8A7sZCJj9ghGjSOEz6MLbjVeCgW7EFZi0skFML+A+WwMnjtcRYBC3MQn0Xd71sMfCLa96C/DJMApFH5OeHa2dgoZ7Xy3m+19gVRUxEXXUGxIVsH6KYeV2qSTT0rb+IfddTkzI96jASvoxvhbK/mNRZBC2e6xIZPi1OdVRLnpn4OPH7Krx33W9XJgGbjI3fQ7CYHX5R1piSx9EoFn/Ce1nUGU+pzcgbyEZX/Qs2dzw2xeZYC5tza2Fz8NZw7gvAajZXJ42HjcAD2Fy+2+b25AttrrMeNve1WZgb2v99d66RTDRo8DRGHhPxPXf+Z+Hcr90zw5g+9isw9F0YugqG3020U5DF/irEHZF01mtjuQvETGwSzmtBnYbpikUEWxih9hKMTsTXG6AtAxxG1pXuPCxK4YeACzG9tl8ERrFd8Wcxt8hOsSs6LQT9somAyCwsT3Td/KhrU6dn1R6FqH5r0kaPuoyEylC47H+4c536SG3/WHj2dsz7oI5UQvWkZbWwb6l6qjCjeX25OibJ+RKx//xxG3A2ZpuwPjZmz3PX7wE+TGdJW967kFPef7C5IomSxtMmxPnzL6I3k/rjLqIR51bh3D9tDg9dZXOar2Bz3Lfv1+Hen4XfkzBa0TATDRo8jZFnE/E9IvF6LXFhlR59mBje+G6iaP3twMnh/xOJxHo/4q5ZhpZzyDITc8N57wO/BvBl4sL7eCh3VXdPSuxTwrsL2Z3b1ZglfIqVw7ueAFxBRkXzhKrlpxhD8kJMjJ2iaHfZL5sIQe/32VDWzZhhX5UFV3VthNkizCcuMkWqI6jOSOjc2qHscWIUyKrxMJYlMn1+8a8Db4h4LPE7+vga3mhxhPzFbzq20B6JGY+mXkKPYHEljgK2JkY7TbEz0UaoqqTNv/Oq2Nh/nDgfv4zNEUFzZy5ZJmJOOL++a7+MMIeIQb1OxuZwCzN8vTv8vz3x2z2POIYlARkhMhNektQwEw0aPA2gib43WSZCC9JUIvH7ZrhXxOpEbJH4CvDt8P+bMYLZwhZjleP1+Ge7+mcT1Rx3EZkJn1MBbOH+uWvj7cC7iKoC7er8M88lu3O7CzPCnOae8RIFjyHMEn9fzBr/NrKLRwuzATgdyxS5Pu3wvv3QPyZC9z+TGOVQEoUqi62++QHh2T+GdpTp5KE6I4Er70+hjgOSusugd3hbePZR7F276SvPTBxN/HbHu7ryjEufDbwT+/a30v7trwW+hsX+WLPgHTSuvMRhGjYGveHleWTToo8kz0zGxvrt7pmfY1lK/TMaZ3Nd+ddic0w4O5z/M1mPqCvC+Z2xOTyOzemvhP9PDM9r7n8z3P93suPYMxN7h3sbZqJBg6cw8gwrv0eW+L47nL8f2/mIYEwminV3wQJFiXisiBEfJYAStg7nJ7Csllq41iRfzSFC5wn9m8m6eP4BS7HtsQpG+ORep52bJ/h5C24vu9JRbAf3Ocy4M1WD7EaUcJxPfcNKD7X9J6G83xKZoirif9V5dmjTp8LvIoLfDSOhsj4V6hDzWOV99R2GMS+aFvDjcK0bN9wiycQJ7p5VgR2xcXMl7dKoezAvoEOxRd9LzXwdZd/At31NspK2x7BIlWm8iFcSs7IG1UNbkjj/fqk6Q2N+KJTVwubg1q4MJVobx+auNhWnYXNb6ilFrxzCaMH94dq7Qzmar3mSicYAs0GDpyCK1BneIn0WcWfz4XC/17+OY2LWFYnW2+8K168muysR4T2DKNZV5kSwXVMRMwFZkf2ymBh5nmv72Zhh2QFEcWwL+AWwRfLeVRbbKrErXo8ZEnq1iVeD/BKzzn8XkYH6titjCvUN/9SWV4byxrDgXP5aGVTXdOK3fXmH57thJFTWy4nf1Cc46wQ9v2WobwJ4RYd2pigykjyIqB74IcYgpIzhOGa8eBzGGM6iHUXSrE5t8gzbFtgYVb13Y2N4U6L0oIWN9aOIcSm8dKaIiZAkQtlDNU5PD+c1J8U4XB1+vyv8Pgub249j/ZHaMR1OlPTNItKNVDLRqDkaNHgKooyJGCIu7p8P127ADMOG3TUFHPpt+C0VwiGhjJMx4v+dcF2he2cTdzKHhmsiaCkzMTdpL2QXkQ2wIFTziFIBL6l4U/JcL25/ZZb7k7CcIQdgVvleBO0lFg9iqpJ1csqoYr2vxWMK8DfirhGqL666b1viTns5V34eulVtEMq+J9S1bZdt/XZ4/m/YuxfZgXTy2FkHUwF9mRizRMcYpr46E/OCeVZOHVVcM6silbS9iazkQWN5HjbGN3D3+uc0N+aSz0Robh1KlCyuSXaefwebqyeH84cQVS5gc7yFzXmIkomliTFYPu+u5ak5GmaiQYOnEDoxEbruMzLuFs75Re7CcO3IcE4hkQ8O118Xft9KNEpU2R8k7tpXJ0vUqjAT/v91sAXGJ/V6mCgZgcEkFPKSmxTLYQZpvybufFOm4o9YwKBXU323q7qkbppHXBSqvp8X8U9gthp6nyJ0w0j4a+eGuo5J2tAJGpOzicyivuuIu6dIarQc5u77CUxFkrr8ipkYxb5VHePZfsAz5mDv5uOcLMDULOsk7Un/n0uxJGIIm2OKM3FY8uySRBsQGSAfHH7/NDx/ZPh9YbjumaDdiKoZZZr1thcNM9GgwVMMRTYRItjeWFH690vJ6qwhRkOcwIwgwcTDXl+6GpH4S/SuhXEalkegRTZ+gepek2yciVSkCpYY6jNkUyr/mCdCANPCkh9t5Z6pqtaoC78T1g7wNVh6Z7XrjZjhmrfa92qQn2I7vheQv6BNCeWvRFTdHB6u1Y2xAJaLRBIkKCfu3TISKlM73MuSNlSB3u0jRNH/LPKlDlOw0NIHY33uVVw6rsLUUW/Extlh4bx25CqnG1uMqkjVG1uRTRJ3U2i/fj+KjfUV3DN5Lp7XEm0i/Hw6lWjnMI04VsHmpphSeUKJUb0g/N6CyKCvFs55mxy1/Seubk9TGpuJBg2eIugkifC7jFdghHWUyCh4I8Q3h+evI3pASLXhJQHS/cq+wu8cX00UKYvR8IyMl0zcRQxaNYKpB25273EZUWy+AmbwKAZjHPg6xeG2+wkRxzcRjfXOI2uYN4Ll+9gX63+5OPrjRkycn+cNouBeN2E2B3V2y1p418T6Z4Jsv3Z6bg71GAmVuWmo61Giq2JVCYoWvWWJkTJPdtfXxsbjN4jjxR+3Y7r+/TH1U957Hubu/4qrdxBMp69/rdDucSLD8Dkiw7Ad7QzGPmT7VXYuXhLhmX7ZmLTIpojXXP5wuPYL1y7ZSEi1sQQxGq3UhX4ub4HRChlRqw7RlUYy0aDBUwCeifDBpuRiJoIpUesV4R4ZBo4kf08L5XzZ1XEu7YyEVBheJOrL0a7rD2R3UPq7FpGA3RnaLyv+Fqaf3dPV54n0XLLhtv8LfIC42/fudf1AUZwI7RxTd1ZhaYzYfwgj5veTXQjHsNDex2N9q0iJL3VlVNXdq427EhlBMTllz3XLSKjMqaGuVqjbt6Wovjx1xWtC3Y9iY+8PtKsrHsYCKB1FcUwHbxSodsjmp4W5daod/WIm/HhbEhuLyn3Rwsbq3KSNwp5k88H8FpsLSrt+PZFR9nNoBFOhSSrmr6cqyg+4+sRInOvOfQmb86lNTmrHcgVZVaIYCc9MNEGrGjR4kqFMEuGJmwiCAkc9gC0WIgQiPEsTYyrs6OrJYyReEM49iAV7IilvA6KeOiUsWuBmEhchHf/D3Aq9kaAnkJ447YTpmb1o+w3uej/033WCTXXyBlkZC/5zHOY14BKfPSFheRAT9b+Ezgtleh7MeG8Ck9T480XolpHwZX891PnVnDrL3G6XwOxN3ov1adofXl2xC9ngTL4NZYyW6pVBYovYN70yE6lR5RvJevlciY1R3xbPcOv/5bExfw/Zd78OmyMQ54zqU+j0R7C5ls7llYnRXH1MijxGYqdw7jZgKfduKm8OMXvuO5N2eFrTSCYaNHiSoZM6I901LE/c5RwdrqU7j62Jen2vs00ZiWFsEbg5nBexTMtTLoQ7Q/1+gZ2J2QH44D2jRPFqSqQ9PJOUF277AmKUTujefkLqjF3pLtiUX0Tz7t0A2AOTxHiDUh23YrkO9sNE9ylRFmOl95tCtD/xYuoy9MJIqOw3EUXw8rwoeudnYMGoTiVKpNJjAbY73ois7QxUi+lQ1M73uDoUgK0bZiJlaJ9PtCNq0R7WukxC5t/jTWS9k+7C5shMd+8kbC5pvH/MXfN/xRzcjM1V1Z/HSKwI3BfOb1VQ3tFk53Iq7WzUHA0aPMlQlYmASAgUbvkmLDeFJwQq76PYzlL6Uy2kKSOh3dG3w/0nJeWoDdOJBpJyIQN4C1md9++IgahuIubc6ESAPKOxBrZz1YI8H9O3r1Zwfyd4SUSvCbiEIjdTRYg8EzNe/Dntu1Ptzr+ESV1m55Q/F/sej7nrndrZCyOh62th/T2BMTweK2JxMT6FqStST5dHMKPfj2FSmFPC+T+G5z2z1Iu6KjUObRGNgeswE34MrYaNMb3TAmwMrl5wf1m7NifOlX+SVfP9C5szwol0nssnkY1tojmbMhK6/7xw/7HJeT+Xbw7Pfibn3RpmokGDJxHKbCJkACVot+PVDHnhlvXc78M9B4XzWjRTRkI7rbeH83+nfXFU+Uru9BimD/ahsG8NZQ5hjECeN0cnApTuDtNw23dii4ePNll1p92PBFyd6pBB3D1kI2bOwgzoPoMtqqnE4hHMWO+jmBHcMth3a2F2BGCMYKcFuBtGIk/SomRPh2GShPdhi5O3FdBxDaYG2ZV2hmgVIhMl3X6/DGjV5+qnFtEuoNO48NenYmNKEr4WluTqhe7+KlIwtSf1zlCU2XeRDeH9c2wOyXZEzEU6lycRPYjeHs5rzqaMhMa0+uT35NMRiHPZq1Py6EhjM9GgwWKMKt4ZHprkPyTu/L3hI0TiuDYxCZN2lUUSCRGfZ2AL3BgW5MeX54nGJWQXksexEMYrJ8/MpnOciSKkRG03stkb/4JlAxWKRONlNhG+rb1A32t1okj50HBtakEdnVQCt2ELm2wVUpUA5KsEqjAS3vYjr21rAz8KdafBoPQtz8FcDzeh3T1Qi5/a/F6iim01V38/oO97oGvft10daT0po7oDZiCrZ/9BjMUC1VUuneJEqB0rY3MlleRcklOWnnk29h0XYGnbIfZtykjoWzyH8iRvohvabPzQnfdovDkaNFiMUUedAXGCvxQj8OPE1N9+8qtcSReuJu6mdF/KSPigNJeHazLCko4czHDrA5ib3gRGDH8HbJzTTv3thZmArJh3KWzH79UEP0zqzwsCNEgmAuK7foO4GCkGgNpeZqQ4jWikmLfrn8D68OuY++TaOWWIMdC3nEOWkRimOObC8pQHg3oQU1cci7k5zswpI89oVGPKxyL5hru/X1CfKrFZCwstnRos+r6fS2TIJUH6MO3GiXXqn0s+EzGS3Kd7f4/NoQlsTn3A1a/vBTYXW9jc1PuorJSRGHHXryYrxfD1q00vIYaEf2lyTWjUHA0aLIYoS8CVR8C0CE0m7p4Uzjqd9PqtULonht/eMDKPkRAx+Gx47vtkd2KvJ4Z6bhGtvq8kRrssYn58oq+7qK7myCsLLHrgKURV0COh3T7qpIhwP20iytr1fPLTNRehzBtkBcwddwJb1NOFfT624H8CU4OskFPGOrRLJIQpWFyDgykOBvVPjIGYIBu+PG1/J3sEvZ/S2y8gGs4OgpmQJ5PmSCqZmIWNFUlaJrCxtE5Om+vUuwnZOBE+2JTHMDGK5ZVk51ILm2Ovd/cPYXNxgpii3c/XPEZC104Mz51R0Bb9/i5Ryldk+OqlpE3QqgYNFjE62UTkLXApkXwQM4hL79fkX5qYQ2J7V0YZI6FrCj51ZyhvEywDpgjHf7EF6BnEaJBHhmfzCHCRZKIbZiIVS2+F2Q+obbdiwYy898EgmQiIRFfqngvc+arwqga1UdEhf4wxAm/BdvM+m6r/JudhEo3nY0R9eezdR7FFbS1MJ/5NioNB/QDb1c8NbTknXDsmtHEa+YtMJ6gvFJr94uR8v6DFTDt4zS2w/t2frI3CxfQWTTXPJiJPEuGhc0eF+/+HzaWDyUqizgvlDhFtN17lyqjCSIh5ux2jCSTvJ5qzNtG1VJLIvHmZJ5lobCYaNFjIKFNnFO3stAtYnmJ3T5LfW4f77iPuVquoNkaIiZuU20FRJ/PSeys87wPkMzZpu/rBTBDq8O++B9n4Fb8FjiBGIbyArOtev6A2KIfBfMwwsZd61Ify/DgwuS5pwkEYk5Fn/Hg9FgJZEomriblYdDyGqSuOwsbLsjlt0SL1R/JtdqpCffEconRFwa76zUx4plt2CD8ha9dzHWafIqQqmTr11GEiNMfXIkohfCyXNF35o8TcJ0rY5lUXUKzaAJv7RW6gJL+PIW4glqecHoleNWqOBg0WMuraRAia6MeFZ27CXLfyJrrqOJas26fKLmIkvB3EJCzinaQlLcy6PLVgHwnPXRnu+W5SR9F7pMzE3KTtdeCJ5kwszoW3vB8ja8TWT/GrvtkyWJjsFtElttvFMXW/lKGs9OVFCc02Bz4N3EE2boE/xrFIkj/Eok4unVOOvEIkevcGe3OSNtaF+kSujjcSs9R2y6DkwUsVPkbWO+Z2bMGUjUdq0FunDuhsE5FC57UAX0GMolrmqTSBqTS9EWaRseWIuweK3UAFjWPv2n1ch/dobCYaNFgEqGsTIWgiP4u4o9w9ueah8lK3z0nJM2Ik3p2U8xqiseU4tpspSu+dZ/y5TUnb/HnPTNxFb8yEnlMffojs4nEn5lK5fLje7eKRVydEEfVdWIyFTm6HVcp8C9FOYSr53hWTMWv+t2GxDi6n3aV0gnaG4t/E+BZbkB9tUzr4KURVyu7uWjdQv6xItCU4oscyPfzYXA74JO1M5a/c/d0ylZ6JKMqdUdQ+sDwzMm78v+RaOjbfhM1BSdYux+aoL1NSwZSRUDsPDtd/R7FUSc/sTpRWKTV7J2aisZlo0GAhoFtJBMRJ/JPw3G9Knilz+0w9KcRI7Bd+zwXOdu17DCO8DxAXmjxir/LOIhI67bCKdpn9VnNAJFq7E1M7/4Ks/cQNmPW6Z4S6XfDzRNQHhGu9LIp69pRQ5heS66tioc4/j+1QtcDoUCyKI4hRFUfD7zOJ4dL9cRNmjLc3cfHw+Eq4T5Ej+/F+8q54gGxo927g1VxDtOe6uJQotm9h6qApXdbZjTpD7ZKx9F/Cc2eVPKN6pmN9NEZWNfUDIvMtu6mUkdDfTm6guHNDxEyzP+nwTv6ZRjLRoMEAUWZYWdXa/ZVEG4Utkmt5db093H+1O+cXzxGi8eQRWMhen977FCzjpYJJ7Uq7kaOgd1gXeIgsc1JGRPrJTOS5eJ7n6ngn2eyjF9F7unLvGeNF1N2I6bUQ+m8lVclbsbwKR2IJm+bRLnH4GxaNcWeyERhXINpISJS/DDaGPoAFXLovp7wrsSiKu2CMyw7h/A1EJrHbd9Wi45PNFXkUVCnLj5OtsW/rGaR9Xbl7EOfgj4jqm7ounnWZCP/s/uG5BzEvkTLj6iFiwrZrMdubU9w7PIq5qx4Rfp9PNqbMkCtLbqB7JO3x0HM+O+grK7xbns1EY4DZoEGfoAm0N+2SiCrib+lB/xaePS2c7yQ6PYN2t0+Vp527JBx+l3MJUTUBFihpAgvh7Mspqvdo2kX8VRillJmY26E+jzwm4lzac2fI5U8MUy8uf7rP+9+/rEYZ2p3mMTDDxJwKo2Tzlui4BRtH+2KqjTyX20lk3T/XKWjbSpiXzmcx485UNfIAtoOW0eKLc8pQfVUXZLXj5Vjfjbly634DMCb2VLILbJEr8FuJXjx1JBPd2kTgyp9F/J5HdXhO9X0Ze69T3bVtyBqOag5LguDtaFTOSZS7gZKcPy2U+Tey9lNF8DTNSyb2TtrRoEGDGuhFnQFxQsuQah5GtIqe1YLk3T4Vy8D7nIPpZW8lisX/DezlylAkRunpr6Fc36k2LU3cSUsk32lh6MVmoioT4duwMVkVzn2Ym+Uy4XpVBm8EyzPRojgioKC2FC22a2BxA75ADIPsbRvmAb/Edp8vdm310E7Ut38O7XEkdF9RW56BLban0h5tU54DPyRGtKwabTOvvRDdS3/v2l8G/37TsW/npSpnk80N4r+Jxsvu1HMJ7tYmIm3DF4gqtipGppOJQbx2D/f7NPJ7YXO3hc3lW4k2F2p3VTdQQW2aTZR+ySC703s2ao4GDfqIbg0rBRFLv4P5SLjWaSexFXGBXDG5f30s2p9fGM4kG6XQE/PUcwCK26563hjKfpyopqhKaH3Qqk5qDvVx1WBTqdHY9sCfiX1RNSyyytiTaJOwfk75Yhzy3n0Gtqs8CrPhkEpIxxj2bX6JqRVWyynDMwN5Ug2olmvDS0dSKNrmobR78ej4JxZtc3ey0h3fljzGQr99zpi3u2sp8owQfbj0PxPjpfjyU2jc+Pgi51Ec6bRInVEUbCqFrm9KlOq8ocOzaoO3bVjLXfPPzcTmsP82p2Nj0rehLBtoUZsVx+QujBZVZbIbA8wGDXpEr5IIiBP5JKrvYFTv0RhR+Zm7Nj2cv9+1Sf/vE+6ZRhYiBtp1K5ZBFbuHC8Mzv0rOl6GOzYRnIuom4PLEcCpm0e4t+/PcXIeSZ2cQgxp9yrWpSF0xCZOEHIjtmO+gfUG+AZMCHEw03nyBK0P2AJ12+mondJ/9M48BelFo08PYzvpS2uNSzMfGy6exwEmzaIdngPRNPx2evxXrW/+NUjuIvARuB1MvgVteKvm8OCO92EQI3cyJND7EH8j3tlB79yE7p/X/UWQ9cn6O0Yajk3pSeAmjjFalJq3yzo1kokGDHlDGRFQ1TPO7kTRwT9kEVNmXkWUQ3k40mtTObVvM2KyFuYfmGVLq9ycx4iPxfRmRFpHZhOq7r7znU2ZirmtTkTqjbsRK3540dfQY5qmwZnK/75MWxhCsQP53mY1JZ75CduesI41EKXHzFsQFcjrdeZb0wkh4eGnFdCLDJQZnHWxn/zWiCN4f92CRLA/DGIAlc8qfjPWhmKtPhmspMzMb60tJER7HGO1eU8q/kWgX8lNgiXBe42kuvTMRdaV0+kY/xObeJ5I2+3cYImb5/DE2t72k7VqigeW+4dxl4XcZPVJdMvZ8jHqB1vIMMBtmokGDDigzrKxjGS4Cc0Eo42I6xz3wes1HMQZkX2yhUltuxVzutBvTNR/ZMq8dLwv33U2MfFhF9y19cN2gQ52YCehsE1EVab9uTrbP7sJSZy/h7lmfKIrf1Z2fiemnP4oRau8FI0L8W2xReAXtuTEksj4+3P/9cL6uJ4PKgt4ZibQ8ufgeT/u3nIwtku/CFkAv5dHxb0zsvhfwzKSMtxJVReu580tg38AbnZ6LfSuhipQmDxrzuxCZyJ8Tk2b1IonQePTByk6u8LzeY1li/pMiQ95UcnFe+D0Zm+uSmunaOzHa8CjGJHeaM+rXi4lSm07t9yiSTDQGmA0a5KBXmwhBE3T7UMYo1ZIbSayr3YNfxB7FotStHO7RgnUu5YyECNpMYj6N7Sq0Jc++46gKz3nkMRN3Y4vPTkQj0W4kEXlIGYpdiEaPLeAqzLUSYrbIP2J67/dgO8E874p/YOm/dyPquD28GkH9lmZe7YbY9puRUBsUr+BystKKIjuQbTEx+sW024GMY3EwPg+8DhufF4drZ4cydsb6Xs/8Hfs2QrcMhIfm7s5EZuJ8bKwr9HhdJsLfl+fJVEWqt1147n9ko3B6pIzEuWQlWCtjTF9KD1qYlAQi7Shry/OJUpvtk2ud0NhMNGhQAZ3UGVUJtxiOaUSf707pln35S2J2ET5A0Y+xxc63Ve3txEiofDC3sglst110r4fa633m16Y7pmo20XvgXqJe/nwGk8VT77Y0ZmSo3WQL01XLv/5+sgujVB1nY7YQc8knknl2Dmr/uthiNooFhvLX6mBQEolnh7Iex9rqr9XxTJE7sz/uw+I+TGDv/wd37RZMPSJ9/wjdSWqK4JmJB5N2XUPW46UKtHiu48pTbJVOZWj8fRTri5+4MovuTUNkp15am2K0wDNxPyOqmsrolNr7zfDs1RiNqiph9OU3ao4GDXLQD5sIQRP2PUTCujr5i2/eDlp6+AmM+O2UlD3k/odqjITOHRzu/a2rvwxqn095fmZSfxXo3lnEgFITZA3WepVElHlXTMOYofuIuvkxIrN2BxYA6VjMC2PZnDK8cWER1M9vJ+689c262XH3m5GA+E0lIdgjnC8z2CsyPh3BAp7ti6lLbiLueMfJ9vXtWJyLvPKrGp9WgXbmh4Z6pQLYMJyvs3PWWPo+9h5lqblT6Ppvw7MHhd9l87Mo10ZKJ3bCaIM8PP5BZwmP6NjqRK+PQ5J6qqCxmWjQIAdlNhF1JBEQJ+vKRDXCB8I1P1lTo8jnktXpj2M65tXds2k76jASenYTjPhIt+qvFcGLaMfDsW3OO5VBbXo92VgB12FeEEXtLoNUO3ltWBrzTvggpiuX94QOnwzrUczbIIVnHKoucGrLt7F+Pin87pa4DoKRUFtOxtr47fC7zi69qN9nYIGSfDAs39ePY4veF7GxsEZB+XX7XdC7bUo2tHYLC7MuSUiVvssb91VUgr782dj4miDaBtWRSKT1DLtza4SyveTyPLI2Jynzp2c/QFS3rEx9u6QiyURjM9HgaYl+uHh6aKJ+KZR1LSZ29ETRE4dVMXcseXU8SiSAlyZtLKqrCiOhuqcQPT92K7m/qC7tzC6n+s7Mu+iJ6J1PzDR6N9WCVlXdGX+XbBhtHTdjEhAtcmeT1dv/Gct94cuss5Dp3iVc/ZImLY6MxOuI/SIj1Lrv699rB2KCuRbWt7JDGcPGXZrN9CHMnuIoTBI0I6eeKpIgXFvmEg0r/47ZqOibX0I1ZkJz3+fTqCOJ8x5JogNS3+X1cVVGIr3/0nD/DUSbifkYTVnV3e8lG8MYTRId+FJyT1UUGWA2kokGTyt0YiLq7oY0Eb3L5M7umpdu5MU9+AVGBKUDPZx8d860viqMhL//a9gO6WvJ+TJ4XbGM7aroij1B9UGDwNz9yuJMdNLVr4mJc4t09fcTo0huFco5Fnv3f2OLxFLYIjbPPfcDshEVqxJE9cMLiPYkq7h36QaDUm2AtU16f7mB1pUwgfXVD4j99wDWp0thfXwTxkB+Fvtmb8NCml9H+zfztikb0973RWoQ3Zd6Z8gw9jXEhfZSouqqkz2BjFIfop5tkJ7/OtXmWjeMxBAx0NSPMNrxC2JfFsXlUJk7E6VEVVxZ8+CN0BtmosHTDp6JSBNwdavP1iTUZJb+PzWYeg3tkRiV3ntZ4kJdltTLn6/KSKT+5NdRvksqqk/W6/+h3HrdMxFpnAgv+s1jJvL02DMx0fKx2GLwMNlFaAzbPR6P7Y5XSZ5/FnFnqv5WO54BfIs4Fh7G1B0r5rx/EfS+HwxlXBh+96L3HwQjAbFNCq4k9VtV41uwvvk08TtMYH2YGm++OVx/zF0DW+A2x/T0Zd4yX8HG0Jyc9gwTx3CRi6cW0lcR3X0vI0o/0n7UePYp0o/Oef8ieOmfmKVO8WPqMhI6r+BiDxIlLZ0ihXp69CviJqasvjLkMRNNoq8GT3nkSSK+S3+YCImLFwCbkZ1EG5Hdud1LNjfEEHGXcAudxc11GQkRzDWJettNk2tlyPOnPzFpi1DERPj8AnpmHaI3h1dzTA3tOwjL45AXz+BGTMe/JxaiOe+dFZtCWVIvde+SSny2JZtE6SayWSfLbGZ0Xozk4UlfdINBMRJq0+FYW3/eoUz/3iNYn9xE7KdLiHYzKt8b5UkEfwHZxd9jObLxO7To63iUGL/j5WTjd2xCjNVwPVESoe+m930FkfH5LfnMhJ45iTjGlqG6zYbK2pRoj7RGci1FXUZC7VgSoxUtjPbo/DK05y75ATEQlercjMhcSw3XKzPxXVdnw0w0eEqi3zYRuOeWJO6uv+6urwh8hixh9Ds3iAtsHQO4uoyE2grwm/CMrLbriu8l1ZhPNJZMiXZRsCntiHxfTyd6hdyBZSxME021sAiLF2CBjV5Ae4RF1S/Rt9r0mvD8KPlifC/yHcICLXljvd9hi5evwy8q+n8WUU3yopx66mJQjITatCXW1nnEMNjpe/mx8XKydhA3YEyct//JW5RfSFRtyXNDY6BIdTUbi5HwZfIjit6DuT4eRYym+Uei2mLEHUNEKdfLiMzE74mxHbwB6cZE9eSu7noVqL8OCc//JvwuY0LqMhL+2ulkDXt9PIl1MVqjPnsEo0Ve0vZ1ohQnteeqg8ZmosHTAv0KNpVCE+Qwom5+WfJ3bhcDW7tnva53EpFgvi0pOw/dMBK6JluBn4Tfdd5dbb6I7G52hPwEXOdjBCqvXStgIudjMeO8NJnUA1hK7E8Br6Rzzod0EZREQkaVp7pnyt4NbIH5KFmPj+9gwbSESclfZWa8jRhVcXFWbSyFtbVFNsOs/wv2zt8h+10+StzRp+6JHjp/anj2KmJW2vR7FRnTTsIW9wOwnXWedGoUG2tvJsbuSN9ZOS1eSlQh/h5YPpzX+JVU6aLkHapA3+VcbDwf696hCN0wEnpmj/DM1e5c+j22xmhPnqRtWWIslcMqtLUMXqrbBK1q8JRDmSSiWw4c96x8s8dCHS/EdrFVdm6a8BsRMwSu7covQjeMhJ7ZNjxTFm2vUxnPJYpFX+eu70ZkCM7LPsoSWHS994ZrcpHVIbdXibJ3ph3axaYGdynUDweH8u7DRMxVmMZ0EfXi2rxFVKL6E7B3/0743Ys0AgbHSEBs23exNh8ffk+hO2aqCJojaxIXrIMqPOu/c4qp2I5f3k55TMXlRHuZVXPKeBlxrP2RyKTuEs49TnSlrPodfb/dE8qRyqcKU1CHkdD3Xye0dYwYK8Or4sokbb/FaNU7wvNlMW+qwqu0GslEg6cMBsVE+LJPJYrlz3T1PAR8HNP/Qv7OLSUiRRkCU/Si2phONCSTyL7Ooqd7v0LUSw9hRHgcW5hOC/ethzFR36Ldt1999kNscdkY203KNe0mogGmVCNVoP7z8Tw+GK5VJWR1xfqTiC6te9esqwiDZCTUtr2xNl/hzg1TX71Tpa4Ph7L+C6xEdZskLU6SKGxENGS8Fgs/vxMWn+JvtI+xeZhh4eHAi4nM8ybEefBnjEFS0rIvh3u6mRcvD2XcRTSC7LdqQ2UOYYxQi+LMvp7pXh6zM5FERvRQ6qFTC8qog4aZaPCUQkosUyaiF2KsXegLsMVzlKyf/PfIiliLiILa8CNsAf540vYidMNI+PqUkdBnaawCLbCTMRdOLdTnEXd4d2KGmL8nGzCnhVmYX0R57IDZRGbiLqrFmfBQ3yiex3V0r//tZGh4KeZhszb2/ceIhp+9LvaDZCT0/Aah3FHMSHELonFkKgbXc3Xr1sKyFJEB+GK4Vtf2YC5x8b+W6J0hjBBjinyPaIzoj1swFcnu4T5JDyQxuQfbmRfZb3Rq46ewuaVcI1UlYHUZCT33iVDfOR3q8+U9i+wiL/o1jkkNId8otio8jW2CVjV40qLIJqIXw0poFxf+jmgPIInCK9z9ZTs3LwrVgvx/4VwnItItI6HrBxLFup12hnrnvLI/QLttQ6quuAJjLF5HjNaZlu+N76CdmZBkoiqDtQnRYO71ybVu4J9NXR/HiNKIP7l29iLtgsEyEl7iInfkK4lj+WHqu8CWQc9KdTCfyCBWXTC9BMEzEVKB5JWzDCaFOByTSswjOz4fwlQ3il45gane0rbn2eGkSCUEByTt7/R+dRkJXf8/oqRnhmtLURt9e15BNh/KGEbTigxo66CTAWZjM9FgscagvDP8xH4x2Z3bf7DFWZOjygRUeUrxfRfVUnz7Z+syEnk2GXKXU3vLDN+GsaRP78R2dTdjxGcBRoTHsR3fGdjuI00zrfLL7BzUxjUpD1pV9n4ymLswOd8LUiKcBmMaD/V5cXYvC/6gGAm/IE4Hfk1WctRtUK5O0DdQ/IqfJ+fz4JmIKqnA1edF9hWrYhFMTyBGrfSL6DhmuPgxzL5h2ZwyVLb/Bvp/bWxOjRPdLasySt2oNiCbqvylFZ/1G6LJGO1S/0rStqW7v5NNUlk9jTdHgycdOjER3UwGPynXwrJ5egJ0Dqbzzbu/Sls/iS3CPwy/qywS3TIS6oPJRC+Rt4TylA0whTI+nky+DlrHBGYEV+aWWXUB1PvNpjozoWd2Cvcrnoe/1g+kTOUuxGym2i2/JWlXNwt/vxkJv3iAtVFSnxb2Dv1O7+2hujenWvyCukxEHsqY4hFgfSwFepFU7U6MsdofYwzyGJdJRBuet4bn/oHNsSo0p1tGAuI4OCe8wyeSMjvB17FSKMe//zeIG42qbUqhPmiYiQZPCvRbEuF3bktiYnypIGQX4cWJdUV13YpCoXtGQvcMAV8la2AlzMR2Y0djbmPeMEu65IeIi+eZxLwKvw5lTKGaOLgMRczEXPcegr7vEu7erybl9BuTQ51zsfHwMNkIjb8ku6urq+7oFyORSlK2JEY1lCTsYewdNg5lD0rsrG+hsfdP7Jul48TbRHTLROTBMxbqQ0mvzsLckaXqSHODtLD8HV/APIry1HSnhvtkrFl1PkJ3jES3xtop9L1nYDRN9hItjOZ9gGrpyovQSCYaPCnQTyYib8f5d1fuHcQd1f7hnrqE14tCHycrCh2ERMITUN3z0vDsDZjl+7sojiJ5HeaJ8VrM+l7MxfmhrHWIxpYyqOrHAp7HTOQZYOrv+8M992BhsruVQlWBGIMjQ50XYJ4inycyWWNYroU57rmq/dIPRsLXNSe0RXYQj4W2rgL8NJw7knbGo5/QfFyVaOT4/nAt/ZZziYxZP5gID5WxTyj/EaJb65ZEw8sHMI+jS2hnLB7EGOcjMFXnSsSorwq8NZXOEql+SCTKVJVVIRq2P1GiJ28OMVGvd/fXlVg1zESDxRr9CjaVEtDnEwmsFrB3YFkwJzAdq3aldRcr1fM2oii0zkTqxEjk7bw81g7PeENRf9yNBax6DyaKVoAlH2b4PKLkAUxF0wJux1xee/WMETqpORT7YDUs9HgLODRcGyRx0jf/dajzA+7aZlj/qT/vAT6EpTjXs536phdGwo/JpUPdWrhboW2bufv7mSOkE/RN3hvqvBf7dkN0zp3RDyZC43I5bKy2iCoBuZi+kBhi+mKMSZiNBYD6JvlJx+7BFvPHMSa9SA2SLsC9MBK+DKkq35qUWxUak5OxSLMTmLTxHWQlbRcQPTtUT9Xx4lXMjQFmg8UGXhKRl4Crm53b6pj4Ulb/C7CYCatgol8tvlU9LMrq+1Zo9xfC77q6Tc9IDGOEMK89K2LRIT+FuWX6YD4T2I7sd8RcBsvnlLG7e0ZMhNoyjBl93Rqufy5pZ6/oxExAtF35B9HeY1ALospdhSideT7ZxRDMsE/hv1tYZMc3uutlu7puGInUDmJXzHhQ9f+VbLp0MWHPJ+6ye81a2gleDaW4DV9z1wfJRPhyPhfquAUbuxovmoMvIDKmVxPjwUA26di5RJXnhPsrNcjrifk2PGQUqm/QLSOh9n4x1Htqzec9Uk+QMczwdlWMBkoS+zj2bqvnPNsJeZKJJtFXg0WGfhhW+l3zVGwn60X7PyXmZ4Bo6f2D8Ltb4yMwQnpTKG/nmuVpATqPrERCWAJTV7wXUz+kUSRbmOHkX7BJfFFOHWJMwLIKplk8dQ/EbyFjs0cx745ePRc8itQc62GiXbXvtcn9g4DKfl2o899kE635cTUNG1feKj7d1eUxFHUYiVQd9/xQh+r7T2iDvqfalzcWX5e84yCgsncIdY5i8R/WY3DqDIj99mxiavG8Hbz+fx5x7lxD7P/0Wy2PudFOYPTDG9+2MGbzYszuaBvy46ccRHeMhO7bmTgW9Z17MS6XR9Jf3LUXkJXS3olJLdN05Z3QGGA2WCzQq01ESnhfh8U7UFn/ICbsEVTXw1jq6W4XSdWrXeBDVNsFenWFRIA/CmW8G3OX3BOTcuQlvfpPuP8gbDc1jBEGiZdXJNpQDJHNnZGXgCt9d0kmfkOUWvj37QfymIl/YyGRW/SWErmbdnyBGMkzr17/ew1s16i+XBB+r1Fwf1VGIq3jS8Sd42iHOvzvb4d3OTn8HjQxV72/xNp6OfYtB8VE+LKUDfY3tEtxBL3/czEDRNEF9eUUompzWSLDsXW4522YdCBvLt6BBaw6kJiFd2+i2mmIaF/RiRnQ9VWJ0rHnJe9bB6Kh6xHVmO9I7tmVbDK1K4geOKq3U7sbm4kGixS9BJtK7SA2J6vL/i+m65ZNgBbumUR96sfdtW6g+j8QypOnQzrx9C5FPvGziDk97iDusHQ8gqVk/igmqlwup4xliAZVrwnnRshPwCUmAvL7WG18IXGx3D651g94ZuKfxPd9EHPn65dtRidMIiYE28OdS9FJWnAXJjmSRGOY7DvMIZ+R8PcsgWVFLdNlFxF3tfntRPVLXQ+TbqD2b4B9O7X7nwyWidieyGTlZYP18MyEYjVcgzHtEOeDyrydSDuEaUTp4AVkbVV0XE4MDPUL2uHtnfK+i85dFMroNQGX+uPjxPeaSZYWLYXZ1ojJEhPkbW86jaNOzERjM9FgIOjFJsITi1Vot67/Ku3W9XrmM+TrU7tB6nZ2ePitSSeikWJJbJE+DBMvSn/rj6sw17M30h4+WHWLIOndzsT6UnYNEoumTESqzsiDyjyFuIMbhL2C+udZmL3HAmxHuFFyfRDw4vExTF+8TnItDylD8Qay3kB/JZsATXEI5pBlJLy0CNqlaX8PZQuddodq87rEBFDPSq4NAvpGG2HfbgH2LZ+VXO8H8uwyvhmudWJW1I7NiMzEv4jMxDA2d2ScqGfKNgCvBj6LRUKV9EjHfLJqkGUL2uS9QdTGj4QyFOyr2++n/lqWGGb8M+Gap4tgY/KrZL2BTiBKWaG8jxubiQYLFWVMRNlC5XduUzA1gKQLLYr9/VXmM4mujW8L93S7U1IbZxHD9b6ErFumxwaYuuLbRLGvP2QQehpGkNP4+EWW4rj69iXqQnWuk01EEdRnqxMZnfeFa4PYXX6QbFTGOuG0u4XK3S/U+WfqMUp+PC6NvYO3YfkxUdwNtsCLkVjXnU89Q/4XytKOuI5kRuNd4bLfGc4Pug83IStFGSd6vwxivLyPqMqrk+lS7d2UbJhuMRNXhnP7JPdDZw+q9TGJ1mW0z29JA86iPCiW1CAvDs/MI2Y07ZaBVz1vI0o4NyBLG/17pvFJbsdoracdRX3t7YoaZqLBwFBmE1E0QNOB/lqyYXH/iXkiCOliq4n043D/7yjWp9Z5j+HQlhYWYtpj5XDt+NDW1D1zHjZZj8ASLP08nPexG3RUWfTBdoBK3LQiZtWfqjO68YBRTAfv3tePHa6I2GyiTvgTxEWwKGhVv6D3Owsjdtqp1a3Lj6O1gK8TmaL5WH6SWZhhnnJBzAjnTiQykePh2TkFZVeB2v5Z7J2+32U5deqaSzRA/TPRffgh7Nv2e7z0ytx65kftvgrzhlJYbMWiqCKZSseLbCR+BxyMSR3z1CDyBtkZm1ce04ibpNfSLgWrC9ESqVB/5M4LKU3cnazK8XKiATQUqzs8LW9sJhr0HRpAmmid1BkpA7ExMfJiC5ucH6Hcp18T4xVE1ceWybWq0ETzIsETQrk/wPSnh2OqjvvJEo1xjKE4AVvgV03KFpNzENEHvC5GiOLes4n66m6YCNz906gvRq7aXjApjIg52EJRFrSqHxABXIbo3fOqpF11y/PPvYhofNjC3Gk/jjEN88P/t7rrvwjPCFWM3PKgPnpVKPcO7B3Vxn7BMxHeO0NuhLI5KTJe7QYq45tEG4du1W2+/fr+Uo9eQ3fzT7FYDgrlnOOuzcK+yWewCLhiHnU8SAyKtTX2XnrP40MZVY0286C+25K4uXhFck3w/bkMRmO9+vVsjBYLeQxFkc3E3u6ZBg1qo5NhZToQ/eBeEdthSS0xgenu1y24X9BAnkLMLfHtkvvznteOI2+ibIhZck9gkfPSHceNob49iSmp0/JFHM4Nz9QJke0hCclxSRt8nIhePFMkeali2Fan3BcRCdsrif3cTaKvburfKtRxH7BCONfLgpvu6t5CftAjHdfRn3wegtq+AjEQ00tc2f1A3o7e2xoMERmZMUzi1mv9gzAA1ntsjO3+pWb9fDhfN/22ylMcifPIemZ5rIu5q55C/vi4CbNLmsBiX6Tj3htvVx2v3qunhdHEKRQzYr5f1w1tVR89gtHksqyynVxDGwPMBrVQx8XTqzcmY3kr/M7tIoxj92UXTaR0Ys+jXNTaybtiNcw16kTMKM7r9CX6vwBTBTyfaL2ftskvFqqnV0ZCRO/DxAX/R/TGRAhqo2JdXEZcMLtZdMWgDRNdTH/i6vLeHINiJlTGURhxvCD87pdRoveYAcuiqhDqipp4urs+mf7HWPgp9m5Hht/97LeUiZgdzvvvJ7sP75rZr/HSL5dk780htcY1xE1KnT5L6c25ro1lxtfTQv3vIRsUyx9XYdLMHcgaPwplthuCVyXOoxq9SaXCW2MGpF7SdgBxrKfq6U7eHI1kokEldGIiRFjSAfsqohtVCzOIequ73mnnprJnES20vVeF4NUVKaZju7mPYCGHU6nDRDhuxnbss3LK8BO8jOvvhZHwhpWPEndsL0iudwvv3SDxr3bR3ZStZ94SynoUs+/wDF4RMzG3h3o99C0uDmW/t0/lQrtX0SfJz3tyR7hW1Sq+KvQOMki8OPzuVbWRZxORFyfC2+zIlbkf40VB0h7DxqKvq1uIjmxG1o7pRizGjO6p084qkS3LNiwrYPTvOEyqlGY0vR9ThX0Qk/akbqpqS5lhtrxC7sboVp5UOG2vb+vbyGac/QNRNah6PG1vmIkGXaOqYaUfSBthBmJ+0hxNdJ2qanSke04O5VyPTTgt7HmSjJFQ/36hDbfRTvxvxHaSuxEtmz/ryqgrcuyVkdB9PtiU/n6EdgatW6idUp106z4rgjKdGIGxKAz3oJgJjbvViIF6nlvQhrrlekbonRiTqbHzd8xFcAFZd9Gbwr0jOeV0A5XzvFD+Q0SbnG7LrcpEpG3QeLkJ++bdjpdlie6L/Qzbni6sVxAXyH9jwZyq1lWHkfAo8wY5HmMkrsJUC+oDf/wbU1fsQWR+PESTPN1dihhg6+SK7dQ9+n4zMNp8v2vLmUQmD2KfNAaYDbpClWBTfuDOAj5NJOwtbMFe391TlXDovrnEXBRvIp+ArY5ZTZ9MtKPwx32YR8UHMP2s5/41qV9Nuyi7KnphJFTfrsTd1GnAseF/JW7ql8X8MBYMS4GvugnopXvVxjuwsMRFi6fuX5NI4HtVc+iZ1xOZw15CEafM7cuJ1vEqf3csSuJoONbAduk3uvt+F54VelEFgL2TXI13Dud66S+vzvAuk0U77mHs20oac0zJ/UXQvZ8IZdxOfxPJqQwZxh6MMUfymLiJyEx06rtuGYkUsp2ahNEWMQtghuWSkl5E9HbS8TgmHfgkxbl2ZHj9xvDMfCJzXpfGgtHo010bHsJo+azk/k5qjsZm4ikIv9hPckcV4tZJneE57ylYeFlvB3EJsJ0rry5BVf1yqTzfXVsas1w+nHx1xRjmXXE8pq5YOSlbi8a2REajFyO9bhmJvIiVF4Q2bB5+P4BlO+y2bUVtldfNwxiRrSol0vdfh0gA903KLqs3lUx0y0zo/n4mRwLbiXkC+QAWjXS5cH0tYhyJtcK55cI9fhx+jxjMqdd2fYvukskJVWwiOrXhneG5B7FstVW9hzTv1yduMPaqUG9VaE6sROz/F4dzGxJp0s1EY+my/usXI+Hb5o1mt8m5bw1gFyx4nQ91reMuzHvkQEzamvb7xeE+Bb6q09Z03m+H0W7VfWuo19tpSRLcrWTCS2/8mtSN506DAUIfu8p9ZTq4vGBT6a79NVhEOA2ma4khiqG6BbsfXCp/J+JitxumX/0OWVGzFy1/B1sgn0k7vLpC5R9Ff4z0umEk8tQZ5xJ3GssQieAOST29wDOXfwzln1OjfN0jAqLAWVWIQL/UHKpnEr2la/ZjfzngY2SZgTPIeuqM0B7Z0vfZBuEZz4R8jMiEVGXWBL3L20J53vK/KsGtq85I4Y2XFffluxWf9fecE579A717teSVvyNRXbekK38DIr24mUgbisZJPxkJXDsuIBrNemlF+h0nY9/qXZibfJ5dzt8wr5SdsE3Ss4mqiZ1COVOp18epdHkPsp4ofySG7Vc79R2rBK3yxrad0MngtMGAkRKqYZiyAUzZEabuB1MOgal7wtRtiLtcQc8VSSJSBmIu5ovs1QfHEDPpVSGaZcZKa2D6v1GMkZB6Q8f9mLHShzD3wzrGSv020qvLSJQxEf76Gdjk/HxyvleovS/BLNwniOL4KrvTrYmeC9sl16rW3QszISKzEbagz8d2yf5ap+fVjiFsh3wDcWz9FniZu9+P0Tm059oQAyy8LJSh8m7A3IeH3P1V2wkm/Zkf6twwuVaGXpkIQff9H/G7b12hDF17BTbGxojSgn4wxRDf8cRQxxmufF1bn2jLcyvlYb/7zUhUMZotMxafifX7xzC1WUoH52Hxa27Evsu1STmSHleVCPv7ZmI0XUxKC6P5c939YijKJBPpe61ka9DUPcOatJ+tUVM2IDuuu1ULNugBvsNnw8gxMOkq2qMxhmPoPph0AQzvRvzQeTYRZxLzDIBZp59ANinVt4g6SCiedGXuU1MxY7lDMZc3P3jF7f6V6u5TRQOwzEhvYUgkvE1EURZPPbcXcQfS70mlNmsH/TfiLiavHn27EaIEqtv07XnMRJ2gVbq+P3G31MliHdqNVrcjGwr5ZkxNo/Z5Hb7+zqE4+2cnQ83LyKr78nakeW0eIvb5/u7ZMngmwgebqstECLpfm4c/EsdD0XgZxsaU7JZO77LuMmhcqo49w/lJyd/1iLYmZczEoCQSzw3lPUSMgJlHbzwNyLu+DiZ9+xb5YfpbwM/CPevkPO9pZBn8+64X6lP5j5LN3zGE0bUz3T2pzcSIrTWTfmprT267x2DS323tesJ2R+U3WAhwhGz4AzDiFuEpLXjWGGw7Ci8fhS1GYfXEFWnkj8Qdxj7u2veJA2oJzIjJi9ouxIIBCSlRqTIp3oJFfysK+PPL0Ca5FnrU5bah/0Z6UJ2R8JKIsgRc+rse5h0wShSx90vkJ4ZhNtEf/aCCdkN8RzE33raimzapvG6CVqm+H2AM5qcrPJMSxtOIY+wh4FNEO5n0fl/nHMrTiKfPrhDKfsjVdxrVGG+I7/Rp7F3PqvFMahNRZljZCRovPp31XiXlqQ0HEXfOs+l+vBS1CUxdMYbNlWck13xbnkFcfG8nSncm5dzbL0bCG83KKHfnnHrLntfin9KnJTFp7OGYXYOC/emYjzGvx2D0fZnk+U70M5Uqb4VF7lT5d2BrgmLtjJD11lOuk61hxKu/W7YGbRHWpG1HbY2a7Nek+20ta6OJDQYEdfBKMOSStGw0Cp8fh+smYKwFLXc81ILfTMD+Y7BMWNBGxjGOUgGaznJ1vI5sXoxrKI7kVyZ1mAm8FPMUyBPTPYRx07eGdvyT9glcl3FIofL6YaSXllnGSBSpM4qCTYng/pXspOyXesOXdXio47+YzjUl9tppzyS6034iXOtHv3nJRCdmQt99OnGRLAoTrHP+mSOJhm8a5xu5+4v6tw4jkVfWRqEu1XtfaMt0915F7QeLGNrCGPmycNm9GFZ2gp5VHo7bsDGRel+I6ViZGJjpw32oP4XeVZufv7i6i9q+LlGNdTvtGWr7zUj4Z08lazTbLUNXpA5eG1NtjJKVGHuJ2+mYzc3aOc8XSStS+4m3EMPtq99f565rnIc1ZSSsKcuMwQFjtvY8lKxJYy1bqz4/bmvXE5LzXxHV8A0zMSBo0qwEw1cDLZi2AD43AQuSDzXuDn/+hhbsGD70SAsb6F8P5T+XGAmxhRGFw2knfkVSh2GM698P2z3mGQ5dDXwJS7W8GiaKlcGbwueWidzrwBvphf7qykgvRSdGopNNRN4E0TPHkU2J3G+x8DBmXyKJ0Jdz6tH/nyKKhmfQn29S12bC22m0sFwty4dzeXpn4a1kg+/8CXPLEzqpGbphJNQm/w6pcfK/KA/SpjYtT8yVsLW716NfNhFF0HiZQTQE/mRO2fr/K+Gea7Ex1m+rfNVzJjZHFJuiaC7r/nWI8RfuAJ7jnhsEI9EPo9k8pN4PYDSzhTES+1KccGw+FmH0GMyTZDrtSDdtKVN+ONkInudh3mZga8hEWFPCGnNDxTVpQcvWsKkhpfvw1Rgz0U9pVoMAN4iGLwVasNwCuCR8jIkWjIaPNJF8qInAAY66c++fABaED38IJkrVojcOfIMsFyur4xSzsMF8PBYYJo3o9j9sch6M7ZpSv2PprOXu2c+FU4NwQ6KR3jrJtW5Qxkh0w0T4Ml9D3D35xGb9gurZOdSzAIsQqGsi/usTRadvD9f7bfxZhZnQ/0cTiRdkJWL+/pdgKjiNv9swd7aicMBF6JaR8M/rvsmhDZLutEIbX+Lu94yNnjs/3HuUu4fk/7kMholI69kz1JGquFTP5thYahFF+f1mgsHmxO2hHjGGVdQ+axOZ5zuJCayk5uwnI+GNZh/Hxk6/onoKftxrnPzUXV8Jo8snkB9r5zbMYHIvsmo3wUsr/LhbG1sbJMkexdaO94S1ZAEcNhHXmbI1aTxZky4OaxotGL6E3qXRDXIQBvbwR+yDLbEAfuM4uvRDFR3jraj6eFcYVOIiaWG+yVu6etOFfzKwKcZ8nEc75zuGpa49DpvoK9IOGRruHp55jChyHIQodD/irrSKkV4nFDESIkqdbCLyoDatSDQ87bfFu6DyfhHq+bVrn64pY6vc9/o9ofNsJu6iXc2hOgPzzHvcdd8va5ElcI9izK2PKVKnH3tlJPLqXDm0SWLoMWwnt1Zyv9790HDfJeG3l7CB9ZU3rOzFJqII3uhW7sNnu3rUFxeFa78YQBt8eS8J9dxP9VgwenYtIjPhVWrD9JeRUJu80ex+4Xw/VZWakxsRw+C/Nee+YYxxOgh7v5RmP46pnj+KSb+WTp6XcaVPiPYiYswft4a8O6wtY612yUPRMdGKEvXfhLVtpAXDSo/Q77H0tIUm61ow8igwDidNRCaiysfKYybGW/C84KY18j8saloeVsN2GV8iqyvTcQvma743+RkzvSpExzJEQ6gTwn39HjDqt7OobqRXBXmMhOqqahNR1t6fheeP6FN7U6j9c4l2K7u66y8luu/1OwtlXjtmk28zob5bnSgd2YzsLmlpzCXYi1x/jDG7QhVviRT9YiSgXWqyKTEFfQtr+4eIBFxzZXOiFECpvtUng7CJKILK3IroPvx/7vquoR3ziTv9frdD/XcE2d131W+h9swhO9bkwfUe+stIqL2fobrRbDdQeSdg7f83RltHsMU/j3ashHnCnUxU+frjJsy+401kvSmEqe7/N4S1YwyePxGl31WZiFTF0WrBiRPAOIw8QvdzrkEOwmAY+SzQgueMxg9WVRKRHpJKXDIBQxMw/AjRyGUpbIIdhnlRyIZBx8PYDuQIbNeccrBqc94uVgNfour/YDuLfutTVdYyRFuNVyZt6BYpI3FI+P0WumciIE7694cyLgq/ByHa0zucFOq6EbMKH8JUVC0s4Je/dxDoxEwMY1EAfRuF3chGBvwrFqjIl91t3/WTkRBSA8udiMa1LexdPEO3FJHZ3sXVuzCZCEFlfzfUe0VOG08aYDv0HS8Kdb0//K7DZPux9k8iE/cMYnKxfjESel6p2TsZzXYLqZhWII6Jo5M2lHnTTcLG08HkSysextRwH8AY21RCPRuGHwUm4NKJ7NpS9/BMyHMCHR35jGtngx6gQTcVRv4NTMDXx3lC/9TNB/OSiVYLXhjEwZPOwUSvIuj+uBHjUt9MJFweXqdWNFF0bW0s9G6LwYj81B6wXVQLM1zLM9LrpWwxErtjngQSq8smoq6xkMrtZ+KmIkgytCJRPP4e7Pu2qB8auRcUMROSKnwtnPtK+P0iotRGRPoQsnYovbZ5EIyEL1tlTMX63Rsm/wzLEAnRgPGr4femLHwmQm1O5+6biTv5u7Cx1I++z6sbbC7IFfV54Vzd9/YqNTET12FqsRb9s9XKM5rdqk9lp0hVuA9QPnfLPO1mYdKKLxL7xx9XYQHzXgPMhMkft/NbjGbXlG4PrWlfC5KvkRuJtLSxlegBYdBN3gSYgKUn4M5Wfz/acWGQTPID5nEsWt8x5PskT8J23Ip0Jn1p2aEdunY1V2KDZHLF5+scU8Lfo4jEWSLmXstWe38ayv4FkbhegPlZj3RRl/pgKWJgo53D+Sk1y6raRxD1ww8Qid5Hw7VB1FvWlrWIFvb/xZKuXRl+H0rMTNnCFvcvEcWvKqcfY0kStbWJjMTadPddi761+pbwDl8iG1DuOCwKawuTALwg9Ekr9JFsKxb2N/oYkTmXtFJ2QoMapyPEWDA3EcNid/Ot9R6zyXr2tLA5PYzN8X6MoSEi03ukq7+f/SM1xlTiXFFY87L5MOKenUI7Y7EExrQfha0Fzk1TEtPJF9v/J/R5c3tHC5aaACZg8tzQnsZWogeEjzs5GCZuPsYTYqBePpgXQf2mBUzA0OMYZ74j7SG1+4WtrS4ewxaJQeMSspKPfsK7yrYwK+h+4cuhzC90urFP+A3xPa5ZSHUWYTngz6EtD2NMbYtoUPY4Fgjn2UUF9BGziIzErA739gPPxvTpee+s3fififk8FhX8bvU3C6nOL4b6vtzpxhqYgRkUi4E7v/Tu7qCIrBcPoOwUL8TGzATRbbhfWBlTsX0Fi83xVRgKNnO/7VGtkao4Wi3YLHyTyW8O9S/W6o3FunERQ8HYarWW/Z2gf9K3VVowaQjGHoKhe6D1BkzfPy1UEhgNWj1UNhyeD5IVHsf0boPiMlsYh/6CUN9bMfXDJHp7D4h9IkMtceozMSO6yaHObjBE3P22MIOnOfTe5rL6xrGFSXVMw96jH31VF5Mwoz31sc+pMg1zMXwk3HckJinrdWzmQf2ieAhgu7xHXNv6Xd8wps4aCfVA9ASaEo5WuP7NcG2sz+3oBI3PqcQ+WA74CYPpF1/vFqH8F9Gf8en7WcRwC0yCADauup3HKlMM6AS2yP8Co32DEtOPh/InYzZOV4S6unkPqROGQ7mPYXMT4L8wtDS0VrDP4KNn9wqtbau3LPbV0Bp9KPRpj8DoTDkSaMEbRvvH+UmMdNsETG0B/4MhhXVtjuZY1MdEzrGo29T0QXM0B7Rg6Abgv7Z23BYkEr2q2/3a9oawQZtyJIbFetO/WDfO4SH78/AAin4U21SzAOPGn4GJK+/EONApmL5MukVPzDpBkogZmARiCSzqpQKOjPfnHdrqXIBFlnsept/7HnEHU6XdKWSgdD9mZLZVOD8Z+BFm2TwZ24EMdVmH6hHehQW1+Qm2k5lCf/trBNu9vBhz/VXfDAO/wuIFLNnnOlP4Hc+DWHCcvbFdbjo3J7BkQr/HPIVG6a2vy6A2rQB8JJw7FrNqH6G3nWoR9C6TsYn+QkySNpzcN4aF3P46Zig43bVpEH0hjGDEYmfM/XOCuGs9EwsuN5X+j9EFWIbV12JG3ye56728r8beAszleUd3bRR7p4uAZeluXqtvxjAPoy2wWBynYXN5EGNoJNS3FWZT8hgWjXQe9SUTXiJBKFdSiUkwtAy0jo0RuvuNh9r+adA9JJHYCWjBM8f6I40Q5zfRgl8Eb4PhKzGPgwlMT34aFtFu3T68xwdCubeQdeEbJC7HJv5ufSzzZcSYBVJp7FP6RPf4RCj/WwMqX7gs1HMS9p1amBHawraSfitmFS6G5qbw9x5ivoR/kO81NCjMINpIzFiI9c4murbeQHTLU5+0sL7KC0A0SAwTDRQ/QHQfvnTA9X4Lox8fH1D5e2Pv8VuMUW1hTNr6fSp/t1Dmn/tUXicsiYU1n8C+U7+wEsZIngz8A4aDlOznrei+2a+1aYNgIzFlp1B3Y2zZA8QNrgNDCyxj2jUTMcRoLx9LFrYflFHLT4ATie6A/rgF07ntgxmEpbvFKZjOVl4Yk9z/GxGNx/YI908jhpTu56FQ3nNDfY9jjJC8TLopU9nu3uL647vEyG4Hh/v69U56ByVu+i9xhz65T3VMwxiFQ0Md92OKzslEj5GTw3tP7UN9/phM1P2DxVO4wvXtDZgLmoIPnQ2sQWQm/ke0TxnUONJYWZfISPQ6jqp8E8K7iVm9Iby7Io0eEfpGfdEKfSdiqz7p1zjxYxLM+LeFjZHJ2JiZF84dio2pfn0TvcPyRG8V2Tn1a0yqrQeF8r+PzbWrw+8HiEHZunkvP45EA+f2+R2KxtEeRBq4IdGzI+1jT7vTzcMamGTjC8DfaVsX5On3wWRN6UXdPtGCf0xY2UOPE1M1pJK5BjURxEuTLwcm4Iix3j+aGJH5LVg77KwnyYVrJiYa+wgm4p5HdgCNYVYwJ2BEbVXaIfc2MNF/CwvDKtejQWFS+CtL6T+F+rrdXas8H7HyfOz9RNyL0oh3C7V1OeJOdJtwrh9cuUSWKxEJ9Ifd9TeFcz50eT++WRqQ6TkYk6BxdS825pRQ6Dfh/HvD77WpluirH9D7zqH/cSTyoHeYSzZOhIjoe8O534Tf0zGmwmc2PZuYkAr6F9Zc7+tDMb/JXffZZGfRP59/jZVtQ/n3EL1V+iUtU7/LBVoRM1clulLeR4zr0c1Yk3pAnkiDip3jITr7u1Dnj8J5jYmiOBJLYykSPowFI7yfdtp/OUb7XwaTArO/zhg87hiBXje3R4xhrp9/pjf63cAhfPDhA2GoBbNG4b5Wfia1uh/s60E0NXIfMUJlSihXxRiG47FB5H3dWxijcSG2CGxFNrPcK9x9W9MeLrjfUNt/QO9hsfOYiHOJHP8FDIaRgPge52HvcUwf6xCB1u7yOqJ3ggiN3GYvSJ7ptU4wBuZzZFMfn0pWhbZWuD6BefqIkMxm4TATC5ORKGIiZofzQ1ggqgnMy2COe3ZdrO/Uj49ifetdVfv17RQ35RKymYCXIsb+6CVldgr1y7HYuyvqZD/7P2UkziWOtZXIMhMvSp6pW8egw2V7qOwtiYHyXlFw7wZY8q4ziNJIf9yMSaP3Dvf6RX2JsHZMwDcmetvgaj27L6xxQy1b84DBrhlPG4jDXwZGbgEmYK8QAKROwi6vf2q1LLDVyhMw3ILhhzG1hvx4RsgXdYHpDd+O2VB4EauO27Hd+sHEiXhyUsYk+p8Iqp9hsRUKNi8Bl76HIlsOgpFQWe8JdVwWfvcrKudcYp6NXdw1XX8+kXl6bfJsHYg5AXun/TE1mcbKRUTDVYhjTsaf1xMlW+oTz0zcxWCYiYXFSHgmwifgmp1cn0pcrN+I9ZHPebAVMXx0C+vj/d3zWvTrQt9uh1DuKNmokrr+hnC9n/k2NNYlmTok/B7EPEuTdmnMrURUu91HTGhYpw3qB6kqBxUu22OYOD6+Feq9EqNrK2KRKT+HSUnSjeEDxI1hUQoEsPwvJ9naMRzWkv8ka0wdCblybeypqJY3h7qbqJZ9hAbjjjyRrvV4FwSkimTCf6xHWvCiMHCGFZ2uBdyBpTz2BEhH3uRZAiMs78V2zxKV+2MU48LfTEzj7aEocL0yFv0Ki53HRJxHZCJ0fZCMhN5lM+JOVP7UvSxkKlf2HRcm5/3/Cht8Dfad64gYUzXGK4hi1hYmBdkjqdMzHV/B3vvrSZv01zMTPjdHv77BwmAk1NZNKA977b/HBDFUeNpnYH2qDJctrM9f7q7XmWMSyS9BDECVfg///6/DPT/Luacu1MdrEiVTm/ah3BRFjIRnklYi5kS5j5iVt+pYWxjhsr26Iv2+62OeD2ImfII7HX/HpEk7ExPEeci+Qv8fiK0VWkMetL8vCmtLnU2uz0h93AQQsn+yQ6ivMbLsM0KHDh0fmYmPT2QlDT7/+4T7SF7cdEcLXqwPNoENnleSJUC/JZvhzw9Qv/CnWBFbNL5Ee0jVFqZj/T3wqVBnXrRATYi6ujFN7KMwwiOxfB3CX6TO8Am49N6DZCT03ulOtJd6HDNKGD9snlyD2O+rEQnf+3Pu61QPmGHumWR3Ox/F7HAgy3DonacQmYS8qHYLg5kYNCNRlYnw9yoPyj+JzOyQu1//z8T6OBB3Wtg38JFA63xHJZG7FxsT3iXQ3/dcbEy1iK6U3S4CemdlFr2OOAf7uTstYyT831mYXVgLsxuoy0yovy7AaNORNZ9PoW8gOplibWy8fBMbL2n8kTuwzd3+mO1L+p2kgh4hm6jr/7C1wW8IXgm8PqwlC+AlE7bGeDW6Nrt+XdJ53fcxx0QMHRfqa5iIAcAR3aFTTJzEBGw/BldU4PwWtOBbExYxjBZP5JDnSsxffgmMAHkJxbeIBl+QP+D8wi9Ir6md59fIT0F+D6Z7PQzzm/eRDH2dVUSzun5xKFtGelUnaxETkSbgWhiMhK8nbydaF3m7SyWCyitP595H+SKSPuN3X58g7oRawOlk08yn9arcjYlh1Ock19JnU2Zibjjf67cYJCPRySaiqF/mYH0yTlQfFPULWF+fQez/h7Bv4qV0RWMpj5nUfCobL0qwdg1mS9StoZzK+yr5kql+oRMj4f/3zMQ8ojdHlbGmezSfLg6/64ylsg3cclgsjI9hC72MYnU8iH3/MSwuTRU66+tZh6gi8RuCJbC14woya8oaLThtIkrAy46/tmwNI6jZh05x9TcqjQHBE/IjYUSZO8dh+1H4xjhcOQF3T8A9Lbh1wlKFHzMGGzoJwcg92AIv8dT1RJHWhpgblAbNvcAHifEfijwvNAg3JaoE3uiuT8aI54GYMeTtZAd7C/OT/w7wDuBZOfV4TtkPMt23GhbMZ4LoIlhlsorr3pVyJkLvCYNnJKrsROuWpd3lPZgRbRFjoPPTiAzgN8K1vIXOSxX2Jms7cxnF0q28Nr6bKJYv0496ZkKxDfrFTAyKkchjIq6lcxZP9YNiHJSNudSg+aXEWCEt7NvsRVaaUcSQfDM88w/KGQOdX5XIeLyvpI1lUPmTiUyivEQGNcfKGAn/e0VifJp5RBVFp3apf5+L0aaH6JzZt0xdMQWjswdh4cLzXPalrngDZvsmb6wHMenUCEbf0m/q6fuSGO2/15X7fWyNAFszJDG9HdgjrC3h3g1Hbe25ZMKiX97TsrXpiglbq7YfjWvYyDjmiaQ2NEzEgOGJ/xYwSbpJdyzdghktmJacH3kEhhSKbAPgmcDdRILmpQ+vIXLgklzs6K6nAzzVv/86/M7LLAcWMW5rTMz3a7Ki2BY24a7Egt68jnzdnSaa7BdeH55V+ln1Vxm8JCI1rIRiIjtoRqJsJ1pnZ1a2uyxrs+p4bXhmFDPC1LV0wdoOC0zkmcJ9XDmdpEq69iOywYeqtHFN+qvmGAQjUaTOWDOcL/umevYTWN+cU6EtnsEbwb7FTcTvcyn2zXwdXkrxAiJTvX2NNmrX3YlZLYLqmEvM8TDHvVM/UZWR8OdWJLpyzsNomC8rD6JB04B/h2dfnzzXSV2xFsYMfI38FN93Yhu0InUFRDuWXyTvpPr9O+xINJZvYQzUq931tYkM/N3YWrIB8KitMSOPZNs3LaxJS6ftboU1TC62DROxkOEGweTNYPKxMPJXbHA/EP7eA0PXwOQLYNJ7MRHVD7APeEV4eDMiR3stMT0x2MB/H1kjyh8S4wuoHRqAO4Z78vTvnSbKahjDcGJom9yWdDyATYQjaHczFZQh8FvtfZSLKjYRKRYWIwFxQlXZiRYhT+xc1XhSz8rV9dLwzBR3z/qY2kLf6WHMBmaFnHKKoHbMIDK2L6347CBsJvrNSNSxiciDrr+USLiXDeeqfkOwb/IpYibRFvbtfARHMeViCpURs8o3rKM+K0KeZErl9xt1GAl/3jMTD1CNmdCz38KYwS8QvW/K1BUfJ19d8SgmaToWi7UxI6cMSW/Vrs1pt2NJ1SUbEWPktDDa/z6yQeTWIjIRd2FrCEQPlx8A68Ck99naM3QNxljO44m1aeSvtmZN3syV29hELAJIBLUhpg7YF5gMS60EQ6fB0NXBaOUHxDgEYERDhGTfcG4zygncHKKuvoWJ5j5O1mhuSSIhr0JAykR3Q5hq4x3h3W6mnQO/DROz7Rf6YBoxIt2uoQxlMC0TpefZREC5LQAsHEaim52oh9r6XOI77pBcK4Pq2ZBIyHYP52YCR5MNWpOm965KGHTfdkTiNSOcq7KA9Ntmop+MRF2biDx4Q0pZ3UuaULePwb6RV1/ej31LzWdFcX2MKMau8t6qYyfaNxRV+60byVS3qMtI+GsrEJmJB4lB44raKTr39vDM1TnX54a2nEMcK/74F2Yv8iayGz7Bb9TSeePtTloYs7cE2bH1caJd0wRG8+ckz6dzTIzAvsSNhGdMjwF+YGvR0NW2Ni21Eqa62hej7xsy+GCFDQqgAbsX9gFvdue0g72QKGZchjgYlMfhduLOsWi35P3VtyYrvvZufN66exXqizQlis2biIq49iHyI66pLaMY0d8ypwyVrckG9ZkIlQMLh5HoZSeq54fozTVP955I7Od3EnWjLSwZ0avcM0V2EEVQ330MI2A/Dr+7EYl7QtdtnIl+MRKeiciLE1FXRQVmLDeBGbv5OqogFV+/Cvt2+o7XY99WHlyf76KdeSrOMsPOtH1gY7yuZKobdMNI+OvLY9FzJZnYNinXS2Fl3zQLc+cew95tB+DLxE2QP/6HuZ6/B2PIPC1W+Xk2Y3kQc7EK7XYse5D12ruUKGXB1Vsk9VuRaPP2iXBuBFtzZDOhtej34fok4gZxL3euwUKGOv0L2KD8Yvg9hFkFT2ADRanB5bI0gu32bgnnP+PKLGImJhMnzzBGbG4lDrxLsIk/Tn8WVj8B8yb1Kpju/jjyg6o8iAXoORKbEMvmlLEbUcJyHuXqDI9FodroZieq670ECxoiEsAliMRdx+2Y8azu6XZXofeUa9nB4XfdPu2XmqMfjESv6oyi8g4OZf0m/O5G5O+/k+ICpMbPdxHzzEyuUY+3ccgLelbl2f8jSqa81LPf6JaR8PcsT2TGHiTOz8k5zyyD0SMZuafq2wWhrM9gbpUrFtRbpB7uBK82Gsfm8yWu/lsx2u49N/QeRXMK4LPh/C3Y2qK+eXE4fwO2Fk1ga5O+5RexuaWIqA0jsQiQ6s/f4a5dTJzAp2Mf8NhwTdzl24i6tmcRP34Z4fODdxYWNvsB4kC8jxjquOoupAq8GiRvAj0D2xlM0G60qQXvLIxgPAsTz4uJ+AExmU0VgrkwGQnobicqRsyHLz45XOtGFL42ZmPxCEaAFmBiz5UK7q8Dvd9ssmGxuy2zH8xEr4xEv5kI/8wmWB89SjTU7FYk7NuxEvZNF2Df+BHsm69dcH+VcvPCsJfNr35IpuqgF0bC3+e9OR4meikNY0aI78AS/fnN1wQ2rq7Hwpy/DaNjKcrUFXXgpRbrks3T8gBGy31cH2+sWzSXRjB6qnD3bwvntcYci73n6dha1MLWJmGfcG6QdjANSqAOn0VcyJ/rrl8Uzr2WqO/8A9GNTEyBdoA/Cc9pAMylXBTrJ9rbyUoE7sDcknrdpZZB76A6JhMlLDtjrlHvIz/aZgjByijGKa9LO6roGhcWI5HuRH8bfpdNOrUxL6FSp2/h33lpLIGPj4an8Sbf/in0RgC8mqmFGXH1GnyoV2aiF0ZiEEwEZAN2ydBt16TObstVfyuaqd8c/A8bA0u7+6uOobzEcJ3spoaIdOmgcH7Qc6sOI1EkLfUqxHnAKViq9zx1hbzh7iFf6lBVXVEFqfTpYDJRKRmjPcqs/+vnkFcVaq34CZEuifnQd5Sk5i1E76+LXF3PI443MTENM7EQkYoAffx2iIzELpgLVoga9gTHqwV4CyITIB23ZybKCOGkcPwi3PMnsumg/0xvevMq0KDdJtR5L+3WyyuEdnwEk0yk4sSHMJ3g0RRbP3tpyKKSSFTdiYqIzybakrw7XKti/CrshsUPUD9dAbwM0+tKmqOdVy+SJz379VDu18LvXvuzFwPMbhmJfhhWlkHlq6+68YpIkdrhTGDf9WVk3f/+gY0J/1wVZvag8Pz92LgtYkS8ZOqx0I65ybV+oyoj4SWiKZbGRPiHYXQkz9vsciyB4KsxVciyRInAlqFsxXToF/LsYWQcqvks+45fEOk5dJ47WiNeTWRG5L6ptWU9onRrFaKK1TMS04nzpK7xcIM+QB/8w0Qdvz8vRkKiJnHG7yRroAMxYtlVxKAzGgxFuyrtYLSLnI+J8KZi7pk+gMl3KY9o2Av0vkdhhOd8dz5Vg7ycuLD+AluwZD/ijzsxq+l3Y5IN7+qo9k/C+nxhMBJ5O1ER9Lw60+/6d/IDz/jyfTlbEA3l1B+HkDX0Utjrv9Cb2LXuu9WFJ4jeXa2TZKIbRsJLIrw7db+YCF+HggtdS/dByvSM5rt2yWe661Oxb68keC1sbGzh7inaIKjsqdgYbFHulp33boMIi51XZ8pIiD7mqVKHMFq3N8UeZQ8T6eKB5EMu1UclbekHfP8+E/iea9u9GI2eGq7JjkXzTn1eJM2bTAxWp3XFf1eNh3cS1xWIqvSL3L1gNNtLrBo7iYUIDW7tig8PvzUIxEjshX3U42h3HxTxX4O4wB4SrnvuO2Um5oTzyxKDq6TW3euRjS0wD9vxK/ZDXY+OIqgMGQy9N/xW20Vkd3dt8YaVU7D3OwhzN8tzufontgNMk47J1/qgUJ+iYA4C6tevkd21pwRZv/MkTXnE259bE7Mel5/5fCwY2KruHtmQrEN0E3tnSfmdkCdtmZ1c6xVqV52gVXUZiUGpM4raNZtoTzK3pF2doHbvh7X5QcwmwhvZgo2Bk4iLzgJsrKzp7ikbX68Kz41iofDz7q86xvuJlJE4j3xJyyqYd8UJWAKvVOpwP7Y5+RAWtG0O0Xbtf5h0B2zx1RzqJVx2ETxDPx2jufNcO0/HaDPEfv18uPZvolH6HIrnip47hPjuaxBput7jHOw7Hheu7UWWkdD4+ghZJq5xAV1I0EBZhqjrkouUPo4YiT3D71cQB/VyrhxNpA+663Ld9NfnEgnk9eEeSUP+g6kPvO5QeBlxQom4vtld70UPqAGnsNgtop2IZ4SKgk3lWVXPxMS6H8WCvciISMf88D7HEsWE+yRl9GJVXYQqdgTe9uWycJ9sX1Ji7Cf8EhhR82F2zyemi1b9qkdlHUP2+3djC9ON/Uc3qGszUYeRWFhMhKC+6dWOQN9rBWK7jw7X1OZUWvU84g5S0p33Eb078sZAqgq8jKwu3b/ToCRTeRgiGlkr+NUPw7WlMYbnA5gExhsmtrAF8grMJXpHjB6mmEnMePsIMQurJHuyD3gYo2FqU7fv4sfZ7sR+bGE062Xuupci+u//ofAuMtBOVYFaF1Yh2k19MLkOpr6R26fee0/yGYmXhfN3kLXDaTBgaMA8H/sA3lBF18RI7BF+zyQyHT7crRZ/H0wqTQ6Vx0zcSBwoByT3Q9aWYCTccxtxYP+MGG7Z11EHeub1rk2KvqZB2ilOhGd+8hbBOZhB21fITzrWwnYo78VCCi+RU0Y/DKeq6I/VH5K+PEoMDuXf13+n1xPFzq3w/y7uel671WfTiRKpE9z9daB2/ZjuYyNURR2biaqMxKBtIvLQL8+GvB3pMuSrqdJxswvt4+b1SdkqQ+16NjGoWZrVta4dUDcom+v7E8XwRSrP27AgXu8M75KW4ctWXy1LZPgexjZ0hPumuXp2dufrvpN/5vkYbfVtPoAsLfbt1vkDwv33uDblzQ3dr6BW/8LWDo0ZXd+eyBzMCOf2IF+1sRLR0+55ybUGA4Q+6kFY518Sfnt1gRiJt7nnzsAm6clJOfporyOKLTdPrvld181kOV1/PYUfEKtg4tHHw7OPh9+rFNzfCarzi9h7nRp+i1noJtiUN6pKielk7P3fhe1cJAXxxw3AaZgny3q0w1t712Usyiza/eJ+U7iepuL13+i5xB2idpbvJzJCnVRPKlMJxR4jhk2vSvj1/jOIlv39MN4sQx4zkRe0qgoj4ZmIXoNN1YHKlaF13SigEN9hI6K6QomxytrtmYwlsDHjY4ucR9Z7LKUxx5PPtAxKMpXnXSEsjy3snyS7e9fxEKZ2OAqL/ZAXkr9sLquPlyVKCB/G4kMQnjmVGC5b5VWFfyepnrqhrarTS45vpl1ap+c3J6o/d0qu6d6Tsfc6w9XzNrKMhB9Ll4ZrMgpv7CQWAjRAz8I6X5HE/OKXx0joQ/6TdgMtDQQZ2aVcI0RR+luJsQSuol7SIWjnmm8nG9Qo5ZrLMInoWfBW14ZdySbgqsJE5EG7i7x3k7HUrzD9aKoGGcXUH5/DEqCtlFNGHTVI2U40VTfcSVQ3eBXOKpg4VovHKCZtme3uqboAioDKPuWCLp6HbNTOGeHcIEWbVdQcnRiJha3O8PAMmBbxugyY7vspcTOSSh2qPA/2zl8hMu3zsTHmFzEZ6K1ANNz0apR+Sab8RiDFZMx4+uBQTxpcbQIzRPwCJnFZI6cMP1+rjNE8ZuIRjB5AtBu4uqDNRWWq/ydjG5vb3XvUkfZ6+6GriF4Wbwnnp+Tcq7Xl58l59cdk4rx6CxEpI+EZyE+Ga99379hggNDHWpIY3EQZ2ToxErNpD/ijD6bBsDFxkdk1uTaCDRLp/XRUtUxPCdWbyGax+z1R9Je+Twq1e0Ns4M8nSgDeTPUEXHXgrdCHif7Te4Xra2Np04vC3d6LEe73050apNNOdG2iiFAGkGIiZH3v/cd/AbwoqbvOAq72PI+4Q9khuVYGEZGP010ekV7QiZnQmJlDOyOha4uCiRDURz+ifj4KtW8HogSyG5FyKlZ/EdEVvIWNtYOJTLz6Lc+wE7qL3tpJNbkW5Rkz78A8L84h0ou8d+xFNenVHNp5P4bN45kY/Rqjc06TtL9fQVaKcA3duefOpl0i8zuy0Yz9Bk3M4sbJNbV7U9oNp6GckXhNuHYLtrbpeoMBQR/ruUTx2yruWhEjoQXlN+H8oeG3H5gaECeFe27EjF/8rlYc9AMYtylOuA4h9QZZy2I7kweIg/g7dHYXVbul27wi/H4Tg2EiPNQeqQYOyil/EjbRDsAiZ/odgw6pQfagPKKdCEKeKuCl7vx3w7m/knXV3IFsOvi6BKcM6gsFMrqG6ELcqUy9k4jhwhZrdmImhmlnJLwuf1ExERD7yGfI9GOkCFp4fYZOBRbrtu15GwRvT3Q5kcEEGx9XEOe6ypDRXad8Mp3UFS+jOGPmw2TVFTI8F107N5Q7hcHQjOlEZuIRjJn4Zfi9X7gnb/z7d92AONdbRI849VkVo+e8sX87RtNFi7VBkjRpGaL9xEk57VK7Dw33XOaeh3xGQu1chegFJrV6I5UYIFICoo81RJaQpIyEjBCPwrjFn4bf/mPp+RWJOt8jXb0ziQaTnwrnN6V7gurvWR8jKpocD2Bi+hmubb6t+l8p0Q/DdI9yy5I6o5OuvxukjITiSEyhWA2yLEa4jsS+jSQHOnyM/VdRHGNfUSQlAtZ32I747tuGc5uQTQd8D+YmrMBldUTZRRDDsBrtiYA66drBFmcZj26cXFsYKGImNg3nn0FkJMTs9TLm+wX10cZY3z1GNbdZtdEn2FuV/swTz5Aug401GWS3sLEoJm3bcG6cOF4/jb3Lj8Lv1EA4b4Gdii08h2ASwlRd0cKkg1+iXF1xEFmJxCC+pd5nGaI68B5iUKgfJvfpf7+BOIbspusMspk269DdojH/qXDuNozmq9+PCufvwuhTullQu3+GfUetHVp78hgJv2ZpkzvouDwNiIPgLOxjfTL8VqcXMRLaoSqJyjzyQ5KqHFnxPkAkoD4xy7Lu3l52Z6m47uVkVSf/IqatVpkqdxliorBvEjnaXmwiqqCIkfDv0UnkujpmqX0y8Dfaid89mJvdezGx87TkeRG+34a6FIr269iu5ziizcYEFq533Zx36AdUlvzi7w3vV7Y4qa9krPkvBh98qAh5hPVuLIfATOI3mRnOabFaVEwEZN0l1WYZSxYRYBH+1YnujO8N1wYxHsDG3CnEPnwUG5vTiVIshe7XvH93KEOSrRTrYDThm+QbSf4HW5TfhRnCpv3h1RXaLXeba6Mu9D7TMcmIb/ddRCY/3ZDsTvzOkkC93F2vqpasYh80g6g2/2w4/wzi5md/d6+gumcR41YoA3Oa2+mi5BmV8ymMVslOYmHPqacN1PFLEUXlso9IDV5SRmKye/aWcG3HcC5vAZyCichb2IRfmygm3MPVWcRMVDHA9EgNiA4k6y76C9qj6W0Tro26+85jMOoMjyqMRAq/q0on/DDmTrYvFoFO38cf12PR496OEeeNMCnGf4kp4R/EiLR3XbsI2Cppe78Xai8ul+HrN1x9efAqkQnaXY4XNvII7K2YSP7RcOxAJLCLkokQVO9XsT7spKLQ+W9i7/APqquh6iKVdm1FpEkaz58jLk6fIKrrnpOUJXXFJ7AFdD7ZufEotpv9KNHuIIXmXp4KEhYeIwFZyYT6RN4WL0nq3oKo+pCU4AC6M0xXuWWB2XTPHuH6YxjtF9P3V6LtRN4GdCfiZlO2DmWqDd8uhdu+DVun/D0N+gh1+AsplioUMRJ+kHybcpcj3Sdr+oeJC8QfaNfB9dMNzt+7MubjLsIxhhkyqlx5KIjBGZRNRFEb6zASKcQ45T2zNMbNH455hHhRZgtjIK4gq/9VJkH9vgELAOMn68LoEyXmGSVajqffX22aSgx888ZwblGKM/OYiYex/l5AdPddHJgIiH0lA7jrKJbqqJ0vIDLe2yfXBgG/QQCjR9cRx+koMW9LC1NDTCMbbdYHStPxL4xxehNmUJlXbxXvikXBSECci0uTTeP96XBeUWY1p+djtHBlV0Y3dNWP7Ty3Z7VtGKP1Yjg19ou8g/S8XPFPc/fpWhEjob5YiUjrXlBQT4M+QB9EIuQLw28/UcoYCT3/1nAtzw1U0Ac8hzjIxzCO2V9P2zaX/uiP/cDenJjXooVZdr+LrArkAgZnE5GiH4yEh1eD5PXTqhinfyLZJEopEzGK7Ww+S7uetVfL8ypQ2+UWeyn5dhipdfcjRN31ojaw8gRXC94EcbG7jsWDiYDYV2sQvbE2Ta4JYiRl6He+O78w4EX1y2O5HuRBNEG077mTbKI4HXdj8+0QjB54Y2Lo3rtiUTESkFVzyD5gHqbu9BmLzyMaIEJ9OlOkzphbUJ7ufwnZzckPk+uC+nsy0YBXbp9+3SliJPz/yp4qO6vGTmIA0MA7D5t8R4XfebqqPEYiz8BtbjiXDg4RHiV1GSe65xVNsn771qeL0BvIunCJuH/P1b8wCEC/GYkUndQgq2OhbLV4+B1dC2M2voWpSp5ZUMYgGAuNrw1pj2Dov4v66ZBwz2Xh9+IixlRbV8bGm/r4n8Qd4aJmIoTUUO2Q8DvPG0sRTx+js6thPyBpRF5fDWFeCvOwxSodw3dh9j+fxmwBls8po0hdUQeLkpEYIjJEz6SdefoTvXtXVbGJKHvuHKJ7/Qa0S5j8vZuQb/hbhZHwBp0TNHk3BgZvuStuVdbOIzn35TES/roIz3uS64LK3B8bSOOY7n15yt2L+s1MkNQ3jO2mxjBx8xhmePpsd/+gudhBMxJ59XmVze6Ygaa+iyLI/Yr2aJtjmOvn8ZjawYtGffm9EmRfFljI7BYWZXM6WRGz6jk3tP3Y8Htx2X2oHc/GIjCKkfg3cZwtbm09lnwCLGnXdGJE2uPDtX4vlmUM8Ahm+7A/cDb56gpJ1h4nBtnzqKquqINFxUj48fMczPtsFJvPj2P9ICa8W1fUbpkI0dsVsDEvOiP31CJp9KHkbwyqMBIqc7twTzfRWhtUgDpablP/I7+jOzES+nt0uJ7nBqqBNIvo0ifRYxUi1E+bCUEqmDeENmkBFRF6GPMdl194P1wbi7CwGInUo2U7YnQ8T3hbWEpjsD7eGbN/+TvtxPo+LCLdBzBDrqVoRy/SCk+EFMFQjIIvczli8KE8hnhRwTPCea6Ed9OZEC9M5NEFGRv6OfBRouqg02agKjp5Jq2JzdcvEdNN++N/mA3ExbSrkLQgdeOZUAcLm5FI58AniN5mOkRrHyXmL8lLMNipHqhmE1H07AlJe+7F1oR07Hi3zxbZkAH+bxXVxkwWT7rwlIE+xjGUi346MRL6KHIDvZ92g03dc3K45y/EifYYtivrZIvQT5sJlbUbcVDr74lko+nJyFAYhJHhwmAkfP+sTzYl+yNEg7lHwt9fkL8L3AjbSXyfrBeMjn+Hsvck648udKMGUdvfGep4CPM0GSISxJcTiZtyGCzqnUfemL0b2yE+TmQsyvTLCxvqs2WJTLuyPCrmyLrExWrfcK1b4lymrpiBEf9jMAPCVDr2GKau+BhmyC11hWLBaCyPkTUkPp36sRKqYmExEqlKYE+MVukdf05MnnYt0VZgPjGfRdWxVtcmIm3nEEbjZeR+IDGg3clJHWVun7qnCiOhuiHS1aMrtLdBTajTZeF7aPiddnJV1cZSRFe2Hd09+vgbE12SZFEv48bzwu9Ok60fag7PRGjx/AdRraH0u/sSk1VpsG6VlNOvhWqQjIRfsGdiu3nvtfF1zG1uFFvYFNnz3nC/Fuu8vp2O9ckRGKGS652OfuUG8TvVy0PZ8g2XiuaTGEOcF4RnUSCPifg7RhQfC8eWRCnP4sRMqO9+SDa2jPpaOXn+TH3VQJm6YjLWBweGun34dR3XYq6Dbybfu2IF4gK0PzamRzGD4a+7ch7AGJQ8aUsvGDQjkUoVtyLrBnsTkblbjegdtCEWdK4uM9GtOiN9Xsbtvwu/3+jasrG7V/fnuX3WUW34+6QiubjgvgZdQoRiVSKX/9zkmtCJkYByN1Bdk5jq10RR1guJi/lrkrKK0Aszod2rT8D1bWCf0G75NOudV8AiQ2pnM44Ro9mxyL4QiEEwEnlucj7Yzh+x2PrTiKm7PxLuVfRA7UT9bqHMG2Q1LOPrSZiBZmrw1ktuEC9yl8h6O3dNrmUHunIWFfLG6HXYfFuR2P4Vwzl5c9Qh0IOE6j4Qa9cfyOqc5RWxTThXNgc6jZnZ2KLyFfK9K/6LLULvody7QtISSab+F64fEX7fGJ59BTHYmhiTt7nyepU4DpKR8GXMwWiRJKmPYLRqhXBdGwDF7tkjtM1LJnZM2lxUX69MhFKAj2I0X/Rfa8rP3P0q8wu0u30KdSUSPv3Dqsm1Bj1AH+J1RHG0Ih2mH6MKI6H/5QZ6Ddld5o7hvE8nrkX9lHDtaqoHs/GE2ttMlAWtUn27EZkIZZf8dvh9nCvfv99cTPfqidthxIWwV/1wPxmJdGf1EiLxaGFSowOIu0uJP28ixtb/EflRTovqKvIGeTbGpH2XbKp4HT43SJUU6XqvM8PzV4TfaxE9gRR8aFHpQYsY3TnhfF6I7Dl0R6gHBfXdc4gW9tr9X4G188zkXo+ymCbLYgzI0eSrKxTa/dNYiPqi0O6pFEt1STJ1Tvg9gzj2TgjnpmBzQBJUbXDkiq7yutm5DoKR8PRlCYz2SO/fwubr3KQNasfxZKM7LoMZUbcwCbEkE6nNhNrrg03dRfWxKQZyGpFB/GZS13OJyfl2dO9a5PZJ8n8nRkK/lyBull5Xsf0NKkCdeBLFXJ9QhZHQIF8LE9mOYwN7CBNLaVB81dUjhsGH132Pu171HebSWTKRp844D9uhLE0UoaYBddJFeSeycRf+RhyYqqcb4tMvRsK3dR3yQwl79cJziGGvfdhwvxMdovo7lem7l8ayOX4Is7+4n+wC4tUg25PvDTIZ65NnEHX0b8QWHDGwRXFMFgY6jckh2pN2qZ3prm9uUubChNo0mZgs6xXEQFUPErNsah4XMZTeruYsipPNfYvOyebKNhkap5JMHeCuvYU4BzZy51fC5oS3nzgFmzu+/XXQT0YiVWO8jmz4+yuIjIDqSO3SFNDtFmwOgtFkRbf0ao7JybO9jEmVIbVCGuZe178Wrv8ztGsIY1bGse8yJ9yXxzR2YiR8OyQtP7HGOzSogBHioJQxYV7nVmEk/H2ye5DNxYfD73uwjGzeqFIf+QMl95ShCjORx0ScSxSRbhnOzSM/VwhkdwTTsOAm3gL/R7TvCOqgV0bCExAlN5J3TAvTN2/s7pc0QvVdRtY/WzvRx4g70boSl04i7ZWxENEnYOJXiWh1yBvkg+R7gxxLFE2fTzYs9qIgEp3Gooj0HNrTiOva4sRMqE6Fyz6fqII5JlybSrmK62SK8750q+LKg9/IpJIpMSC/CXX/JJyf4p7fmP4lo+sXI1EmEb0bo0GSIudJRNVvPrrjFsR5WcRMiC72MhbF8K1CVJMeFq6NJPes6u75ULj23vD7t8m7CHUYCd27Z7j3Srpj6hok0IB7JrawLiDuAvIWi6qMhH5/FCM8Z2FiyXlkGQv/ETWolyAO2ro5EjrZTIDtpFImQkTqg+H8L8O9ZQtmno5SdgCPYrvpWQX3l6FbRiIlcLuR1TNfju1IfD0q81XhnjFizhFd86LF3ZNr3cLvWvOI3jOBd2AZW2+mffG5CYtt8Q4s0dXSmDrM3/PmUEdd17Ze4ZmIIvdkvfMc2hkJv0PzBLyqe90g4Blw38e3ExdYwYdgv5DiTLSfxfIfzKIdVYxuO7VVAbK8ZErXXkRUab7SXfPzZweiMW8Lm0t1Azj1ykj4+2ZhNEVSw3FsBz+n4P4UaqsYhg+G32KiliR6qM3H3LzBGLJeVG1q01eJc2EJ2iVKqdTifmzN+AHl8WDqMBIaT+th43AUC4TlrzXoAvoI+2Af4S90FhlCZ0bCG8OJ8J9DnNhF9g96TvYajwObJdc6ocy4bWciATmXaJSlZzSRPpSUVYRU3JjaINyMWU2r7VWMt+oyEmkbtiDrsnonFpHQZyxV3w+H8/IW+FbSBpX7ZWwyfzO53i94xiKFFqYPY/rceWQXpglst3I5MbjNA2SlFn5hGqSao4iRTe11OjES/t6yJEgLC2JuZmNqJAVse1W4viHG1H2X4qRwp2L0okxdUVXqUAb12ynY2Phy+D0puX5aaNvfiEGZNCe8xPEQ4rdskZ/gr6jN3TISnpkcwWiI79dfYy72VdqQtkVS4V+4uvS+XjIxiqk1JUXqhYnYnOil97rkmuDtKLRx+SHRW67ImLcOI+HrkeHpPkk5DbqAN1ibwDheKF+0oLpqYzrZuO4t4q64k3WwFsMLk/NV4HeFqv9WIjd/PpETV7neV/lFNetMvSL2ICaMamHqgu2S9hUN9DqMhK9zNibB8Yl4TiRaJqf3q7x3E3cAa5JVJemeNxAXBDEkg1qQO6lB0twgqTdIC2MkjsAYkKVzyujXopWWCdU8iKowEv4ZL5lYGMxE2TeQncSdmHHulbR/g/+RTVPfq7qiTrvBxqjiKOzi6oPIMMwmzve8Oebfe1VsvPkEf1+hs8dWXUYi3RRsRzZI3PXE7Mgqp+pOWnW+iOyOX/WqnKUww3P/TW8kbujqjDnVeSFZ5qXo/VW2bDl03E1xPJi6jITuPw57R6VAaFQcXUId7dOGd3K7rMpI+DIUEKZF1rWnCLq2CZGL3SW5VgVq03pkbRjOJ7srV5lyS7qN7tPMesK4HBYNU4aA2vGvm9yfVwaUMxKp5fb7yb7jubQn4hlKnh/CmCcxWocX1ANmGPUINvHqSoh6RZnxnvcG+T4xx4snQjdjapC9GVxukDrGvqoTOjMS/tmUmZib1N0r1M9533U6Jm07IbQ1tWEZxXI3fAaTUlT1rug3/A54AvMCWT2cyzPQ+whxoZpFuz1WurBvTpyXLUzd9H6KPbbqMBL+3LpEiUkLoyG9Rtb19P428um9VEDPwub7fOx7vzecT91ty6AytQl5nDhmq6iMf058/7OSax51GQmV8Rp6p/cNiB3qo1B6DjUPdRiJVJT2KGb0VMV4Um37IlE1sRT1RNOqfyey4vDLyYqaB8Gh+mc3JAbtaWGGgx8h6pZT4lPGSKQE5PVkDdj+Rgx7q7LKrJdPJu50ivpXvy8N98qbZlGJAovUIFOIhlotTPQ+j+yCN07/c4PUZSKgHiPhy+gnM1HGoI1g4/admLRSC48/5Ea4B9XcdRcG1A/Ss18afueN6WFszEtycXK4lve90nm3C9kQ8UXzrgoj4ef/MhhtkOdaC+tjn+unH3Tpe7RLoHVtLaLUSceDxPerMtZ8/0oyq3hCVdQ6Q5jRqyTIZarmblQbYGvd/eGZNFpmgxpIuXJJC8oIaB3VxjA2Ma4nWv2vU6EOXR/CrIy1Y/5wQV158HEitEP9FVHfdi1ZQj9EDNPaL51Zupt5NebSqMl5NTGqp29HHiMxRLTKBhMXn+/KuhvbGSnqW57ltq8HbKJKVPuG5JqH3uForC/Pc3UsagwR3UC1w7gPU22MYzvkV2CuzVdQ7A2i3CBL0o6yxdCrM6rGMIH6jIQvq1df/iKVkQ8g5plTHY9jzNlDxIVui6SMhc04pFDfyXPn6PC7TGJaFFWxqHxvT5BKAs/H5qYwDeuLPEYiZU7eSNZg+M8YzRCq2EF0gvphX+KmyrfDM6r/xWzcRGfK4kwU1XM4kT6tRLUYO7q+LjF8wHWYijJvo1OXkfB1SOqh4HuNnUQXUEdfjHXm+8Pvss6sa2x5DFGn2MJ2OJ3qEHTPQeHZebTr8PPgmQh5Z5wfnnsOkeBfS3Rn3IAYFvtZ4Vy/Fko/eabSbrx1PjGSqO4ZIjISB7trq2E7JzEACzBjsjXcPZ24al330UXLntP5rcP995AVsS5qaJx8Gls8vkHMw3E3UfIzgn1beYOIqfTHvzEf8z0pzw2iv9BdVNVuGAlfZiqZKGImqhixHo4x2Q/QLr25Atu17kOU7rwT6+MW5nkxiaz75KKCxuLyRHfnrcO5srE9RKRnP+1wPznX18DmoIIpzceYsdXcPQcTGYkhsiqC55LdFPyHfOPofkDlPIuYCVVeC2sRo93+B9g0nF+GaK/2OJ2DOGmxX5M4Zt7d4RkP3aPw/Fo7xBSm36YbRkLPHFbjmQY58Lrvh7HO1GJWNomqMBIaSGuHsscwQ8cJzF6iUx2+rk5eBSnUjjROhE+VO5esN8cKRD3e313Z/R5Uvs2rY2obtfFx2g0jzwvX9gxtP5RsvoGfU916PG3DDkRGpNN394az6rdXdHhmYWIoHH8iy6yKKJ4afqdtXQozPPsg1pdenCwCdjmm8ipSg2xC3JHWyfPSLSPhyy5iJiShySvnmZitSJFb7S2Y58U7wr2q6wQi8w0WUKqFuXGq/xc11FYFJPsPnRO26ZnnERmBHZJrRUgljluQ1evfgc3ZYWLcgvPc/TLglB3YAowmrO7u6ff8Uj9MImZM3QWjgT40+9xwnxjEJajOTKjNsvH4O1mvmE7Q82dja8Yt2Px4GGN20o1kN4yE6lC47IeJjN/iIGl90kCdL7HeDVSzxq/CSOgjfZf4YWWFeyfRir7OoFKcg1Hi4lnEmeYFm9Lg0zNziYvinzAr5RaWkjh9n34iJT4vIEt8biNy7+eEc98h2ie0MP3lm1wZVUXJ6oNpRB3o110ZZdDk0uT+VPi9qEWBatc6RMOwueHcTsQx8/xwTots3vuujBncHocxENoJ6bgfI6aHY9/tRUQm4goiE6HxVqXdc6jPSODaP4e4ANxNNhAamDhZ7/QX2lU78zB3vw9T7OGyJVE9uGM4t0lo83xsw1C13YNEKpmqumnR9a8T51fV8PzQrqJ4E1kbg0uxOdwihup+N1m7k59hY8q/y6CYM/XTl0LdFxCZ8Dy7G6/K8XEm8pgJ9cOLiDT4lcm1MuidlyHS5+2J6813csrqhpHQtWlEGxmpdxc1TXtSQR/ia9ikq7qgdGIk9PxWGNGawMSLk4hirq0q1pW29Sfh+d/Q7m6ZlztDTATkc7BeJK1jx5yyB4GU+OxONonWb2g3eLoXI/ieEatDvFXfe115q1YsR312AIvXTlTtUl6Xf5BlFMQgXkp7n3uxf977r4/tJE8nXw2iRflBIrH0ENOYx+j1wkio3Rrbs4ihoO/CdpiHYQxCKmUZx/znT8B23qvklK8+mRzacll49nzXvsnEYGd5+Q8WBVLJ1P7hfKd2iWFYjagSkZdCnXfyjMfS2Fz1EWVbWHyE37jf15INR78w7EtGQlvFaOsoU5HlMRN5kgmV/dtwz0/c+aptg6hGvT+UvQ0xOdxLknu7YST8898IZX81Od+gA9TBU4m7GUVsq2KwBfmMhAjcCDGj3tnu2SoGUHnQ5HoW0Yr3Le5aERMhsVweYfbMxE1El7ZNk+uDhic+y2AeET4Bj4xUjyca8EH9wa56fAjaKjYx/nmw3ATjGBFZHHai6odTsbH1xfBb334jYu6ENyfPpCizJ1gS8246BDNETKUV88P5EzHiulpOGZ5p8RKFToxEGcMzgol7jwptyIupcRPl7q95DI/ap+iQj2FeHBD79ouhvlOTZxYF1C9rY2NznNjeKuNT3/z92PveQ3UmO4Xvh9kY0yajQX2T/2Fjqchza5DQu24a2jSGjZFORrtFzIQMMGUM7nOZaLxVHRuq+1iyht0Qw5Yr+6zGa7eMhJ57E5GpG3SMnKcU9FE3wz7WI0RjvSq7IchnJPRh9iLqndZzz7yHuNv2ZdVp8+dCGTdj+s8ym4hO76N75LUyikkBJKJeGITRE5AhbBJ6KYl84Q+jN+MrvYvC1P6T/DC1ZRgiuxN9azi/qHaiXjx5I9Ym76KW6vdvwsZM1Xf2Hg66fzaR+f4nZvgqXbM/HsCC8HwEY0DSMNIigOuQz0iUeVd4FcyfaVdXiMB/G1sspueUUeZdocVzOtGO4vhwzTNarw/XbqQ4W/DCQp5kanKN9uidlyA/qWAd+Pk5DZu7isHid/9vce1bWIyEt6+5hkgzFUOmk9Gs2lhkMzGTOGbkWlqn/9Qfkmgc7M6vR7Tn2zOc9+tOXUZC77IGxvT4GDmLWk33pIA6XiLuS8PvqvpAaGckJAadSQxu9YlwTYNzE+xjPUrcXVf9YJroyxMNDj8eru1OsU1EGbSg/IzsJK9jNNctUluJVxFFsi1skv+b7OJwPXHxVtvq2JlsTnua3jrvp/YuLjtRbzAlhssbTPkxcyf23scmz1aB3nszorTIuw8Pk/UGuZn2hf0WzHd/n3Cv6l+eyEisS77UYSnMLugD5BuFTmDSkJOx8SGV2DXE4GdTXdlVRb4fDeXcGdrp+xSsrx8O9Vcx1B4kiiRTdZhclSGR/wLqBV9Ld95vJRvdtoXNaa+y/BMxzLjaOyhmLM9IV+Pnp1SXvnjJhMJpPw78H9Hd8w7Ms6vORkXlzsbWCGWNhriGfDKUfxu21kjNBvUZCX+PbNAODb8XtZruSQF9sJ9inXdk+F2l84oYCe2WP00knDPIctpTiHYAMhas88F0r3yg78H0kN0wEXqP5YlBSQ4hLt6DZCb8O2+IBZzRpL4fW+yWJBpb/oys/cSFxAAqKq+KhbLC1P48OV8Vun8XFo+daMoQX5zTFt0jd9CHsMW1KtHU83PJT8CVt4Orkhvkb5ikZD+i2/GM8PwwMWnZd8m3z0gZE//OXmryX+qF0xbhX5cYkXXfnOdV38Xhnm5sCvoFL5nS/JVkqtsxXic8f7opeDFxronplKv1OdjcPpZId1pY0C8fdKrf/ZjHRPwbo3miO8u59+kEzZ2lsDHewlRrj4T/9wvXu6HvUqf9i8gkaB2ZgXkAtogG31p7umEkVOdR2Ly8wNXXoATqXB/VS8lf6ljVpozEEOaPrIG0R1Km/n6F7pM/ieOfQhR96TiPauoMQfW+PDx/d/i9IfVjAlSFL2N5jLsWsW5homgfu0C+5W/HJtDniTYiY5jodba7P6+N6eI/n8jl130nfXvtRFss2p2ovrPyAuQxxN6+QJkcvx+udWpznlFuXrApMSVFqgjlBjmJbDREz1goyuBnybfBeAS4JLzjS2hXlag9mgPdJvpS+xWJ9c/uvfIYtKNY9ATYS6bELMqNui6Dq7I2IbplljElqT3EV4nf7lFszs7A5nCLaLAKNtdPJ37jhzCasHxB+d0ij4n4D9GGRJ5HL6tZp7710kSj5hbmwQT1pSuq9xSyydbSNUR9+QjWh6qjG0ZCZb6EyFB1iu7cgEgA5I55G/XijBcxEhB30L8jGpTpftWreA1V3U1TiFAeTsxA+HOiPrQqIVN7PokN2rPds5tQnP65G3jjuhFsF3kzceJdhokFhbKAVJsRvVfEAL2P/Fj/6o8lqR+mtgj6VpewaHeiascKRFH/VuFc+m76vS3Rk2jbgnuFIiaiylgQ8zKZ/AiAq2FZFf+BLVZ5BpIKFnQhlrF2qaQM2atIpejnUNHC0YmZ0HPbEZmbbZJr6b1bhfLvJS6AC5sA633eR7Fkqg70bj48/5Jk+9nPs7xcNz8hqkWgPCDV/5FNzHUTRiM8zeiWQcsbCz4a6jBmxDhBVEXXmcsa3y8PZYxhkuJOiRlTlEmVJrl71Be/J0p4hG4YCd2zNNEdd/uabX9aQp3zeezD5/nlliFlJPYKv19DHEh5ccv7oVf1VraSfLSwRW2kRjkQXcXkNndgOC9R/Vx6l0ykIs+XknX9ugHrP28p75kOMRIKke2Jz86059jY2V3XQgYx18l/sbgCdRiuFH4n2mLR7UTVR4ovcgdxl55HQHS/1EiXU2wz4NUZdcaAl0zkeV5sgOnNv4zt9OVNouM22jPl3otFHv0U5q65Ou2QxMW/SxEzMTd5x7Ttk4mh4s8seV/VswzR/uRVJfcPEl4y1aKeqraovCHMqFU2Mcr1MJns+3Wah9oU5IXITpn+vYlGwy2MVrzUldXtDr9oDIjWHRiu/d61pQryxozo8nwiM9EpnLZv6/OI0pm8AFG678XYWjNBDCO+F/UZCV/md0J5nw+/G0aiAFo8R4giVm/9WrUMaJdIXB1+nx5+lxGfbnazed4ZFxMJr/JjVCFiGphziG5ZG7trvexGBX9PKsJ8EOP+/Q5uJOdZz0hAXCzKdkI/Ju42CG2+P1w7qEb7i7C47ET1jT5LTB4Fxe+mxWEdrP9bxAiY/pm6TESZSmMFLALopzCGVaJyHY8QA18pNPuKGMNwAhbvIZVW3E/nAFJqjwh4FWZC7VfEygexvipjOr0aZALLa5KWO2h4yZRiNhRJpupAzx5M7Hfvfr0pNte8ZDAvC6j6oixpl5fcLo/RBo1R0dT1kvurtr9MKqXvujFGAx+lu6Bo+xDH8wuJtnePUX13n0qVypgB1XtGuPeq8LsbiYSvW4zI34nfpFFv5ECD49lE0em6ybVOSBmJ12CLewtzeZtNMfHRBzuSenrVvDgRF2Af+xjijlRWwp3K85KNFubupTpSVUxdZsIThZmYUdUDRKJQxaiqjJFI7wGb/F8jugE+hnHVK2O2KC3MUnwq9ayo87C47EQ1xpQErUoOF7Xv2PBM6o3QybBSO8IR8uuZinnGHIJ9u1S6ICL1BcxmZbVwjGLjes32IlkPszc6jexuVcctmEHmPti4Sse+xvXaRIPdu8gyE5ozKxDH+jHhetk3VR+I+fgzC5/45kmm6kTOLYLG11Sil8U3sDn1eaI0aRybe3Ny2gTVGIn0XjD7hTOJ3/kBbNzOdO0ro0HQWbWl/pns7qtqBK8xsxztXnTTMSmaaJFSlZdJJlIHgCNK2qH5OodIW3clJu2ry0io7nWxNXGU/udbekpBhFDRCf9E/YmfShXeRyRQyqDWaYB7w5YVknJT5DER5xFFhjMwYtrCdqdl9aft+DrZiGbpoK3DTAwnv99O1vXr95ge0beh6J2rMBKQby2uCaxd0vxwbEXUq/eKRb0TTSf+GJE5K5v4WhyWIXpCHB+uSW2Ufus57npe2etg8QC+SdazRsdt2ILwTmxxSMfmWkSJxFrEb5TXl0tgYZQPw7wA8txAr8SMOl9HuxpkdeKY9HpyvfsJ4dq/sT7qxHTmbUzWSa4NGnUlU3Ugu6utsHebT1b6dyHRUF1tKVKTVWEkoJ1BeAXRHqCFfb893PXUfqKufYx+K8Lx1zq0L60njeuj80sTN5udmAn1WR0HAJ0/Itx/LVGacUlSbhVoHdTG5ADa6WuDAA24H9G9cY0+joyDtCu9ieI0r+mzSxNjTWiAlXHoRcGmNCgVhMZHUisiZGqDd0Uti+pZZZfq274VcQJpx7ifK6eKxKQqIyGkTMzbiEGSxjCRby+61hSLeieq+vcgijarvlPqYvYYUa21GZGJuJ4YudNjRWz3+2ny1RUPYczcEZR7V8hIcg7lkS3LVCcrYfOnKDfIA64t22A68eWIC9PdRIPAjWmPAFqFLojYSrX5thrP9gOa6/LIqZNduKxM//zLsDmk/r2K6vFc6jISgqcTk7Bw39owtbDvulXSBtXlmYhU+lTUPkmVryXS16J3Eo0vijTsvTk8MyFbhpSZUF9sH+69nc5SJX33pYmbAklGLuvwbB5S4/sfhd+NRCKBF7fLgGi7cK4O954yEhKn71qxLF3/HvbBjgu/izjlsgRcKm+Y6A764w7t0HNziXrBTsGxOunNwXZipxB12o9i3PpK7p6q/VyXkRC8TnYv2iMefoese2m3u7Z0JzqfhbsTVbtPw/r75PC76uIhIn0p1i9nYyoJzYu/AcuGe5fBEn69D1On+fDlOq7C1BWvp7oxpLfTqZprw6tV8u7ZAPvup5Mfe+J2bIwe5d7jfxgzofDDvyXf3bMI6vMvYN/iW+H3wlBzdSuZKkNq26RkWzrGiQbmRd/Bo1tGIq89K2E0RYv3BPY913H3pJKIuUk7Uqj9s2kPAtXJNkbeY7+hfTOTx0w8SmQmfHv0//Hhnb6b1FMEXd+V7FrUDSOhsrYjzguvRmoQkOoS76Rzit08aOfpvQ8kSqoyOTRoZKDzV9qlGOJYd6VzsCnV+SLijqEs25zqf3e493fuvaq0exOiePO68PtDZIMO/ZC4yy1qRxm6ZSTUNzOJLlSnEO0ktEs9lhj8qEzX2gmLYieq7zSNuFi+LpyrQ5yHMWPFMWyMydr8amyn9ybMmEuZAdMF+QfYLvE5OfVqR1u2GHfDSKQos9dQivQPYcaZ82hfEBXl9FGsDx6m3aiv02Kpd9+ZqBZZWEHKiiRT3SDPtskbPH4Dm0stzFZlBtXsjXplJHz7hI2JjF8L+7YfwmiRzwRbpM5IoXf4HZ3pjdqhVO1jFGdj1rhZBjOM11iTTZW31RjB4k+0sEBsVdrt69SmQIxNtyr76cTNYp2spU8bpFxfmWtXGVJjy1HquXFqcG0Qnh0lEi+/o66TgMvvULWjnEL+RNfz52D9IAOhKoNWbViPqBbx4uTLiVbKalc3xLRbRkLPHU3ckcwI51Jd67W0i2fr7OIW1U5U5T+fqEpQBstO+vw8FcHpxIV1HGNOvHFsC1tgL8H6dRtin3qo7Kp92A9GwkNMZJEaZFUsLPqJ2PxIpVUTmPj+gxgDsmROGXnMkf5flRhc7Xnh3MIaC91KpqB9J/1WsrYuvyPaNs0kLjJHJW0oQr8YCWhn+rcnul16WnQtkaZ2yp3h2/hxrB/PCb/TcegNUOX1d1q41kkCPJ0sM6FFWvY56xPXg/WTZ8ugep9L3HRe5NpbByrr+5RLy5/W0CD8G9bZe1PfmERc3hJEo62vhGt11SOeA907nNdOpm4CLjEMs4k7r3eHa/79NLCWJUoVZDtQ1v60nzbFsptKjbGAaG+i9vQi4u+GkRCBX4u4k1KYWvXfJMyI6FYi8fkVtnDg7qkj0tZO9Cai69sgd6KqV1kafx1+5xG9ot26jBYPJ2Z+Te0LrsbiPbyBfG+KPHVFHfSbkUjh3z9t3xCmAtgL81jKC4h1M8Zk7UlWHebbnzJP2lzUySrbLfROS9Aumapq2+Hn/IuIoZ5b2BzZ35WlObQ/UbIn49iy79VPRkLw9GUIoz2ilxMYbdo0aUPZGFVbXhbKuIuo2vPP6V0OCvfdj82NTn3gJROSHHhmYgSTQrSwNaHuBkztV0LC67FxUVcqoX7am7gh7XYz+JSEPuSGdO/2CfGDfYA44XanPkOSpxPTx8qziajSTrVNSWPuBmaRHUy6Z1uq68H8hJ+DWTXr3R8lWhn/gfbQyd2iW0YCok73r2SjHvo2rYxZ6M8n7sbLXNjyoO+xsHeiqle5C+QppHctEsU/A1O/nEZ7MjR/HI3piNOdXBV1RTfvMYfBMBIp8hiLJbAFU4n0xBSnBqSjmEHtZzEdt7f7UXtHiK7YPx3gewhlkqmqtALaXafnY3Rp5eR+LZaTiRugM3LKSzEIRsI/vyYxqN79ZIOcfZVqczrPfm7b5Bm9/0pEt+YPdyjXI4+ZeISo5pAHWDdSAI1pGVC3MM+mqm1L2/gMYv6bXm1unlJIB/Mfqc+taUFaDdv1a7H3hkdVoY8rK907wu9d6I6JgDjQl6I4HLTaeAw2aDWp88r3XP9SGPPk4wKchzFmGxOlGz4jZC+Eoi4joftfQoz2lidpSRmKTciG2/4v+UF1irCwd6IarysSXR+3IX9xXxHb8XwaG+95i6O+2WuxcNUTmNU2xMWxrsqnKhY2I+Gh7yPbmb9jBpfSr9+PMWgfw9xJU2nNvRizcBgWgEieKRthfXgfxsSr/wb5DpJMSZzdabzq+pJY+/2c/jHZYG7puPI7d0Xx7eSmOAhGQs/OJqph7sZo0YYYbfJz+jBiiPWiOa1z52LvdkzSftWpsOHXhzLrSOS8mkPMxMPAG4k0u8yLrwjewFxzex62VnWSlqTQ/crErIjHjXqD2JE/ob5dgKAPewrWwSLMe3ZRll8QHgptOoG4K6qizihro/J5pAmqVK8G8Xty2p4utruQTbR0JdkQuNBbBMyy96jCSGjgjxB3Jj/sUH/6jjuTDfN7JZZkyrcnj1ioPfLlHvROVOGJFXjmZndtGqYnPRQjpHneFb/HbB0kibkOE0+DeVxINPw8ejNCrYJFxUjonTYnGlu+Ppxbi8hMXOvasyFGpM8gP0X6vzFJzwHEfvfuxl4N0i8xcSqZKgtglH7L12FjvGhOl7VT5ZxDHFPDJc/0m5HwTERenAhhZ7Lv+Dfid1Y5eWqL94T7Lw2/fd/NJdL9Xbp8D323ZYkG+xOYRGgeUdpVVyUBthb5temULtqY2ov8OGn30xb6IMsTQ8imYqtO8GLEcYzoSQ/fDSMBkZMVIfA7/W6YiLStCsyklNlq3+pEC/3N3TMpsXkeMfumOP73EY3QxNl7b45+MRN1GAnd+3aiuFAZ8Tr1X94OzS/AP6Fd15pX94vD/ffR38x5Xhzv3+Wzob5fYp49pxIXQH/chhkVH4iJKzfFbALEROgbabwpdbTsLp7KjISkSJofPpy2drk+Bbkgb5APk+8NIonYJZikZxXakfdN68BvRO4P9RZJBlLbJs2pFjbWD6N9TpdBdKss03Fe/f1gJDoxEepTP6fTEPrnE1WQesbTvs2JkoLV3T1QL7V6GdS+GURPkRZmo+Lrq4qUkXgQG4fj1Fe3purve1h0yegWK6hjXo11zJ2UJzdKoUE2RIxm+UMiA/C2cF/djy/ifUIoZwHG/dVRZ+Qhb8fld9faefrso77tq2MqET27APgSsEZOHYKen0t/soZWZSTELMwgGlB+qos6/b2zyaZCfgzTGefFw9D4WZoYDObVyT110MnzYBYmjbiJuIvxi9iDGJH7CO3BoNYnBk9LVVB5O6439PAeVbAoGAm9yxuJEruN3bW8heouYtAqnzROUIr0E7Fdb15ukJ9jqsEXUt0bpMp7SDJ1O+0BjFKboOOJ9gNj2Bif7e7pZr58OpR3C8XuoP12/0y/zdyknvR+MDuKL5GlaV8gG/NEz08jhmL3Eoyd3LN+A9Yt9OxMjHZMYIzrdkl7qkD3vi208WdE99iLya5hnaB7fAqAXmjaUwbq5BOoF+wjfV6Rz+ZjRFl6uG4YCV/mQ9iC8Dj9N1aUFe8/MUIzhE0oBXIZIu7EpmJiPQ2eFiaqf0HS7qLB6JmJXiUTVRkJ3fcJ4g58Jt15EqQGs1uStWK/BfMCUZ2yHdCidybWr58raGtZvdqhplgS6//3Y8Gg7iG7SElkexImrl4teV59sDlxV1b0TfT/F8J919M5UmsvWBTGlsPYOyk2htwl8/oh3fXODeelXsqbC8OYm7HeJy/XyI3AtzEJ2nq0o4oaRGPlc9iY+5571o/JEdojQv6KmJ1YZXUzV4axuXZ7KFfq4qJNRi+MRKdvUjTX0jn9ArIS4DuxvDBiEBUS/FSsX78Ufi/t6u3GS6+obUMYkzfPtelBYur6qjQkZSTOw9YobQp2Te7rBL2bgiaeUPP5pxz0sSbRXbZPT3zEpZ4Url1Gd4xEXu4MHbvQPvi7gYj/qsTFR4aAEm3v6e7fgaw/9j+Igw+qc7P9UnNUYST0juthYsgW0fC1l0kufa/wNspzhkwLz+wbrl9O+eJbpK4QNsC+zbfJT1L1IDa5b8SCQaVlaPz43BmSEpUZw2oBWonIdMgjZBAEZGEzEqk9i7ya8sT5fuHyib68CF3IYwSvCs/sj0khjsF2hg+R/ZajmFHbZzDr/Vk57c4bK6JLmrP7hN/T3D1p3JTr6C1uSgq9r1wFH8bUZ6lKsVdGooo6oxNSte1uGI1T3/wFo4HCXsQNGESD1nswVVVdA8Y8qN2yZ7uRaOP1ALB1cl+VssRIXBZ+n0SUPtfZFKSqkr8T14CnpXpDg2cj4q5/nXCuykDQ8yI+dxFdKqXmqMNI5DER3ya6LH65RlmdoDIOJXLfr8SI13ws58DGZL0W7sF0v15MWnfCFDETdaQtVRgJ3fODcM8fieLpfgx2X84MbDF4gNhX38HymggbYX37OEZQIfZdmbpiJcx7pyhfxIOYPv8oTN95Vjh/omunylZ93X4DPaeop/Moz2bbCxYmIyECOof4Dat6Aq1J9QVMu3sR8FOT62tgm4UvEpkNf9yD6fDfixnOTqMdU0Lb1iOGxd7IXX8mJnVVmfOwsTsjXO/Xt/QMlCz8zwrX/PjqhZHo5huUwS+kS2O0zkv5foIx58tjNHIUY/AkpT20y3rzoDIkIf4K5s0h5nAepp6sUl/KSFyCvecs4iZCxrhV+l3jYx3iGNuwxvNPOaSE8Q9U56ryiM+B7vpF1GMkvDpDrnc/DXVIZ3sN7em8u4UIxjTiJPRump8leomMYZlA57jnexkweWqOOq6hnRgJXf8/oq3A1hXLrgtf3gZkcw/Mw4j0suG6Foe3h+fyFoIlsV1qUQZL7QC+iOlo10ievyncsxNZY1ehF6mQxswUohfLtys81w0WJiOhtp+OvdOVFEd+zXuu6m5Yv6VPvwVbsPKkTyMYA7A/tgDfRvs4uA5zUd2d9gRqWjT+Hn7PwMbiPPf8d7Axm75Pv6DytiFGRt0uudYtI5EnFaqizqgCX/daWPhv2Rs9ikmIvFup5pCkj/2gzWC0XhJirSOziAnY7ieqocreN2UkLnLXDiRKOeZQnZHUOikpSV6Aw6cN1GHnYgvOR8PvKp2hwfZtIvGZ7M7XYSTymIhzieLndTEOeJy4u+gHMdWuekeyhnn+/yqpgLtBLzYTnRgJLaDi3r+XPNdvpOqmVGx8A+ZudgLZxVdYD2MuitQVt2OLyf7Y98/TM0/CvAUkpVDAoKHkPujNTkX3vIIYK2DL5Fo/sLAYCbX5xUSPilck16o8nzITc8P5VM0BJv6WV5dsjCQxktQsxXQsx8mRGG3R8zrmY2Pu05hr6dnh/AnY2LvJ3ftH945q46BE0nqXM0Pdl5NlnLphJLq1iaiDdE6/BKOFeTRyHFN9pCqSbqG+eU4o+zHiIg/mjSPadj8x8m7RexcxEiMYw3wl9TcFKvNjdI459JSGPsryRLfPrcO5qtywEmFNEPXi6uCqjEQZEyHu0HN+/QoAkk6UP2HvoTZcT391pnnodndcxkjommwSHsJEcIMQv6fw+vQpGJfujVP1/23YrlTqilGyi4JXV2xDlGh4aMHxUgdFVJX7WZ4uei69e87o3h+Fcn5HNdfAOlhYjIQWbzF+Pwrnu+kPv7AVeQyI7mhROiznHt1XpvJaHWMQTiYb48QfE0RvoRYmEXuTK2MK0YBwUBD9WpdoA7JPuOZtR6oyEv2wiaiD1CbqrUSbqFFiyG2hH0xZ2ie/J2vPB8ZM/DVcv4+YGKxIpQbtjITO+02BmJKqa+A2ocx7eZq6gaoj6uR4F0Q0lZr7R65MEbkqjITP4ukTcHkXTz2nPPBnu2vdwrdlQ2y3+whxYvyAbF8MUu/VDTNRxEhIHL08cdE+tqScfsLrhH1d0zDbFgV5Sm0cdPyNmGo7VVfgys4Tner3z0NZh4ffk5K/vRq5+rYMYfr2KrECusHCYCTU1rdj7/AIJurvZsxXXeD0V6HqFaeiE83x4yvPG2RjbIH+GqbXnyDraroAmy+vxRb1vDKKxlevUN98NLTlDmyOSk0G1RiJhc1EpHWrX5bB6LA2Xo9giaw2dPf30haN7x+GOpSnKFXdrkQMR34vphLNq7uIkfBM0o/Dtd9QbVPgbUnErHYTdfNJD3XuidjH+k74XZUTeytRZ/ZM2n1xOzES3rCyLAGX6ns5caejHWrdCe/fbXlsgGqXIBHdOKZXXYKYn2HQqLtbLmIkxIB9Lpy/GRMJD4I4dvKueAZm3f114mT3O8UxjOAfjBmL5e1IxZSUtV3XZhH131I1eEa0X0yEoOc+E8q8lRgroB9jZtCMhNo5gxhj5NPhWq99UrbQqe1bhuvziN4YdcaoFoEpyXMHYIuKRO/X0O4N8jgm4fw0ZmC9Iu0oG9t1IenKdGLkz8+Ga5qznRiJOlKfQWEYo4lLYNId0Uv160MYTV3OPVN3LOlbLkukhS/LKUv/r0xUTdyDBUWEbH8UMRJ+zXoW0SbuLRXbruvfwWja53PqfkpDH2sSlsWwhe1KUnF/3nOaEDeRnRAj7h4oZySK1Bl5EStV3nJEC+Jtkjo7wXOew1gmOZ+Y6SKyOtQWMZb8wuIu6+jvixiJognRL51pmah5FhaY5bOYmkjBbTyR+SVwMdEAdCL8fqUrZ2pB+UVIJWu3EfMGiFntNxMB+bECtHPqp554DoNhJNTGTxL7bSa9M52dmAl9k6WIBpTbJ89WQSo12QVjGsSoirCPhLbsiln+e7dGHf/DYgscinmD5AXWqsLUlkFzMG8DBuWMxMKwiagCteMYsv13EzaP9ftGzO3VbwarjlnVsS3x28wM59K+172rENVb/8O+IbRLwfIYCV+ONmA3UW0DJumYJHpXu7qeFuqN1JhlPtHqueyDq8OPpV1Ep47rxEhUsYkoau+55CeMKULKGG1HjG+hAbNneIf7sJ2KvA4eoloa4H6iKjNRxEhAdFetKqIrg5c6pPDeFT8l2tl4qcMVGDHfkRgl77lE/eqj7v6fUC+1sb8PspliIS4Gc+k/E5HWvXco/2HMcLQfY2aQjITm6/pE1cye4Vo/FqVOC5++jQL61MnomM7pTYli6RZmXyMm9gVtTxsjMxebM+cQx4Y/rsU8FfK8QaB7NUiqEv6xu1bESCwuTITedS2ihOc7GM28D6Ohe5HdkF1G9FJRWzv1l97nWKoZMXpm4ioiM7G5K68TI6H5ujxRTVFlI6k2rU10BnhOh/Y+paCOPRjrNG/MUgQNpHWIA2nfpDwoZyTy4kSkNhFl7X1PeObSpK48+AHwDCxpkN8df5Io0tyBLCcq96LTc8oaNKqI4lNG4uDwW7vyOkZDHmV6aDD9+V5Yv+Sl2r4FW8j3wSQjeXroZbAd/Hi47wT3/KPYopIXbruszcNE9ck7iONoLv0JSV5Wt/rrj6Ee2fD0WscgGQm1TWGC/0AcV/3aSXUSxUsy2MKM5qosyr5PVyIb1rqFjaV9sLElmy+NjxHyv8lymJfHx7AF3jO3rVD+b7HIlC8lK7b37aqiBlH9MlL30piDaWckFqVNRAq15YzQjsvJqmp2CNdXxGirVyedRowd48vKg8aANnyHhN9l76ryViVK2O8m9pPczIsYCV++jNQfxBiETpsCrZsyVj6oQnufMlDHnI9xfceG31U+1veIAylP3FfESOhjpkxElQRcqnuz0N5HiDvcvMVK56Zj7mI+FsFZRBdSLQQnhHK/H86/irggD8K1rxOKmAkFTFKfiZGQJ4vEtqeF31UX4SJ1xSoYgTgBc7dKDSUfwKzvD8fcB5fOKcOPkXQMfTL83oqsa9ltmK7bG1eVSarWx3ahC4gGX5syOEmEh8rbiqiuyUvRXheDYiTUJqW6HicG9hlU36QLoSRPGxK/m8JhF31nlTUJGxtSi7SwsbNVuP6pcO677lkPP+bz6loLo1FfJapK/HEXZlz+bmx+Tk6e72Tbo/f4NlEcDu0SCc3xfgWb6gVq84uJY/xV4dz3w+/jyb7zRsTgcC2MBh+J0WTIX6D17BoYjZ8gjpWq9gqrE7/bf4i5YoYpZyREnyYTXUurpItIJSjnufqe0lDn+cx4moRFHZZHLLdLrqXle0ZCnVrFJqKszVOJeQCUNEkf0hMbMPsABU1pYXr7V7vrk9wzciPa29X1o3Dud+6+han36mSAOURUY7yJmOtkHuXRFsvUFcrc+CEsk5/Ghz+upDh3Ba7svB2m6tRO9EqyhPitZL/Z78iG204lJSpvr3D/P8LvQdhElEHlKmLiX4mGut2OmUEwEhoTU4gSnKpG1t2i065aRH+v8DuVbvrfLycbn+Raoh0QWJ9fSZRMpeXloUwKNyW0890Uq0GuwWwv3khk9D1SNYj+ziEaB++GzeEWNqfVjiJpzsJkItQ/I8S+P8dd81IlMfy+fa8mRvbM+2Z+k6DnFIDweuIaUWUeaax55usOYr9JBZnHSPjn/4/IZNdZG8Uw9TPD8WILvfhribs/GacVvbgGksS3P0jK8kgZib3D77dQ3SairN3fxD6yD5ftB+6WmFGf390eSJbh8LYDzwjtGiNGuRsimwZYUpWFLa4qsplYK5xXgp2PEhdg5X9Qf3lCmdfXUlecQbvBaQuz6D8TeCe2g8zbRVQ1RNOzG2D9PYrtRL0YdwbG3T/g2vAdTOogpPpjiVuPwVz7OiXg6je0OKzt2r1/j/UOgpFQWw4gSpQWhh1QHjNxN/atZLh3RnKv77c0YuoD2BiZ4e4dwcbIaDg0l+u+V5kaZCa2gToWE72LPuh4BFO7Hhvum5lTxghRlavUAv8iuob+LFxbi0VrEyGovj2I7ygXYTCD0TFMquRD33saOwmTuHgp0i+J6lfdo7q+jNH4b4TfdeaQ7p2DRT5V/80mRlQtYiT88wpo5tV+eVAZSxPf77VdtPtJB32sk7GP1ckOQOf3xDqpk0FZyki8FrPKl5tQN0yEb/fuxJ2At66eTXt66xMw8Xz6Lr48Wdz+jbgY6ppc+27B3JF6tWjvBnlqjuswtycN9v+FvzcRQw77KKMeK2N62eMpz11xBMZlT88pQxOrm8VHjI2srP1O1Lc3zYnwIEagRZxFqJbE9OFjmIpFwXIWFhMhqI6jiMRrRbIEtQ76zUioHSsSJVxHhmsLs388M3E99s3GMCK8JNn+moktsA8Sx8F3aQ9rnUqmrqQ/EsROapDZ2O65yBvkTmz3XqQGWYa4+GgOn43NUb8ILgp1BsT3X5Z2F2FJcPxcfru7JvixtQpmfC27ljHa07VPJYbFfnNOeVWgOtcmSrCvImZBvsS9XwrReJ/sUO/VaY08A1tTT+qy3U86TCYO/LLdtgbSDOKAl167E4d2abj/R8RdWh11RgrdvxbRQnad8C4fIk5E1bOZezZPbOl1lenHFzFbjuja97HkuYWJPGbiL0Rdnpi03XOelXfFB8jPXTFBVFfsTLQ98fh/9s47zJKi+vufmdldlpxzWoKIBF0BIwZeDJgJYg5EEyoomFEBAyYkCGbFxM+MIGJGiSZUkhFEiSpJWDJsmPv+cerLOV23u2/3DTMLzHmefmZud3VVddWpU6dOrFNX9Pstx6W285NotKUAE2f/OvT3Ugxn1Q+FxV6IG3hdyvBSzjcFrZUVcUPU4wbow7AZCfXhE6lv/2S0adDr+rARLkG7A/ey0Al1DJtjbaYdDAeentU1Fv4HJ+Qa92ET8jo1iLxBDsRonpi1eP0V2zhfgidH3AWToGgN/xFXtU4nEwE+rkem/lyLuwhHFcbx2LhX2WblKqrtcfsuMVHvwsZwc9yTcF4qPwi+b45LWnVokkdbnQQe3DX6ajxGTNk7udTmL3QzjQ8o0IQ8gmIM8/gsQj6g11A/oOAE9VyKi+h0+mciYn9m4bq6k3B1SwfT++6elS/rp+4tiyPZHuleNPAD1wHejqcBnk5mYj4uuo+LQ0Y+Y5iIdx+MSerlXbE1g6kr2oLGbrfQl+VCu4LcwO4A/FQk8eQOGAESIzEdkogIak/2Knfjhr1t+zJMRkJtPxyPMPqSPvs1KJRJJjR378Lm9CyKuHoA1Ya3wpnlcPzYNWtrVFBnqCxvkCMxr4/oXdLBvEPOw6RCV+FMvZ7/F3dhnI5NSWv/ITiDvn94Bj4ne+AS0WXTvSq6G8dqd9ympYPR8pPS/7+hXqXQBNS/h+BjLNoRv6Osn/kBui5GTDzk3o3trY/Inj2gQAP7ZmxwfkW122eZiGffrJ4y0ECfR1FC0MvFsw5yBPwMxUV5HZZaWJ4hvcTJquvROJMgFUh8T4Ti96nct7P3pwqE2Pq+bTGRnSLLLQSOwFQxf6Q7d8UtmE7yUMyGZMWSNgZRV7QB4drauKRKcfLLxjXeW4eiy99iTMIiA+C/4Se96dJPigCfjfXxx332ZxSMhGxqzmL6GOLYn82wOZNh280UVZNNXIF17/HpvVvDO1OphuylBtkUE9V/kaJBcS4dXIKt10dl74+SuS8Djas8L86n+9v0/3o4s/Ho7P0yiPR5WeCtdEtwPp31pd9vVj+2xA9V/6E3ncjVZXfgB8kqlf4YLj19c1bPAwo0AD/CkPaI9LvsYzXA38W5RW00VZMa40TIH/vHDMZExIleD7PtuBVbcIuwEMwbVZSvAn3vWylyqFXqj53xTXvnFu0MAlGMmsMEZkC6GN9E4yJcjDEUx2A2KutW1DEsdUVbUHtn4CdRqF50+aa3HWYAem96fxGGE1ul51MV2rwM1M/H4AxdP8ZXw2Ik1Oau+Fg1IfajhHGcVmyFzZ3G6l7MPXi7UL6un8IZSaZ+nn5Pt8V8nRpkLiZteCtmQ6GIvVrHCzH1xucw77Qyb5BRrl+N91Nw5ub/Zc8EavssrO9vSb+bbKCxro0wWi41z62YymS9ivJtQJJwSZc7mH3OJjX1imGYoJmTgb73fdiY/TD9fsBJJDTh0e2zyn9cv9u4weTBpkQYXpo9bwqRa10GC9gSM0nq5PKoUKbpgooMVQczkIN6hurbqezvGc0CriM8Y5jx4f6YHvgaigyENpqfYS6UW9ENU32iqYMq4t9r0Y3hTOnWmPtcNBb9I2b8JpiubxXOfBHXjS9LO5wZBiMhYrgs7mb5hayPUwk5Q/gi3M5HeLwAx98ma1pjIU+tXkzpdEGVGmRNTEIR81bkB4M7MAnXEVRnw1Xdg25cUbKiwHzfSs/qNtDD6W8DjWtaEuK4pv+D0f54GG37jaLX+6Q6Nc69bKl0byd6hz3Q7yfhUuAHpBuoJlwnk6spd/sUIsXAHN9Mz5oyETr5SK+WG9vUQU5snourFjqYKPT5mE1ABzOCjIY/TeqHYvr0OiZJxH9zXHz3qpryTSEu2LJ61sPsCI7DTicxOU7VdT7uZTERrqUNkXNx9AKaJW7SHG+P2Ykop8LfcaPYDkbMHp29N5VjIJzZAMexNic11QGDMRIaZ0ne/ofF/qgSz44K8vX/aJyJ72CM8d/x+bwBN5auG6+2arKlBfRNm+JeRlG9cTsWxffEkucdDNe/A7yOwV2yq/r2alztuxnVOBM32w4mXVkt9KNpm+O4UecPMBov7w0d4J4b3mnzbbmH3mV4RM6/4gbmdcxE00CMMYfMrln7Dwho6vapcjFUaB0iqXwMNvUd3EZi76xcHcS+PAJ3bxQRfA/uO35wun9O+t0UqdTGM9L7/8VtBnpZ8X4wvfNvbLG0lUrUqStWxCLHvRsT+S+gSDyWYIZJH6TbW+NE3ML9cupFdksD9GMgF41N5bkiI729MEbksxRF5CdQDJo1leOhtt6G4+96VNsk5TAoIyHcXB9nZt6a9W0qILa1PjYnUkktxOZsTdziXXPaJHZCrrapMtxdmkB93hg3Nv07tobjafxjqdxymNT1EOzwdAPdjMXF2LjuQfsgcRFE41fDc058IOt32TtgBxitSwWRa4pnquNcivYFq2A0P3qanYzns2jahvBnr1TH6RgDprH8M65CyevTmG2GHyRfndWb9+UkHuBuoLNxEecr0734kUKk1XFEen9JObJ7kYk4Pd3/GU7kq94XxMlbC8sgKRuLSeDLuHGMNuPt0/MYLrsJgVU/PpzqVm6Eunc1Livj1r9a6HWI3EtdsRWGlN+gaFWs66r07FUY4o9hp5jbcEPDDsZpb44vjOn0XGgK6pdS8B6bftfh2XycWC3AGKnFmNpH8DjcqFCnt4MoegxNxWk8qhV0smqjVhiUkVAbX8BPXnOZOpuYOM5zMPG0aEoHm6OYVEuBjWRs2ISZyF2JRx2lc1AoYyJuwNauTsu34MzEo0vqWAM7BH0Y82yQF46u24Bf0l8cGPXvqFTXlTSLn6N6TsbmQSECmmygendDjOYrLHacw82xPUAqn7tSH9cKZZrY0YiRODf9fhQeNuASzJi7rC69/wHqD5J5O38J95ZWxrYVaLLmU+/2WYZIVelUpc54Md0RK8HjSNQxEtHFbwKLnnglvijOxERmgmg1vAwu9svDZdeBToS/Te8qT0Wvd9VPIcldeIQ39amXukK5K47DXFVzdcWtmDRCuSvKvCvkDXAyLrE5OD3bgakNDT0IaLz3x/p7EeXiyshEyLL7fFwnexHdfu1gtjkxV8IgotF+QeO+G37abmroOAgjobofjZ/we0l8hgVlqknp2sXQvDQ815oex07Wk5hLpMIq14WGVlsXpbL7VZRbGqCMiYgunpKwnownUzsD+8bZ1HuDvJyiVDJe12D2Xa/DvL3KjCVnpTZki6VDnA6bvXBG4/2G9F6TJJD5uzEsdrSHiHO5Ex7oUPvTaynuIXVSc9HuM0O5x+DGrhfgdg3xm0XXY5KysoOk6tyEB6gbqAZSyPqr9DtOtAhrDA1dhUhREpEn4BICacLLGImc2DwNT63bwcTz+4T+5Qiid/Nw2W2IsyZaYrImBFb9kIvPqen+HMqJ1wrU566IwaB2p1osqYX1AnxD2gKP/PiG8G2PpDzR19LGTKi/Sri1CA+DrWca0/hNl2Gnss+n38dkZSPTuyImGo0pznPR6Kg3HY27pCRnZverYBiMxFmpzX5dUNtCHMtHUK6ajGrEfJ6PSWU/j81xXXRHvbslhjsL6cafpQU07lUJuMbxTfgb2NoWA7hnVkedenQZ7JT9FsxOKAbp03UJ8CmMlmxYUsf3cWYgHvSafN8jaBafqOzdz1IdFjv2YwwLQ6CIldrPnhbK54eEMkYCXEr5eFy6ez5u41G256iOOzF8y1X+alf7mdQ0SyNz2xqil0KV26cGSotfiJQjQpk6Q0xErKeKkYgIUhYG+YMUjXXKEFl1xXDZs8M7VaD3lCDnbw3fEwhBnxz6/IzwPHpXfJ2idCVy0V/H1BVb0dtQSoi6HE5YP5vK/jj9fmP6rTgT8xlt+uxhgb7tQqyvMdFSGRNxKfYtc8I9SRnyb4u/N6MoGr0DC/W7RkX5YUIkshJDv7hBm/0yEqrzxamte2jHLPcDsd41sLG9g3LVZFk/9Fv5f/6LzfHGeMyFnJkQfsil70Kmx5W5F5RJIqKURWtW2T/F9H0Ox3mFDi/7tjoJ6FpYls6PYRukmBNdt2N0+ghMzaSDyh24sescekvvxkJZfaOkTk2MZWfTLCx27Mdq2F5xW/ier1NUc2pMqhiJaAT8JNxg91e4Z0xca9oPFRBRavE49qrvfRju/6iknvslaODXwk/ET0z3JrK/T8HdkMpcQ6uYiCiKUns5IxFduValPDFTHkO/CqIISeGyH549K4OoN57EFmuvtqrUFcfjBGzP9PtCul23bsakEe/CpBNlqbalsyxbrGrznam+G3GjvR9SZCQigZ3P0q/mUF+PxcZNaXuFT/MpT1YmRm4B9d4eubfAzrhqqINF4ns1jjNVotFBQWMunLmc3uGp+2EkhKsrYiGwO1hI7NiHYUI8KY5jY3kFPr5n4/EHoNp7JtKoBeld0Z9NKE9eJRz5Bp7GWm0sLVClzpif7sf1Kkbih9h4rIdLFN6Z1VcFUVpRhiNbUB/xVskLL8RO23kdkQ7m86i+fQ6bj8836LPqfzjtJBmxzqqEbqum52M4rpQxEuBz8BTcoPJsnFZH+gCeBbssrpD+PuDcQDVIu2EfdjXdbp9CELlZlrl7NmEiYp1iJPbJ6tmb7hj6u4TnVcQmh7a2DpFr1ilHJ8P8HRHIskWwEoYkJ9DN4Wsx/h74OHZaXqekjrjYexkxjWEiSIne3hSe/4BuRiL+nc/SzUzkJ9Fr8JNArqJR38exCJ0djEHTvTrIRaP74RutTiBPDeWb4mBTEK62SZjVDyOhug7DNy0lDhv298Q1k6sm/4mNcZVqsgz0XEbah4Z7+UYsycTKuKtdlWRquqAJExH/ipH4QajjzfhhZEPau+3WqUGWw0T678SkIHdSPARNYjYDx2Lrsxcdi/uD1uycknci5N/exrYix8FdKKaYvwz3GFRfZdCaMxKxL7vgNiK/wEN+58zEt1KZ31PEb9X5gHMDVeePp9ztU39l9HY7ZiUbkbYsTkRUZ5TpiMRIKKb/ThQNZa7GDICiyqPNIsm9L75X0pcI+s75qfzdFDdWLYoyTntbzKjnWxTzPUTm4WQMUR9KN+TqiqagPn8ptfMnjHHTt1cxEvH/qg15aSC4ZSfRbbFQtFE1IzsP4eEv0rN3pN9NF2guGj2Somj0a9ipLZYfFqiPMYX3PKo3h7aMhJiFTXBJ3+uztocBcUweiudG6GBjeSTF02DTMVQfJXn7RfqtOY/2BddhOLItzSRTUw1VTERu5xH/zxmJWZja48/p/peyuvuBKjXIivh6+yVmHFsmWf0J8HZMDbJsVofq3hSTEk/S29BQ97+XyiufRRt8jYeEWZTn5NkpPX9JuAfVht3PwdWQP6WYrVrrbHNcerFfei/fUx9Q2UC1if0J++i90/1oLb0Kzj0dmZ5rMCITUWYTUabjn8BFyO/CuFpN7J2YV8ia4Z1+Fofe2QVfqHJ1KiMm+YL9LdW6xY0wfeGnMOOknHG4CVtU78LE1JO4m2xsry3jEEH9eiw+7s9J9zT2dYxE/J3bGSxNBpgaHzEHJ+ESo8j46FvWwTdKuQ+2/Y44TlvjpwsRzMMp4tIw1B1aF3NwL4M6d8W2jITqkJj3Qprpt5tClGqshI3RLfi4fQsbS0Fboqn+Pw5ntHQKVl1xY74UI9SR6Vga9ND6jpjhtC6LZxUjoTX+XPyw8pisjUFgLLRxAq5yk4R5K+ptvS4HvoIZ5D8kq/tcnC5NUB7VWLi0Ms7EKLvrIPsBeAgBOQ10MNWXIumeTfW60Hzsjsc7OZ2iI4HaUlryq/FkllE6IwnInxi+lHNKQQtrG0yfcy9u9BQ5OUUUu4Zids9ehpVlOjTdOwtfAJrMU3DRHgw2uPFkKfcd6WPLEFFtybXqveHZqph+7H0YkslQTNe9GOPxUeCZFJkgcbmLMGLR1NK5DoSsY7gbrULPRpVLL0Yi3pvP0imZEEP7dopjnvdR/dwtPb+K+kyDvSA/LT8LdznURvWK8HwYG3Jkficx5qAqTH0bRiLX3U4yGFHO+xHreCXFpFPnY2Mn6HdN653l8Jgqu6V7cf4jM6HrbXS7Ck4HNFVnRKhiJOI3yxbqbIq0YRAQDm1LtxFw3s/lqfc+W4jlozgKU3N9Mt3/Xqgjt93Qt+2cyt5IUZLVD+TqjvmYZ12UHHewvQnKnQnAGZ8XhndOwXFb478K5Qdw1bk5tncsxvZgWDqY3daQi1N/hzMJdSKaaARUZhORn9JyorwnFmhFcRIuopjee1jcmfrwA4x4vi+rP0feWXho5QMx1cr38Q02Xpdh4sRXYGOUg06XY7j05Ufh2SCQe5fcTRER2zAS8f58lj5mQot2D3yxX4JvmlFsCWY8WBeZtS1EYjILs7WJotEzsIyphDKD4K76ewouGStT67VhJIQTSi4kAj7I2ORE+Ql4kjWdwl4fylQR5Tag/p6EzbEMRWdlz+dhpzzRpT3S/elIty3oh4mI98sYibjZK+PtS7L3Bu2vQpWfRXGTrFKDQHc8nLLcIEuwA94Tcc+UCHNT3e9P75+W7g9L+hfHZ3dcCrgE25v2DM/LGDO9/zJcnf9tHM+Fa1UmAfqrw8ko1IxTBpqUU+iOOCYEUQzx34f7VTYRZYaVcWC2xze3Dh7joWl677agtg9O7Z1D9clkE1y0lafZ7mDI9QMsFO2jKEf+XF2hMYyZHgc1+hICrohbVh+b1dmWkYjPliabidina3DjVZ2MJPmKIsWLU5l9szoGhfj962BjLuK9CLNG36iifNt2xjD7Aole9w3PBE0ZCb2zH07E5d8+SB8FG2MW+DG99zEUje+GhTuay31TWxfj4xWNpcElgQsx3KlSHUwFVDERTfpUx0jEv8el5/+kt8dP0/7KyLlXRtiyQ1l8tjWWUuFb+Ak9XlKD7EW3GuS8VOatVKtB+oW438zFY1WoXz/A3Vyh+5Cgudk7vPd/FMdjFuVOCm1t+JZa0ICsgp3CO3jQDi3GJ9Gd1UwbaC/Dyohwa2PERYR3Ie5loE1hGYYPmkhljbsTF4+tiYmQP4R5hkh8J4S4B7Py/TAWC2KNkvqrFk9eBjxW/p8ZLBSx6jscJ0iyvM/Hvg0jEZ/nzMR02EyU9UXXCRSZVH33w/DgQw/Jng0DejHGN2AGnsrn0C9jrHH+CK5SXDWrrwkjofKr4knLdFjoZy5j+8th3xpzO/QivIOC2lZApkV4XIAoNRrD9fq6mm7cwwaNc1WwqaZrsoqR0Jysia+Tw7IybUAHlblYCOcO5UGgetURN8sIK2Mq5oswWpt7tt2LSc4+iJ32b8fmeZOs7jIpXb+gvUexVW4O/RJjvHYoH8dBjE1MQf6ldE974lPwLNlPyp49Pb1zPZ4n6n5lK6HBeBrdH6KJUoRGBdbQgNfZROSi4NdT5EJ/gZ3QJQbdh24C3S/UIbBcSr+C5Y0vS24jt57PYdbFOUia0YYJUNkNcObp4PSs7UKvs7yPdfXLSMQy85m+oFVlTMT5mGpKzNhESXllJPwjw3dpjJCf5vfARaMdTPXSSzTaq/7cyPkjoS5oxkio7EdxdcMqtB+b/HtfQNHI+CJcfaB2Rzn245jrYYfyBEkTuDfDEbj4eKqZiTJJRF1I7zLoxUjE/6PHzyb0ZwisuiTFvRmjXf0aFVepQd6c6v8Dplr4LMWQ9bkq5G1Yjo3cZVR7xyA4J+ZTxo9nYHuUDLy1dqpUdWImXh/Kfyp7pkCOv6Zo37IK3Qf56VQltwYNyAcxbumU9FsT9Ur8FL8l/nFVNhFxcMBO8Yrh0KHbOO2sdH+vrD9toE6kBmY4+nKMo76Jbl3ddZju7UDMIOz2VGbb9L7qHpQwalzekdq9ERP9tl2cqkfW6BdiiFplXNcPIxHLzWfq1RxlbV+Kjde6lJ9EoxpuEjg6q2tUEInJspj4VczXoCf03LJb61A404uRELMQQ9rvk9XdC3pJYK7Dvjn60o9aNKv+HIPNdRQXq+2tcMnUuhjuRA+J+Vldo4AqdUbbtpswEuB6+QtTuX5shIQz6+LBrt7eRz11IHoqKfGteGCnZTBG7yDMCPI2umn2X7GD3otxehQh7gdt19peqY2zwrNXUDQe/i3FaMVa02IYDgllP57ujVOeWkJ77SnpOz+Y9WepBHGFmkghnrjAA3HCsRIege6oUEcVExH1VnkksVuwU8HKoR/j1OfaaPIdZYi9BvWZ7yR1+DDG/a0e3n1mev4vjDAO80Qr4r8cjpRN838IVO6J2KZRZ3k/KCMRy06lzUSVNGReuj+H7pOocG8FXHwvO5SpWpC5zcDncEPiezD99boV5asgMucKpCNmP26a8yhnJNTGqend34T6muB17OO66Ru0nhZjJ8iNK8qPEtSO3B6vwQPoCRdeg0umRKzn0b9UoN8+5kxEP9KQpoyEfkePnzxCcS9Quc/iDPwoaCGY6kQ2Xi+k/DCosfs+trlLNa7rTsyQ/QhMXbIy3dBEDZIzEmdSZIpXxqShC0LbeaTlWTj+HRrKfTCUUbLLK7A9VkzIQTiTpINhtLFYKuwm6k4JK2KDdh1OhMAmpgP8B9cNvZRum4hcRPN+6gc7ErGmjESdumIuZvh4CObLW6au+AsmZno9xkQswtOKE77j09gC/Ero6zBB9T0/9eteTFTXtC3NY9mmUtXWIIxELD8VzEQv+wyp1Y6meBLVRvGE9M4CpifkbC7+3xGPwtjBUgsfSDHnTC8CofqirZKivIpozaObkdCzZ+C62aabSmRC5qQ+x/TeP8MiHsY+TvU4QzFI2Y7pnsb2W9h360Qo3OnXTqENDJOJiOV7MRLx3qm4GL2plEjvbo/HR9gjezYsUH1fxebphPRbm/EsbLwUFlvBxDbD9qHP47k34nUt8B16ZzLNcbaMkVD5WEd+SF6A7XmrpOfjOK59MJR7T7q3NrandvB8VmDr9rrUbllGZ9U9LQxFPgibwux9YM6nYfbPYfZvYfY5MPtkmPVVmNDpdgNc/64N6OV0SyLigtiLYljr3+CnZShOXC9Gope64iGYaOhLeJrwMmQ6AIucFqUlUrW8KbUh98wJygNyDRs0Hz9Pbf08u9/rvb0pF3NXlR+UkYjvzGd0NhNNGBa18xx8npfH8end6f5P0+/p4uLzdfcyikTvd8Czw/NeG3GuzroIZ36hnJEQbl9EczF33u9nU4yb8Vc8YVKTfo8SNLdi1N6dfo9RlEwpQFvEn2Ft8GVQ1sag0o82jERUZ8nea++a8hH0XLZrTWlTPxC9HTqYvY3aEb2OYbHLmO452EHsIExiEVWKui7BYlbsSXkmU+0zYkDLGAn9jeNQFm77leF5PPSozNuy77qV+w60E0+3PXj2yWlP/q3t0XM+bXv2fYam6vOUrbvY0GNh1skwJsSquSb+CGOKif+H9H6URJyOW6SDnQSi7/hVGDeoQS9DgDJGQlbCZUi7DibG/DjlGepuxcK2vhcLuLNSSR2qO3e1EdJulb7xXjwmxCg2In3fdjTn+sUsrIzHL/hoj3eGyUjE9+YzfMlE07qFN2vSnVwO+g+LPSqIC35lzMtG/e5gPufbZOXLQJvDPJzBf0N4Po9uRgKKBGse9fY4se1tMEZc/bwF8wKIkTynSo1RBZpb2RydEZ49Ee93Lpkalt1CGYyq7jaMRLz/MZwmr0y9emJQaWlbEB4+BKPni3GbJ9HksrDYdWrt1bDD64coV2vfhu05hwE7Ub5PyB4pZyRiv+PedgAeHE3M147ZO58Oz2UY/wf7PfYr23N77ctjd9kefl/k0rK+DR00ScvA2FEwLl1tB7ZdDAcsguMXw1cWwxcWw3sXwy5LYPlg1DI+iflqPxc3dvkRRXHq5+jPd1wE7az07iuz5ytixOBQbGIi8e2k/lyIBaPZHcuCl0OUaETCp3DZ12GIpMmYKmt/9Q3MRkKbZl0aYJVXdNFrcVfAXoRhWIxEfHeYao62DIpw+6ep7Htxj5jb0r1+w2KPCmI/tsDydQiX78C8MdaoKC/QOL03vXc9JiYdw7yLxEhsmu6tg1uCS6xaJwon9eEjFMMGf42iX//SNqYxXLY8Cw5L936SylQZIg9zwx+ltKMtIyH6uhoumflgzTvDsN/qB9SuNtJXh/sr0zssdvQGqTK0fwWWor5Mcn0NrgaZn95RmvRf4rZ/ZRKA2Jd1KIY2WIztjRuHMl8N7e4J7Jv22HRv+Unbgw9Le/JXFtsefcAi27Pv25eX2J5eGTl6aKCK14Cxs7hv4332YvjFJCzuQKfiurID71sCq6aOTyzA1RkKvzwXs+KNtgin4dwrVCNrrq6QJGM/jBt9PdVJr67ARLv7p7L5xPZyAdK91egOlw2eangqrP2l64qW0TpFl22cYxgxvyOV3b9BH0fBSMT3h8FM9KMy0TsKl31O+r1H+n0lg4XFHhXkp/id8dDmHSyI0P4UT87j2fvjmNj+8vSO3MsegjMS2vQ/lcpcjql/cqYznqzGUtsyfNO47hzKT6caowzUlxgue/d0T+MqUXIZzg9TBTFqlUlbRiK+o9gGd9CdaDEvq2Ro/XqUtYXc++Yb4dnOoS+rpnu98K/Olm5Z7DT/NiyT6f/o3mN+hx9uzyupo0zdHudgO2wvVH03YHRKEvxvcx+jMZEki6sutj33qpp9eXEHzkh7uA71Y2fhh4+hz1EgNuPJFmDuQjgx69iikmtJeP6PDjwpDcZEHNTd8aiBHep9x3vZOWwc6rqObhef/2ET/nbs1LF8SR3R+6QJqNwP8CRaY5hk4prU7lRZ+6v+g1O7Vb7aQlSJms+nmWvTqBiJWMcgzES/dej+Y9M7d2EL9SiGGxZ7VBA38HGM0DfdwPXei1LZezFd+JrYt0+m/x+Gq81elL3bi6H5V+rTeHhvqbAYL4FoOzKJifKXw20DeiWwGgYDMBV2F/0wEvG0LjuX75S8JzoSY9y8OWt3VKD65X1zNS4l/gCDh8WuU4Osndo9BpOIhFM/HUwt8nMs0vGO9N5/Yht7UIwpczG+T56d9tQOPDnttdp3l1TszXHv/mLa0+mkPb7skDAwpI8Z+wqMd2D5hfCLwNXUSSM6HZjswML0/z0deE6yEp/4F54UpozT0kDWTdwamFrhSIwx0WIXAxGTXj0Lt9LNv6/JJloF+eb96/Q7Wvur3VETTy30GD3uxPRsIvv7FMx6eQn1SccijJKRiPXMp70B5iCMiOZ9Wdw9eXc8l8m+WRtLK5SpFCRx6lCuUhgLf89M5U7FmAfhx1qY4VkHF8/GdwX9qliWJtAc74t9w1kYLnRoLpkahBEYplSjDvphJOLznXH82Dl7pr9fSnX/mcGi7rYB0di1cdsf2RfIkPFN6fegY1l3sB3DM5mKjuTXv7BDyr7Y2in7ljm46n85uiX3P0p76aTtrfekvXZh2nvr9ua4f5+R9vbxju31wBDXqip6buJ4FsHJqeF7e3SyrNOdDtzVgflpEMY72Ob/BYoGXXMon+TlsBPBW6h2y5RO6Xg842iEyJgMA6k1RtthDMzdmKj4kNQPWSlP1QkszBlpzu47RUXDIsVp/1b2XpO6R8VIxLrm05whGIbRZn4SPROzo1mML/Kl9RSdQ/ze3MjxZrqNHEWoHoXhyxJsjS1I11vSvUWpDOkdrZ+VUp06fXYwkWtM7720MxACzfEW2NzfguFCW8lUPzYTo7CzqIJ+GYlYRmJ15UsSbYHh5gFqC5pDebEdjNHke7B53C4rNyyoUoO8EJe2vx1Tvy+guG8twsbxY9ihd82sjihV3hQLhnhX2kM78Mi0t8a9tumlvfzk1I+JDkXPpIEHJRGZiUuASdh/sXM7bTqaMxMXdGD2IhhfDOMHhzbzxClyOdoXO+n8Mxt8LbRTMdHZI3CR6gtTHbMYLuOQg+pcBje+eQ6+yN4V+jFVoMnPM+xpfGUEejvVOs66ekfJSMT6mkgXypiISyvKNmlzP3xhdzBXr6k4SQ0bZN8jeA7dbpcvDc9laPWF9PwmTKJ3L27/84WsLHS7oZ5P0Q11FvfPsRvHw3ULF9pKpiJj0CsC5lSoMyIMwkhoPWyOZ3B+VXomBlOn8GFlJm4D+rZDMcbhW/jB6h+4G+Uo8XIMPxDLayN6Aa2Hpas/DguGl6vhb8Qk9m/BonXO7W5i/BDbQ+csggv7ZCJ0aU/fL9lMTFyCr92BxilN/MQuMNaB5Rab8cZkp2j70PaSfuZlSX806+Ss3XyAcz3THRiSvg8Tz6+avf/LVG4fihzyKCGK8iYxMbCMtXbMykwFqK2H4xIabRpr4YGAPtCyb1PFSMQ6c2YiJvpqUqYplLmOlaWUvr+BjHDBCNtBFANB/ZxiIKgN6T4tdbCTefSZ3xE/8XVSnQfRnR/n/gia60/g0RwX0p8Lt3CwLmhVkzLDhkEYiVhOAZL+jatwX5bu3U0xLcBUgdqSevlKjCZP0q3qHSVojPfCD3RVapCHYczYNyi6fur6B7a/vJL7Yv3M+q49e/ni4t7az7Uk7e1XdmC5Jbbn3xcDaqCxSoMw5zPAJLxg0WAcT5RKTHbg7MSBjd+CRdh7NyZClLtdvP6M+c2+iKIKJPZV3N9Z6Z29cR3T+IgvhR8VwsjX+L+Y2+mo26/qE3i2wivT+Hw4/b4ai5w2gduiNP1OMRIHjnCMowRlO9ztMEobwIit7Ckuw4Os6GTUtt0Jisa/u2fffn+9oipifUz1p9gpSzDXsnnp+VvTfXltdLCTEbiLtty/7011rZ+ea96m+3sHHatx3Daig4ml26yVMjzeBA+wdx3OKEBRanE9Ln7vF497XVqzB+KMRPz2XpfGYhXcI+5DGI25Mv0+PnzDdMzjijht0IHqlS2/cxhjvHdq+8xs7GZTXJeClbA98b3pnWjn1MEkZH+E8WT8fE7aU4exN3c6sOciYNICVwEDMrJJpDEr+eN+ZYl1dhCup9NxA5C7O7BhIkQTJ2UDdRkWUnofuvPI9wIFEHppr4IjgPUwmw+Jqb5RX3xKYCX8BHoSblfyorqXeoAM7143cO+aw8NwAnUZZky1Fc5gXEwx3sggoDTbN1AeYOaBAttiGWu17m7CXNmWo5gY77fp3ttwNUcnvbtNV60PHFgZXy8fHlKd6+CM6vUYDq+NMxhX4kGUpgJel9r9/gB1vBhfL6Ll17J0rJ1vYv2ZxGhzWXygUcNLUx9+0ef7a2KqmaOxoFPJKJK0h96d7a2DaAsm015PJ+39PVUbdVzGWPrwVWBJOv1tPTYcF+AxbE7nAltOwjVzYPwmWHI2tpjOxBbaf7HT0DKYSFX9jbqksorl9bEOhjTLpHpGCRroScyOQ8T1L9hJbc4U9KEMZmGc+Jcxf26FIv4T8CvsFFQ2llUwgXHDcltak6kZ41mY6+4bMQbzIZgtzHK4quZ12DxsMkBfZmEnbIny7sHicqyEIX7TcVraQSem67AxPQ9jEtbFmKjnY6JUGelejq3LR6ff/8U8ob6FjfUmuKvoAwFES1bA8AEMNwbF9VkYTr0Os6FaHwuCdheG07dg8/E/BsPjpn25FzfqWz71ZzYmbWoC2mTOw2jKtrha48vY+lyd6aN9CzEaDNbPyzG8l+pz1OtZY6wDznKYS2wdLdFeImnWJIYzZ6drTWBzGH81TO4OD+vA3HErNujerCa3Sn1YshFG+27FeYLKDlfVOAlzN4Z7/g6z5sKlHdh0bDgdXoyN8Us68M0xmP0rWCTL+NmYi5XyVbQhUB3cQETJiKbS0KuDi67AxcLTbWy2BCOAGo9F9G9EE8dYiZum4vvGsQUV1SjqjzwN9I2DQIei0e8DaYPMQQRtASYGnlNb2mEhZmS3Co4HD0SIeAa+bgatU8xqFGsLzxZip6ypGNMOrqrpYPSqX5qgdSMaGBny6QLRXh1Cp3tP6HeM4wl+CXAzzL4EFj0VXtyBb4z5njoIaG//Zwe2HIPF98DcLeGeq7iPJ+iGpcl4TDqgNSkurKac8dIEnYr/Z2Dph7K5E5GcbmZwFCDCsFr6ew/GIKxM0ShMBoe3YieUOekd2Uk8ECGqWsHn/4GKCw9UmKHHI4Y6RiIN+D23wtidsHiuSd2GBaJP/0vtdO7EjGAux9xewKQSCmIiHVfoWxfoZPQdLELh2zD92FSoNsA4znsxo9BdccOec2knLhwmSLXxRky1oYG/FPNVFpfcVrXxFcxj5gjMJXAqVBt3YqL2r2CeOpfhosIbMXffKzCcEdffhnBIFPocPF/JOJZ/ZVd8vTzQiJHkmbdhEoYD0hWlMpLwfRULk70AYyjiunyggJiExVgExO3xU+wbsfg1bVWVwkWpNjbBVRvXYqqNLTBGbS8srPLyLdtoCxK774+t41+mtvtRbSzB3Dy3xb/1KMzQe1mmR7UhWvUkLEU3mDvl6zB6NRX0WGP8Yiw55O+wvBv9qDbuTveTaqOTXPhvToztoFqCCLeQSOgdcM+CdLNvujdVxpadZDiyEDMkOQYzLMkDcjSF6TS2HMNsJGTH8e764lMCKzNjbNkGjk71/RVbvLdTjMz4QIWn4ZH/JIGIl3D6N8BTp6mPUwlrYJLSu/E4GUfXvtEMZowtpxbeg+P05UyPNGlYxpbHMCXGll9uZWzZC+T++WlG4/4pJuIeLC65gr7ougNPz/okupFSblXKpCZd35np/b0puuCM8pIY+DE40nYwg8Yx2ruMDeMqc/+cYMb9s9f3XZLqej33peW97xRxf3drzHEDLIhb9NyQXc8xeGTLY7NnnfTOw0M9D6SxGcczNv4Bw4UOhhuzWtb3YHD/vCbVsTS5f4qm/ZoiTX50ut92HgcZ471T22dmY9fL/fMwptf9Uwn8BjKDUECqp484INV38AiWr6Q6PetVmDvlqyjP1CnkOCuV32sYg9AQ1Ib876/DJCx34u5GU8kJzwSkKva3F4ynv1tii3QxdkpMMVT4ZNan+yvE8Vgd89BQZMIlOME6HxvDRenaGA+pfgduG3E7xpiuXtHG/RE0x5/C5v4zGC4oRPiW6fl496ul8GAJSHUtLkXWCXy6AlLFeCl3YeoFHTYUD2Uq94W9UttnMVhAqi8ztQGpnpb6N9DcSaQRQmTvN6QQ2X/sVITIFszFOMe3YHotpcXWNYnpro/DomBG32ClEd8HD1Q16k1ciPFDPGNgUgndl6FtOiK7zYTIbjbuqkPpkS9Jv0UA/hzK3B8N7XQKIv19DX5q7AA/wcIJi6l4EmZMqeerpXvCmUMxt0U9vyLVGdtoutEuTaC5nYUnvXtluven9Hv/UKYXPNBDZD+EpTNEttp6furDH/BMvqenZ6PGzzGah8i+kP5CZB9se+jsIYbI3nfoIbJh6pJ2fRFLRAKOpBHWxIwDP4adlnI1yAJskt6Op1p9YVaHOP9hbwSqbzU8WM987BQ7iYv3puo0G+bsPjHYTNKuetDzb2Bzdhw2rw/FTjOL8dgg96cNMrq+gdlBnIevm3/iG6PCXZ+afm+G20dslu7JNuZn6ff+FPPfnJfaEIgQ3V9Ac7sNJoG4BzOCHMNwYhI33GuKUzljMD/dL1sz/bzTLwzCSKjM0pq0S304AZuzEzCGrIPR6FXT81HsBVFSKmiatOt8+k7aNb8zeNKu76Z+DDdplyBVFNOInxE63KvTSwK3c3cHnq004v+kPo24pAllhHsLjMs7CUvF2im5zsYI3VZUq0GGwVhooJ+Oc5ITwCvS74tDO6MmqkK2mEb8i1k/9fcpzKQRB5+T5XFd7/PCO0p0dUDWztIO8XsfihvBdTAPjSNxI9L90v07cbVhzkhI/HpnKrtveneNVNdtof6TUptlfVmaQXN7ANyn4lHfn5fuXY3TqKr1PIh0oezdmTTizUF0dgK3d3p5+q2D3lBySFBkHMrUFU3TiO9DfRpxzVVZGvEfMrQ04sspjfiXhzQ+XQMyDiwP4yls7tyF8MWsU4tKrmhLcVkHnpg+fkKnF7B49rJiFte2R2hfk1TG6WH9Ykcsy+bP8TwXuhZjaoZjMM64zLK/ChmagPr0IYz7PTX93hJP/iQr7FGfZtWXg7Fvvxlzj8xVF0IQpZc+H//+uoU+SkaiX0Zg0Dp0b0dcurVWeP5RbF6/m34v7RKJyByvAryf4unnWxTTe6+OM1AfCffn4YzEvHD/o/iGGm0jtkl1q50FWGK9VdJzEd2lGTS338Xm/KPh2Vr4OCrJWR0+9cNEDLOOXtAPIyE6EiWa3y55T3RkAzy1vFTYo2bENYcPw5Otian9PjavRw7Ql3gIzWEdjOE8Bttz8oST92B71LswerN8SR2qO0p3wNQ0F4W6Lsb2ToDz0p7agSd14B/ZQb5sb4579xfSnk4Hxn+T+jUSpk+TswaMnZU+ZBKetRjOmKyXSlzZgSOWwCppUCduwUVeP071zqWb0zoNt1yGIoGsm0yJbs/E/HZzLvDm1O7bMPHbsiV1tJFWiAOW69yBoY4L0r1XhXujAlkKr4vblLw9PcvHKeo4ZWDXRPc7KkZiGExEXtd8mkk1VP7QVFZie9mTPDPd/w8W/RGWTnF9tIMYwyzFo9Hyb7BvESiVsrx4rsFEvlrr8+hmJMZTmWvTOx/K6iK1obXQwbwU9g7Pl1b7Cc3pSjgOaryEC1L/vCv9zvF+mNKEUTMT/TASuS1RnY2Vyr4Dl9Sui9OpUYHalR3YH8M9eaj8Ov1uSt+rDrHLYnvI27A9RUxTvH6HexKeV1JHfojNGe7tsL1Q9UlyL5sJSfUXwcQC+3+VxbbnXlmzLy/u2N79zODaPXYmfjgY2Ryp4jkw9jEYl+V2B7ZZDAcsguMXw5cXwxcWw3sXwy6LYLlgRDI+iYlEn+Od5yd4aN55WGZBcXJ3Y9xdlCLkiK6Bl5HPL9O7L0jP52O+0t/BT17xitawm9EN0VWoTEWift+dvukR4fnR6Z6Sd43yRKa6FUzp75gorIqzVPkjU/lrMTuPOk50FIzEMJmIvM75DerUHMpI953ptzaP1bHcBx3gyQP0aVSQ20E8GV8DHcwC/AC8z8Jn2YCIkdwvPdd3z6ObkdAzqULuwG0IIjGcSG1G6/NfYgabgqXNfkLjsxPW3//hRFXf/a707Ofpd5mUL9/456f7/ayRUTITbRkJMQur4YzkB2veUfnlcEPTz/RoYxigur+J0d4Y+2N+unc3TgvKVBKR5uewGfXehddge83r8LmXK/EvcaP3soNqHJd1MLdrSdgXU8zQOxs3pp/EpO37pj029WX5SduD35v25C8vtj36gEW2Z9+3Ly+xPf2+fXjkjH788MeY+8mYdKY118SvYezc9PsP6f2XUJRMrBDq3hHn/suIYdmpRn0T97dPSf9XwgjtYZSnLL8XO019CNOjrVZSR+QgtRjl7vR3inYdUa8qMdYoiKfGZTvsGzr09hbRglkZJ/gf7fHOsBmJQY0kB61bc7E2FlWwAzwuPM+9cQ7P6p5uiOOzKXAi7pp5FxZNb+2S8vp7Mn5q0vfq2Ty6GYlYRtK+74ZneZ/Wxgj5XansktTHTUOZpYUp05weQbd1v/r4eOw7bsXHNZ4gh8lECEZVd1tGQvc/htPklWl28Hg+Tl+3y54NE8rsnWToKXsDMTUvSfcjLS/r02rYXvBhbG8QfdV1Gx7v6MmUB+GS18aZWT8FuVdVzoT/HNsTBcth+CkGQ679Ke7N2Lm25/bal8fuTC6kjw51Txlzn4teNoHZe1vwitk/h9m/gdnnwJxvw5x3w8TOWPbOzXEdozagl2I6LDETy2V1vxIP4NLBJnKX8DxuBjkjsVf6LWOVMiTZANgT87CQYU68rsf0agdhCyBPaiQk/DxGfD6f7usE01SvOiioTp2qf57d7/Xe3um9O7nPR7mUKx0mIzGIYWXbNqqkHRLJ74ozfNGQTu8fkp6fHZ5NJ0TivSIWQVVSkw5wCr7RQHEs9f/T8Hw2UdLSS7URT+5KgvTUmnZIfTk19O9/qc9RVTTd6g6N5zlYHw9Jv6PkZDkMRzoYzoDj0CikBoJhqkwEbRgJ4duWOFO4V035CHqug2FT2tQP1Nk7iSZ/AcPZz9FthwBG47fDaP738UB48boE2zP2xPaQsn7IWQDcjTxnJPK9dBe61YKvDM9nYfgm+rsIMyQFn8cF2F67oe29c95te/Hsc9Le/PO0V++NB+9Tn6eFrjXVdX0HQ75HAW/GPvY/OEf/QpyZ+Ammd4oEaxXMaGsBPsBfpxhGNg5CzkhERIn6rjKx0ra4GkTiu3j9HWMWXkrxVCUu92V0e5toAUlkPuzT7KBcv+ZRCHxKzbvDYiRGoc5o25aCVo1jIsRJ4P+y9vV3B1yUv366Nx2LLq4LsFOVvHM62InkeeF5Thy0Yc/G45zkardejEQs+81Uxx/x6IV5e7G/zwvtdlLfXxKeT5f9hPq8Ae6VskPoU/z7dQxXjsX7OhWBpIat5mjDSOjeqansr2lO//uRlvYL+qYyFZQOlC/HaYBgU4ymfwEf23hdixmVvg7bI8rU62V2depPGSMR63gYhldqbwFFQ+WJdM3BaW+URKyN7akdbI99FLbnfofeMGqblcYgri7aEYhYzQLOwj7w7emeRE5HhTr2xJHsp/ipMIby3ZLywV459GOcekairO+apBxWwk5dR2An0VyFczeWkOvz2KTeRTEngxiW96byMuIb5qSV6SE/HdpvAir3RDynQpV71DAYialkIvI251OUfmyY7ksatV9WXkRhLh4v4QVZmamAnPA8FmO6hYv/wQiITsdVxEF9Vn6F2zAiGiUCTRgJrfPNcPXga7M2IsT+LJP6KsKnA8RjQ/mpPh2pz9JlX46P5VhWZn/8VAqGQ6N004wwTGaiKSOh37vgOVieWFG2ClRO9luXUm+/1S/kh7f30C2NXhOj3YswqcS5ePRfXXdiNP8IbA8oU1do36ij52WMRFwLK9N9SP4/PHoquO1fLomIDPhR6f41qfzb0++zUh8ik5/v10s9aBAPwxDw++m39EUSo2uSIzPxM5yZyDf6ZwDJDfU+pHxFeH4WzRmJCHGQyxbIxliiq89hCZ1yrvUeimoQWdVujX3/LRjnOMxTl/r5ztSHGzEjaKfR/gAA3hpJREFUnbaiYtXzf6meC3HkKyvXLyMxSpuIftq+BLPMl5uu3MTKjOi+hM2jGLWpYiTimGwEfBa3LVqIBdvZoKJ8BOHEGvj3vy89i9/ShJGI77wPZ2bWoJnOnNTnT+LSyEXYRrNRRflRgr4l5RXiSyXt69sfiql0FmK0SEzoqAJH5TAsm4mmjIQOhRemcidVlKsD4cQ6uEfZO/qop1cbE6mNBdg8ys15LkV1RR4ioIPR9M9iNH5jukEHwzbMT85InBWevRI//HUwifAzsvbEUFcxERPYHqpD7t7p/mnY9x+W9eN+CUIQGRz+E1NbTOBi9JNTGXH/e+DMxM9xZmKcIic3C0ukI31lB8us9hiKIbJzi/Y2UKcGiXq0f9Md3rSDZQz8NIZEOgU/PdTRD2JG0Hsb4m5Hbw5191PXJrjR4etL6hqEkZgKm4imfYjSEBGVP1M+13rnlbg4PpdYjAIivi+L5XGJ+trTMRFm7GddfzS+x6T3r8BOWjn+NWUkxJislOrq4BbydXOZr8lHUQxMdz32rXLLHrXoNUocdEB4RbiXl52F4YqkkoNIBfqFYdhMNGEk9L+Slt2K4UI/Ni2q6+BUV1WMm6ZQdfDbBR+PV2LM6d/ops+TGO0+kHL7typ1RRvQmtTh+Qxsj4peVVdj46v5yPe6qM6ITIT2zO/hjMg4tm4kPZ3qiKIjAQ3EJnSHGd4JN9R6SrqnE/zuODNxBu7tkOtnwU74x+AGQAvxTfXFqUz0cR8EqtQgsqV4J3Y6+x3dlr0LsW/9Ofbtq5TU3xZp1Y8T8Y1wkOhxqu8wnDiuSRGp+2UketkpTCWix778B/dyOCbdzwmKvn1TjOlYjCciGsUGl6sx9qAYiOYSXL0CzXBGZbbG18rLw7MITRmJ+K70znelNvJvKIO8zAsoGjxfSDEw3ajUHerDtnhYbBmh5d8r3DgW34z+w9QyEQL1u1/7jF6MhNb9mjjjf1hWpg1o45+LM2IntqwvHu5yWAWjrT/H5kWSLl33YrT5CFyCe01WRxN1RRvQ3vNinHlSv+7CGO8yr6oyJmIxzkRor3wKbjC9U7q3bSpbh8f3KxjDJ/5inHiJGMhQS3HaJ3CbiN3wk+IZuGuoBiQ/1WyPD7gW+GfxAR/2qUaShBgWOzIsm2OSiC9j+tacG74GM955LUZ4875FTruMeArhYjz7QWOja6GviIcdPy6rsx9GYjpsInqB+vQ4bGEvwYhbVZ+Ey3J5HEW47Hxj3Z5iIJobMXFwZKyb4rTqPT3VdW5Je4I2jITqHkt11onIqyB+x/LYN8YkfadhY5G3NyzQHOrU/Tt8viNEKcCfcfWG3IWnQ3w8iM1EL0ZCf4/DJcorMJhdg+osywNUhi+RcSijkVtjNPTb1McI2gujyYK5eLjsp1HuvTEIRJyei+1FUWqd43SUJkZbojImQjEoZnGfuyffTM/G8NQMF+FrZVq8MYYJQo4vYB+ndMxj2MTenu7vH8prQnfDRYe/oJuZUD0RAffEIn/plHkxHkYUeot/m0KuH/5Bqjc/zYIh0q44UZbqIF4XAZ/AvnndkjpyNYgQ5Oz0/g9DuUFA31WWBlgSGWjOSEynTUQd6NSxA44rdX3Td+ThsofV/1jPehguSKqVB6Jp267KPhsn3o/LnkXoh5Eg1Smm9lkD9FNtx8B092Ib2noV5QcB1aOw2AoTPqukTNywOxju7EC3N81UQr82E3WMhOZ5W5wGvyR7b9D+KpjS2RRpWp2d2roYjfwERSmdrltxnN2V0oyZ92WDFlN9RLo/DEYiP+DugR+il2B70/PD85wpFn2vsomQkSS40e/teC4cgE+l+wpFcL9Wawj00fvh0oe4+Suq4jWYaEoDKcnErjgi/5JyZkK/de8sfAKEYKfiXLr6NQhDoXfPSfUfHOpVf+Kkg6chfhMmyTgKO/3kIrgFmHjuUOAJFAN1gY/dS1L5exieqD0uaH1bZFLaMBJLKxMB3jd51FyC6xXL+qi/ww6XnetCD6TodvwzioFo2uKtCPMyOP59OT2rGv+2jESs6yupjT+lNtueXnNCnAemuwYboxiBbxCcV99iWGwZvOVzHzfqf+JqmPek59Np0NYPM1HHSKg+2a7km/0gEJkUSZ2lhs5xcgWMBh6K4cECulXGv8No6dMx2qr1LMg9FPTdh6Sy56Tfg+4HcYwfSTFuivais9LzMrztZROhtT+O7ZWSwMToomO4lGLf8N79HjQ4D8e4/btwlzsNiAwmlUhFyCRm4rk4wp2JE/B8IoToOqW/Czcs6+CR/mJCpn42M7W7ARZXYBIXU5URNSHACakfX8yeb46HXC1Tg1yJub2+CssmB0V3xOPTPXHag4LG5LF0q01EwHsxEmXqjEuZHpuIMtA4aZM6CJsHGTNWRcBcHQ/8tFN43k/78b3n4FlGO5hx2MvD8371tmrjTaneW7D1V2fg1g8jIYZho9SGxjT2oQ3kJ/yXU5QEnI9JWAT9bnBqY6dU7//waLZxjuIGfT2GKwel32XhsqcD1NeNcG+AOjVHFSOhNd5U/dAWouRWNDG6226F0bqvY7Qvp4eX4ykNoroC3F7seKoN7TVPO2C0+w48Nswgawxsb/k4bofUwfYgxbU4m3Jc7cVEaC9UWx9KZa7GD+Bga/uu9F0PH+CbljrQgM3FLbt3TfeEOJJW3E53AhghwnPxyTmLcmZCbZ1JURS3E91WsgdQlB60GWy9V+dzXlb++an8FZguuOx0GZPA/ITuJDCTGMepb/wvPhaCKp1iGxDCfim182fsG/UtdYzE0mgTEUFjHsNiyy9+e4oeJZHx0XjqlHZ4+t2W44/lH46HqdZGfxjut96vRTs4Xq+DJ8OrSjaVvwftGIlYp5Kf3ZDaHkRqECUaK2FjI0alg43dw0P5fufiCIrSt8jIRGPG6/BDw5NwCWIMlz2d0MZmooqRmEXRIPJLWd39QJW6YkV8vZ2J0bbcA+5mjBZWJVkUw7ACvsdIfVCGD3FP0mFsz5rydd8kvJ6N7SnRTuOX+GFD0uMzsz6oHqg2rJwdyo1RTLS4X3qm/We3dP9fuFpnunFyaCDkURIV5XPQZjeBp6T9VvaOyoGd2iIzIWIbDTChmGsj1rMX3eG2o99uU7Gx+vMpqn3OI6h/6+EIILc9bVBVOsF18LS0F1BcZOKmf4JtEI+nPi1tG4QS0pa5lkI1I7E0qzME6sOuOGOp4DhQ3XctzLfgpwto72UDZgn/MRwfJrFT1mYV5fsBvf/p1MZlNEsP3C8jIaZneXydfSrrS78Q398cV6F0sDH8KDamZeXrQOMgKeYh6bfmOt+Q56f74xTDZSua6NKE31V9z9dqzkhA0UWzlwSrDOq8K5bHaNW7MNp1J9107Y8YzXsuxYSNgnhY0vc+CscH2dL0UsV9ObUnPG3CSOSSjmdQDGt9KR7DSG3tQzkjUWZYmasz8j5/K5X7PcX9A4ymTFWSyCkHfeQbsAE4L/2OosOnYMYoedx/gbiyZ+PMxDn4aTxulGIkNJnLhGerAO+nqGv7Bt3htqtA9czCOfZXhntVIIQRwXpLxTu9rJS3wIyMFlO0AdH1L+BrmH7soXRDL2+QCBqHGOxqvfSeTuWRkbg/MBHg/TwWW3RfT78j4ZtP+TeMUyRYTUSi8eQyDrwGPzmJIfl/Wf8GPUVorB+JG23umT2r6y+0ZyRi3ZLW3YtvYIPOf07Ad8bXkyR9r6E41r3mBWwOY1hs3a/biPUtMVy2ni0N0ISZyBmJH2JjvB7uNaOw/r3mro5ugdGifbFgVvIIi9ciDM8uxGhcGe2rolv6DjH4Z4V3qkDv7IVLXHWvbu3FcXgYtnfoGxZQDGsto8nYTmQk+mEinozvkzuHZ+rzr1I9igG0tODjUEADtj1+io4cowZJIl4F1sgRQYPyLIrMxMrZ85yR0P2IBHm47dswG40y/WjZt2yNTea9eM6NJoh7ODYGUYRaB+qHdIrb46fYPTFR3+HYN99O9+I8HzNEejZF2xBB3eIXsi+HnzA/m579mCIjoRPcfKYv2FRT0HddhPVz/3Q/P6lVqWaWw21Z6sJl5zi0C5ajQPPzT0w0KSLQrx1EGajdn6W2zsju18EgjERs4xep7Z9l9weFSDPGsDGUiLqDjXEe+K1O5RhVlAqAl2/AuWpAf1+VylzIYG6Ro4AyZiIGrdKaFSPx4/T7c/jJui6MdZ0kdS2M5hyFnZzzQ8/tGM06HKNhe+LMuVRHc2h24OlH5ah3NsNjHG2dPYsQ+7EatlfcFr7n6xTDWmtMcoblzOx5nWFl3t9xPKJz9BqLDHETm737LWgClsWNZ2LELU3SQ/GTwV7heQQN8DND2XMpcoFVjISexzqfhnNxIib7Uk3cVZdyFZxPMz/dXkZdvUDjJEQ6taTMhtRnMr0JW2xvwdLGlrlG5Vy/+q2FvhA7MYgTfwM+PvnGu7QYVkZQXx+KfctCysNiVzETm6T7J1EUiVbhKXQn5LkVs7ReNT2vYlr7BdW1Bz5n22fP6mBYjMT2uEfS7i3abwqxrtWwMZXNi4h7lDTmxDmqfibx0M+b0Nu+QOOwJfV4NN1QZucRv2kclxR/A18XZRKsOnXFXIymvAVz61SMhnhdgmfM3LCkju+ncr+l29i2CgYxgtaBQl4Or03383mO378vRYP48/DMt2oz0vMyRkL7RZVNRBWeqo47sXlS/1VeEaSvwO1IlibGdiigwfg25b7aeq5c91dSHr43vvMM/HR+Hk6Yz6WakRBEBJmgW9x8Fo6QqiMSfH3Hx2raiBANxnRi3yW0Xwc5It2Fp/pWYrR8jCbwTKZVwVouw+w7XkFRNy8QkippjE6YJ+PSo4NT2R1YutUZAs3T/vQ+SUY1h+bsH5hh3fPT7xguG4qEZBUGU6P1AyIuy+Ibh6RITdsalJGIbel0+3c8q++wiVv8rq3oFje/n+JBI87RbDx76h7Y3P6D7tN7lcQpSrb2qyk7nVCl5tgh3Zc9xMl4uOUzKNKXsnnfDKMdX8LHLF7X0CxjpujLw3BJs9TFTWnjM8J3NXXL1jwdhdHyaJ+Xq9F2wvYEfdsVFNVoVdLEnJE4J/3O1Rlyf51NESSJWBk/hMvGMJd6KMZNmZ3hAwZyfdyvKJ7ktShXw+KfdzACEN8tq28XnJn4DbZR/4TejIQgDrYM4KLrzpcpuhhNYIiqPrYJvCNEOxmb8A836J/GZWXgqtSmmJe8TTFHZX1ZCdOvvRezJo5iuQ4m3vtN6tMzKGYxFTwaR/xb0v/7YOMjr4ClmYmA9rrtMpuJizDf9psx9dY22NhHIrAPReLar2FvW9D3vQOXQq1LO2O5YTASYhjWw0+nb8/6OEzoZQD3D2xOBEpItw02hzdjc3oRviHNT2V74cZxlKegX5qgjJm4AVu7MgS8BQ8A9qiSOtbAxvXD2NjmaQBuw2jLezFa0yZjpvqnLJZXYjSvF+OpOfgwNgfK3dRGcqZAbddinh9x/jbH9gB9450Y/W1q2JszEj9L906ntzoj1v2BVP7f2B4Zx0X7qNSmb6ip734PUfw9iU3IBtkzffirccTcjGoiqPJPx5mJM3EPkL2zcnUQkeHhmA5KyHMztjhWTs+fgC88bbhtvD0kSvwNvdUi6tcHcWTPEakMotirDNHXx05gx+OR1+J1A4bsh2BERbpjSYxEcE7ECdPSzkRovKK1/a7pXhNiMB9nJv6G6+XfEMruRPHkchV2IlP9vQwABwHhxAa4p40kRm3mYxiMRGzzEHwdDZKkqQnE8Z3Axl4MeJmkUQebf+KJnZpm0tT37YrPtdbJ0ihSLmMm/o7HXtCa1kFleWztH4LRAh0W4nUxRkP2wA2P8zYl0WhCr+JB8gNZv6veG8NVvm02UfVnTfxg9IR0bxWM5kf3++9SdDVusqbUj71xyfl3aMZEaMw2w+3fXp2VF67H+BHzs2cPKNCkzcV1TM9P96K1rDa/PIZ41aTp3afig62Qx/tRHZSkqo+xnefiTIkW3XMxY54OFoimn5Pew1Mf76aeQAuRNse/7VXpWduNOuo38wWtk1mvmPVfwnSgMujJn8vodGnlhDVmj8f6fCvN/f/LbCZEeE/GiPNX8HG5g3Ynl2GA6tfG8Bf6S+I2LEZCa2Murj5QMLapGguwOTgKt6maxOZqY1yUr7lsk/RKYxrjkdSFHl8aQN+0Kd3qiEmMzhxCb3XFa3FJXATR29xWoAlozHSQvJ3uuEIRIp7ejdHUtkGYtDbOSG0ehtkaxOBnv8cD8qmfTb9N9FaqVBmdlsWJyEHjIXfPP9A9tppP2bD1imn0gAANzNcwpP1E+p3rmKE8q1kvZuIpmBRDjIRSAZflv6iDeKpZBosKKC5Zm0TkfufSbNKiXlaI+tLsGyJEewwhdBPuvglIDVLW7krYmB+OneD0vZHgiGFbgll3r5nVEU8iSwvoWxVlThEJ2xAFKAatWoKNzwJ8fL4HPCJ7b9SLWrgSk7j1m0J4WIxEbFuGYIswFVk//WoL+SFiPs44dLA5uwOnFzHYVJvDB/hGJHfJpYmZrpJMromtXa3juLZ13Y7RgMMxmlCmrlDdg671soNknb5fY/wyXEqoTbkpPc49VyKt+zcWvVQbcz/SRPVHuYvk5tqUidiJ7izZcSw0Bp9IZb5aUuYBB7mh2x8p3xQ1CFIv/A5H1CoEUd0740T9fFz10M/AxnfWw0R4IjyLMaOujSrKV4H6+Tls4qsSq+j3zpT7DQ8TeqlBNgJeiBntXYDrRkV0/od5kbwVE4U28QaZDhARUFjsJlEeI4zhROXhGNMa3dp+i6tKYOq+NxoQnp368qPQh7YwTEYi9kEuw2fRbfQ4SsgljbvhonAR99vwfDUx7kwvEO4omqdcXaeTge7lXfEoLErkqbing9byvdga/yzmFrtRSR1N1RX9QBnd+3/Zs7zsF/Bsz9Belb0xRssX4weD4xk8QVw8jAr376I3ExHpscLmf6eiHyp7AS6Fh6WLkR06aGC3wmMwbJ490/9jmJuhOMR907MmOksRUzEra2XP20BOhMS56roe20DlbtOLa1X/FTL1UlxiEhelEEmqlW8P8A1toU4NsgOmTxSXnIs+O5g3yIlYfoTNSurXt42CEFVBmRj68elerzHNT7ZPwNIASxy+GBuTh6TnMuSbKshxatAkbsNmJKJKL0/SNJUELxrEPoSiceFibE6fEMo3kSQJd3bEpRyiN1OJ23FN5bAZthZPpBjZN5cyLsHGZIfs/UHUFf2AxlS2BOfT/W3qxxw8r0gTnIr0eVmMdiu/jq5o89TvN0cm4geh7vNCvVWg/u+HS0keQreKR/9vjrnsLsY9wpYmSfDQIep1/owNUlVUSA20kpNcQzE7aFX949hkRcS4ANeF97sRKwf8x1Odv8EkJWrjIszgKPa/rJ+a4I2pNo5RHxXsJuoKp0NkJeK7A24fEE8xV2GGSedR9HjRpvZrLIDL0/HYGRGmQg0i/JKI/Wo8nHgTY1ew09lncCnEXZixmcTCf8ftRKZqnoTzK+LGn8cN2IdhMxKxL8djffwnZiE/lcyk+rAprlqcxNau8HYRNscblrxXBur78rht0VSEy66TIK6GrbUPYWtPzJuuu7C1+l7cEDUeCqJraNWpeZQg2hlzSuwfnsW/j8TW310Uo8/mkNPOPSimIf8dLqX6eCrb77er/Tm4d4auc2m2h62K49OH0rN8rkXTXpnK/YkHuCQiggZDQWBOzO4LNKCr4AP64Yqy8R3w9NefxRfKhXjM9n4X+ATu4fBybNLehYeT7WDcZ+Toy041+i13nQNDWXHMq+HppGOa2KmGMiPDCzBJj2wEFuExMTbDTgafA/5K98nnOkykelCqM1+sozr96DuOpTssdhnEk8tymOtitFr/EXbqfwR+opWEaSoDcamNw/DxXZPBvENGwUioP2vh9iXvTc+mcpw2wk+wmrOHY3P5I4qSxrfjXhh146m6v4Hh1jHp9zCJep2UcDa2lg7C1pbGN15/xdbki3FmdxdcnC/prUTkbYxORwEa0yNTf6K3mpgoMNrZoTucgCCXJu5AcXO/AaPhszCbug5G4wddOzHY1K14SvFzQr/KQN/9EfzAswr1JgBfoj443gMSNKkvxMXgVVamGpB9cRHPFlRb8er9M1P5XTEisQBHkHWzupuA2nootmkupBgOdSNskYow3YOdCtcNZcoMZI7EEOCU0I6eyc3yKpr5U48CypiIyzCGTAGpxERdg50wI4jAvREzcvsP5QTusxiB25huGJYaRIT4QoonnJxI5ieXF1B0j70Y9zaCYrRWEeRLmRo3WI3JJri6RjH2B2l3FIwEeJ/k/nxrqrdqPQ8L1O7GOBOhubqSYjbJ59M933tmdeV4KBySBPGCinJtoJe6YmPqGfb/YGvujZQz7CviBxWt4ZOxtS31x3QyE/r+lfHDYEz2qDk9BaOhR4ZngrgG1sVosqQzizC6E21AHobT936ilGo9RnXGEiwKsyShZ4bvq3r/obgkZp+Sb4nvL4N719SF63/AgSYm+r0+MnsWYSJdUiOcHO7nkDMS2iyehBsVXYIb0TQltrmR6IX4pMdJ2xE35NPm+sZQRty02n06fvpZOdTzMLpDhU81cqi9+ZSHiFbQrw/gxPk96dkylI/tqpjl8fsxzlzfqOtOTPT3Acydd9WSOvpRg+SM4CKcEdSzfC4fRfHkcj1moBZPqCLOX8OJhFybpyKmhur9Pxwvh2GfMSpGQpvDbFysfFJ6Nuox2hhXZ1yO0whZucdxkwQq6s5PpxikKUoG9N6W+Ea0RfasCdSpK1bF1sQHsDWSqxDvxNbU+7E1VrV2dGh7L46nH0j//yQ924T6rKFTBWpvb/wb4wFuZXyOnpbuTVCUHs3GpBaSancwg9gds3aEmxelMm2NFsuYiEW456D2jjpGQvOuQ9pv8f2vrD2A7bA99C5cHfeAto+IoEFUjoso2s9Bg/hk6t1gYr0iEnvhg/o4PMLeJXjwlCYETGWqoiFG5gBM7RH9kM+n6IeskLCr4qeBnUP/T033fh3qnkppRGQiyhJwjWGGaR3MrUlGfgtSGS3KXqeqjYAXYTppxRmI13+xE8eB2ILJ3XibqkFy46WLwju5BGJ94ATcM2UxdnKJ0hKVz3WUv8ZE5HIVHiUzofqemPo4SfOQ671gVIwEeN+egfV5MfYN8dmwoIyJ+Dc2R4p6mdtoxT7MoyhpvBez8YiBl3I8uojmG1GdumIOhvMHYfQg2ibp+gu2dl5IuXdFLs3T33m4BOvFuGviaaEfccx6hQofFWh8JvD5OiU82xmXqKya7kXJy3PojgP08vA80g1913G0j1Japs6IwabGKc/+GUHtPBU3fH1yTR/U34NSvTLinGqp9bRCnWi/DDSQ38R1eTJ+jANXxkiAuyM+Ft+4/0QzZkJ1LoeL2HbNvkMQxe8rUR4Zbdus/A+wMZAdxHPwDUwW5FOp8ypTZ8QEXNrMtWBk4SxG4Gvpd5XEqIpwzsKI1YEYPpQRzr9h7rIvxSUjEarUIPHkPokbI87BcW4uFogntvtT3LND9cR69e5mOOOxIeaVpJPSKJgJbQrjdBPYYbQxSkYCvI+nUmSYh3mSKmMirsfmZqP0+x7cqyi2nTOXj8dwITK4h+B0ZRxfF3UbUS/GehMMtz+PR9msYqznU66Wq2Os1RdJ0P6cfssT7Qfpt75lI3onLxs1RIZZ6qhnp3vaP35AcTy3pTwysWJglKnS9E27pXeuolmU0jImIsaJEI7UMRLCt9m47dk30rM6Gy6wNRT3jweFWkOQi/avw0X7dbqjzfAcEa9Jz+LAVTESs0K5R+NGc3/Bw3RXTZjuPy69cyvuAdKL8QGzPP4KjtS3Y4Y0chE7ON0/O/VR+tlRi3zLoIqJiBuh+qNF86b0+7n4ItoxlK+DXpbnT8MWyK+wyHWRqN6d7h+Zyq1WUkdkWiIjuFvW5u64kZkI7IuzeqqIiU6jOvlIurYDo0unrjr2pijyHZatwagZCa3nmKRJa3WY45OfqmUErVNcr8y9uaTxJbi3WQfDmd2ydnenuBHFzT0H4fiR1OP4B+mN473mRe3viEtYFLDsTRQZibjO4xhONzMhFd5Fqf2z0++D0/O1MNp6e7qvCKabl9SVg8ZvHXyPeWzDd6I6Iw82pXGqYyRU5jWpzG2YQWwvW8CVKVftPGhAAxFF+1XqCrL778dFlKtTPH3WMRLx7w44M/FX6q3s9Y6SIP0ia6sKcp37U3Bvkg5m5LUXdrJYiC1SGVjextQYoUWosonIN8CckXhjqEPqjl/R/oTZ67S2KRbB7ou4TUbVaa3MuEyM4B14kLLt8FNxB8PFQ3Gj0fxkWgbROHYS830Xbsxn+BlRNU6r4PlC8myAg8KoGQnwvg7bqLhqA5yf7o9hczRJ0XivV53q04oYjsQ02adiuASGWzKUeyxFkPHxgVR7V1yK4fjLcO+KCP0aH2s9Sp38/fAsl0jka71qLKeKmYhGxdrkP5r6sjD1Z2/c6LmD0dqdQx1lUtAc9FxZjpVkruw7q2wi8twZvRgJrefVcWP096VnvfbCp6byN1DMbvugAhGk07BF/f70uwo5NeAr4Qjz8fRsIpSBakYi/r89zs39jWoir35KtPnuHv3MIZ5qxjCjG/n7dzAjUukr5ct9REVfRgVNmYj4f85IjGFiY50wZWTUL7GpU4MsgzGDh1CdTOgvmG3DS7FThiIPnoqd7E7AT2aTGPGOhLvp2KvcM1Nd/8E2G92vk+70A3pP8VWuxRjyQTfgCFPBSGg9r4Z7D8jyftCxqTpFT2BzI4L9zJbtxXKbYq7rWrOLMZxaDdukO5hb4ToYDn6WcjugG7C1dDCG08tQhKZ2QHWQ2/LchUmDVF8VIxH/n25mQv14H0VauYBiPJ9/YjR2LLzXFGf1Le9J9cv4NH+/l01E2X5TxUjouxSf6Apsj6tbz6rzA6mfYgofNEaWETQYb8IGsImxiAZd/r5xQcSFVsdIxN/bUSTy87J2VF9Zdri2xC72bzWMaEoE18ENSS/B9GqzmRruspdhZf6dVYyECKAWxJX0XhBtoE4Nsia2KXwUs3TOA/DcgbsA/x5brJ1U7jSKFtxtx11l18DtYZ6c7mlMhsVMaCzrAvUMA6aCkQDvs9wm76A+SVOTuqqYCM3Fk9Ozm7FTILSf7yjt2hHDIeHcFbiaawHdeWruwXD0oxjO5jlq9C1tPZPq+psfwI5KzzQmdYxE/B3HdqoNMMexcV8Ws2+TQaLG9XaMpkr900SamEO0x+hgNF/zIxzpxUTkktA6RkJ7QtkBrK7v6oukSwdlbT2oIJ7Y5L4iFUPdAqoS0UXOsxcjEe9FIn8ZbsQXN608Xz0MfjoA2BoLfX0nhoyTmJHQiqGNUUolmthE5FDFSMhwcXXca+H92TvDgl5qkM2x09dXMH2qdM+R8NyN4clWFfW3OQWqDz/C5vCw9Dva5gyDmVBZGZKdj+P9MJnOqWIk4jz2yilQB030+ZqHw7A5+mH63eR76qRjYDh0JkUbB+HaXRgOfhXDyc1L3u9XXdEENDYfSP2JKmEZVfZiJOK9ujEeFeSqpZOxOVyE0c5vY7RUMIgUFIzGi4bJsDPuL7lNhOypyiJhVjESUVItCdZ59Gai9WwjusMnPKjsIwSatDl4AJQmsdJzo6FJzJUsvteEkYj3H4GLO/+BW3KLYz8qtVOXia4N5PYTEs0p9PLloe9qb9hiq343uCpGIjJeMhq6HRvLUdt61BH6R2Mi5arshh3MgO4ELBjRBnRDL0KvsXxrqu+s0K/4fD79G2BGvahOYzu1eL8NTBUjAd73/0dv9+6693udljUXZ6Uyb8meR+jFqG6A4coJFI0vdQnHlmC49+js/WGoK5qA8HVzXPr56vRM6wWaMRLx/lQxE7mx6154nBbRyt+F503sIHqB2vs2No8fS7/FdPWyicihipHQ/egG3cRIXe/1ytX0oAINmLK3VWXCrHrva9hgXoS7g0JzRiI+eziuq70cPznMwVPavrZBfU1BRGQ3igmwYjbJX2DBtGJfh4EsbWwiyvoN5YwEOAFukgZ42BDbWB+L96GgV5OYyPkRWLyFj2FESG6bUUR6JnZyfTLFQGGxncjcqd1H4yJ6BT1TmUHGXPXMwt3DvtnwvX5gKhkJ8G/4FvZtf6CdJ0K+sc1P9yNOguGEVA0KLjURykxQPp4rY0zbYRhuRJWk1BW/w3BqFwzHfo+v6TsxXMzjT4waeo1rW0YiPus15oNAftB6EvBLfLxFI8VQ78bwpLdq97W4KlRj1paJiM9yRmIC21suSve/Gu7XQb975gMaNMgvxlULVeGyI4jTnocbKsaMbW0Yifh8W5yZ+BcmPloL22wW4+KzQYmpTjzL4h4IInA/x1QCURz/RYpxEwZBmrINrU1I516MxFSenAXRQ2QWFib6KoqEvoMHCYqwKfWZEa/BxO0HYMxmjkvxdLkshjcdPIx2meFVv1IgEbfbGK2kZ6oZibKTs9y7h3E61v974mt7WaqlWLOwuT4Am/tr6MaLmOG2zLtiP4q418Fw8vUUGZxRSepySc8S3ItBz/phJOLzjXH6NSxmIra9KUb7JE28G6ONih4smvl3zK5sGKohzcfWGN7fi8WGGcfUYW2YiPg8ZyTAQ8UvoBjIrwr0bTEs9nRk0V3qQIO2Ica1T+K+3k2RWaFer8M2/THcv7gpIxHLbIMTjotwd9O/NqynCaiet1AkMB3MpQ9sUUp31sHczXLXxLZEqGoja5NkqhcjEctIl/87/LQ3TPFbfgp5Jp7Br4OJnQ/HdIlKsSujrbK5XAY7qR6CEY2YjE3Xn7DkOC+gPJrgSancJ9PvKkPfpnOgzWZ1XP02KtuT2CZMHSMB9br8vE2VbRowSb8/lcp+raT9jbA5/TQ2x/m834jhxCEYjuTeFWpHoba3wsbtLgwHowrkN7jHiL5nFOuil+1Jv4xELDOsoFWRCVgR845TWoMO5m01Pz2/Ot17ffj/kD7brYJZuJfNa3Dpdx4nokk94IzE2dh3xuR1Si3QdM/bAZd0SRX7oPTYiCDk0eZfp7vM3xvHNlbpzY5Pz86lPSMRy21F9ynkUwxHfKYFsx7ui/6m1LZ8pHcK5XfFxdkdDLlfEp43tZ8YltFfE0ZC37gFfmrYL3t/UIj1bIsRSo3RrVgQn+UxyUAHC/RVRrB7eYM8CxNZn4/5rEecuAPTuR+O6fVje3/GiXl+6o1zIWJSJRXS/0enclcwXG+YMpgORqLMuyB3747/x9PwdZRvYJIWaX61MeyBzdVTsLk7i27vioW4uuJZtPOuEJ24OLS3AoaTkqBqc4+Rboe1NjQG++N4+hC6Dx+DMBKxXBOpUBXkdhAvpegm+wc8kjAYbZRUbhbwZvygtS7DkdKpP5/DN+x+mAjoZiTOTb+PT78vx3CjyXruZYv1oAYNzmHY4Pw4/W6zOcrw5F4sMdPp9MdIxLIPwyZZ+jjV1W+OeoGQ9POp3r/hoVh/lu4diuvQwE4/b8YtiTuYj/Pjsn5XIdSg+vmy/tcxErGc4h1cw3DiHcS+rom50cVN4Gt4wiQw/XAMi12HC72M7LbAsvF9lWIsEF1XAGdgOLMYk27l9WtTEx7Np3pOophV7mHKFTBKUeZ0MBLg3xTdu+VVEzecfOOan+7LTqpsLWyLp7w/A3cBjtc/sbndmyIOCZp6V+g7PoHh3jfDsy3w0602+Y9QZFQGYSiEw6vSOz7HoIxELFs1J1V4mttBPA5PBCiJ1Jtwyc+c1Na70/OfpfvLhXY/10f/y0D9UsbOxZiKqqk6o6wuMRKnY3uUbLPaqCa09jRO7+2jPw9Y0KTLd3cB3b67VRB9cc9K738PH+h+GAlwIv+sVM8iTCf1sD7rE0TRlE63u4Xn70z3zki/c259A8xSXO8uxJL2RBF7FbGYz3BCNjdlJETQVsHFjx/ps00oirjHMXFj3AzOwa391Z/lKYbFbtt2FBHnsBxG/N6BBSuLOVV0/Qs7eexB0dBOICK5PeVzIzzUWJ+H48Sorf1h6hkJjfc49q0dLEYD+FjEDes6bOygXNWwPjb2x+O2K/G6GaMV78DmcrmSOsT4tRlv4dhuqZ0rMVyMePRUipFu/4V5VEQc72es1fZHU71XYWuwjPkZBiMRy+dzMz9rJy8PRrs+gx/YFmI0LjdM1Vickcq9IzzfPbzbVDVeBdHF81Q8aJ3oXNuDZM5I/ATboyRRiHtYk36thcfEmY5cTEstaACXx9UJz0v3mmzYGsTHYCeOxbiKYN8W9UTQqUMiJF3X4AaX/TAT6qsskH+afgs5q/J55CqVR+GGPx0sOl6e4lqnJxhudMWmjEQsuw8uInwo7cSP+bfvgscQ0Sly/1Bf3PjjeK4T6usX6tQg62B4ewy2ceRuprdiRPBQjACskL3/SDxC56W4cW3MYaIEYqMmHNPFSIB/W8wJocy5m+DqjBtwEbpgBWxsD8XGOqoROticXInN0fNwnMjbr5JINQXhWFnehog/43RHuv0VloMo9qcpzopWbImL4/cO9eQwLEYivpNLJqKaIzJHStUeo9L+kGKqdn273lkbn1NJY0U7FXn4F+HdtqB25uBSbV0HUn2oqAOV3xdXySzG9iq5BTfpq+rZNdVzNbZnwoxq4z7QQCo74yfS76aTpve/hKs4BmEkhFBSNZyIJ3W6BhdZt6lXfXxhquceujn25fHTexkzlW+qe+J62A5mHLpn1u4wmYj4XhNGQkRgAjeC/F6L9mOZrfDsr1qQVZHs1JcyCc+wIEor8nolyboN04PLhideV2Jp6ffH8WkevlFehrkRyj7mK6nMVJw+ppORAP/Gr2Lf/gfMi0JeNZeG/myDjeHXKeZa0HU5Nge3p9/RyBGKzOGwDR7B8zboBC3cjPO4GobLYjo6WPbHGCytzXo5JdXxG+olWMNkJOJ7VcyEYE/c7bGD0bBIt/L+5qqGq/FDU5S4ykPmBX18R2QiRNtuxT0Af56Vawo5I6G96cSWfczVZSe1fP9BARoknVwvod0mLU58fUzsIzHZfln9TUAIvAYurt4u1S3x6LUYYWtad5lh6Anp2UT29xsYohxTU38Tzn5bbCNSPpE2Lp510IaRiOWfhAcQ65WpLhKS1eg2Uvs6rmYqqydnBA/t0cdhQDTsE+4sweZgWeyE/XbMBihao3dSuYuxzeQ9eDj227HxugU7jcvbZNQnkOlkJDSOszH3vwXYGIgRuAUboyOxMYvRSjvY2P4YG+vHY2P/yFROYbHLDGCHDcK1XKdf5YEChtNfpyjF+iDNwj7r/tPxAEdPLGmjrI/DYiTiuxvjTPH12DrYlqIk9XpsnnJJalU/j8G+7etZW/r7yVTvP7BDWVN7rKjOEF1bjEnC5uNqsNVTuTZ4o77vl+pZhOHw+rQ3DJ2FexTtk9U/A/hgbo7HbNgme9YLhExvxxH15XQb9TStR6fKf+OZ1TbH/Xf/TXNmQnW+B19AclUVUqoO5R24gN4LIS74jTFjI4nU78Y3pN/SzsWzDtoyEvEdEckLcDe5+H3RJmQMW3zxNP8rTLUhKNsM9DvqEpumNR8GCF9/nNp+X0mZtbDQu0dhAW9iEDIRG/n+T2IGqzmM4hQtmGpGos4W5cN4PBIZS+Zj9XtsLJ+NjW0O70tlf5R+T6VU5Qk4A6S+leFs/PZdgF9TlKrsG96LNgN6fxxbUxemd/4v60cZjIKRiO9vhEsib8Fj40xitGrjknfKQN8nqfCr0v1Z4fkYpvrQgUrJFXt9SxkTsQjzHgGj/f0meVMfx7C9SPOprKJN61Eft8ENPzfLns1AAiGD/J5fn+43ZQL0/rL4Zt+PFa/aU1jsb6ff8qDYFBexNrFO1ma5Mb6xVblMgp1KFmGGQw/JnpVBToS2wxbvJB6P/kM4EerXiEvQLyMxRjEN8AHZszhHT8WN7aQGeG0oU/cNKiPbgmuYWl2ixkH2NWdSlFbUeYN8jaJ4XqftazHx/GsxG52qjWhYjMWoGYnIOJR9y9bYt34H9zyIkocrsbHah3rvCtV/Vnrvren5VJziymy/ZOtRRY8iXk9gY3Al/t3nUjQoztfOAbgkYxN6n3hHwUjEbxjDGEHlEZrEaFNUdfSSDKmuh2A0cREujYzfpm85EPuWBfQO8lSmzojBpmTAq7TzCpfdz8FUrqT/wPaoeIjsBWpPAax+1/L9BxVosHQCOSX9bkO4NLDSay2iOxRukzrGKYbFjhsBFHXZ/8U27/gNEXJ978V4gqsyRJjAVDttxVdidLYIfZOxWgfTtT83a6cfROyHkYjvHYGP2xrZew/FAzpJtP/hVC6vpwpyMeg3Gr43LFA7Cpd9O93hsnt5g7wGJ7y50eYkhkOfwKzV1yupI9pu9DPHw2YktKaqDFXXw77lE5SrK/Tdk5hnQxPvCvVzParDYo8a1M43sb4fnX43XStguP8RimG5v4atFcEszNNNtlCHl9RTBsNkJPLDwPMoxr8RLboUZ/7m0BtytffFFf0Tji2D08+vpmdl5cuYiBgnItL716Xnv6fdmlK7j8IlaWeG/jYF9fUUihLKGbVGCWjQn4YN+A24SqHpoItLi6fZs7P666BMxZKHxY46wL+lNqIbWpxclY0W6HXiMd07AUOYuoUQIXpnyCbisvT7XbgkpIMZO84vabMp9MtIaKGviNuaHJuerYKJn6WK6WCSoBiHoY1kqk4MOmoQrs6lO1x23Ul0Fk5Y5R72Y0zPL3HtvXRvsgswQ7BDMTzLvUGgvbRiGIxEHbO0AtbXQ7G+L6D4TUtwo7QbUlm5dJ+c6phDvXeFxvr56b1/YXOivk0F6NtfjTPzbTaiOHbbYmtCY3QLxpSvkp4fh3/nig3bGRYjEcvPx/FX/XwnRoskyb2e5kGr4kFsEg86WEc/n4kzBmWeThqbXJ2RZ/HMVQr30k6loDV3Dj4e59FOmqByq+B04Kmh/hnIQAO2Mr4Zyg2qjTQBPLKliK4QpOmGvHd670/hXpz4qAP8K744dsjqkS6zLOV5Xft70Jz4RavlMu8MMOQ/ET/d3oVFDVw7lGk6xv0yErGMAg7dgdmNSBUlsd2zsnfaboBb4GLQLbNnUwE58ZNhbRM7Es39IsylGUzipTVxI3biPBEX+8frCkw/vh/+7RGaeCn0w0hExqGszJapT/9HeTCoa9M3HY6HJr8el/Y9Fj/V7Z7uNdH/fxKbg680eGfY0K+6MkKuunw2ni1YB4b34FKXNgHLBmUkYrm1MYlLtIM4Ed94ob+gVVDMYbNHj3fUp9PwjTvaXlUxEWXBpqL92p9T2b16tJ/3Q3mktBedm9XdC1TP0/E1sXLLOh50oMX1PQwRP5p+tzmNgjMSigR5Bc3CkLbZAFR2Q5yZuBH3DZZ+7ZX45v0wmuns1sNFmXXi2MhElAU0ykXJT6aYRe8qTK+qeprYTwwikYhlLqAotr+mj77koHflalUlBh01VDGkVbgnnFiW7ih9wqMobfoNZsk/F0vK9B5sXm+luDkvxlR0R2NqraZxE5oyEnXqinVSm0enPkQ1Wyf19Zep7zulb1ktfVt+atUYxGiwy1K/noVvbTeAUUC/6soIcT3MxtaKbC+0cf8xlG/CgPfLSMS+zEp9uSr05ZcUsxZHyVRkJuqCVsV+1KkJy/o2hrnOKhrsK9IzSRqqbCLK+tAPQ6r1vALONGsvastIqP2PpvYlkZuRRtRArpNqKwpUubPT+2/F7QV6JUYZhPvdACdYN+LBUlbDF9hRPdrP+3FWeu8tFX2I6oxecSLGs997U8x0+RvgGdl3VY15P4xEbHtz4Ms4o3QvltyrjR1Er3ZOor94JMOCJiqyCOrf27AxuQkjmNG2AIq5Of6BJ+wRxEiOF9FtX6FIjm+nPpLj7NT2PIqMxBjVCc8U6fPtqY080udk6tPxlEf63ACXTOW5M0QDYn6at4XnOWiMYwbHNiLpYYL69wlsDL6Wfg+K42B2Ed/F1UC3Y2tr84ryVX1rykjkdhDPoJgk7zKcYVM949lvaJ6bQ7/fksqeFfpRB2rn4+m9KzHVgCQRp+OMdq/cGepDGxWZ2ldCyUtx42up2tvsaeO4vclrs37NQAkI6bbEOMW2ounc2PI5eB6OW3FiWFZXP9xvfG993Mf3ZozTlrvnvzGmoo3e8vD07g9L+tCGicj7GnVu76Oon25il9CGkYjfuyK2sGIMBZ2oFDhnDs0XWA56bzm6w2JPx6IrM9ot64vGaH188z2kpGyZ9OlSPIV1TgjHsY301ZjB6ZV0qxP+Sb33wyY4I7FJyfPobVIWgvrK1ParU1/ydaQ+b0IxAdf8ku8X3okg/49qX/xBjeSGCerL7viYLJvuDYLrMtjWRh6lE//DaM+KoXwdA9uEkYhzsQ1Fe40FWEbaVUJ7dTQImjET6rNiTxxWUqYMJDFZDZcEvC+1/SOaMxGxD02NdoVn83AJ4YuxvahDO2PLQffDBzXkxnJtOLCckRB3LGnBSel33ULRqbDNhKu+9XAR5i04Ir02K9ekrp3w0+lqoS/9MhFlbYBtBifhROF2zFNi9dDmRMm7dYxELgF5BU40JGl6eurzLenem1v0v+6bHpvquw0X5U/HotN45G7E+ffp9xewfv8FO/GUbXy97GFi0qocFD76XVhwJI27rkUY03MMFoZ3LSybogjYuunerqnMH+iO6XBLqvtdlIcB1zdMUJ47o05vHtU/UiV+IT2rGtNv07/b3rBAuLcu3eGyB8X1g/Fx3wiLPxE9Jf6O20zovbIDSR0jEQ8fa2C0QdLEDt1J8trQnzpmQm2uhh8+duqjjdekd2/Apby91Bk5NJUSx3ZFU/+cfu9F+31lUAn9gxqqdEL9SCT2S7+fjUd7q0p0ovoVSKhtZrXITCgWhk5DberRN6yEbxYKwiRd8XwGD3ud2yw8Fbct0Wl1/9AfEaE6RiKv84l4kh2dmg6k6PZ1KL7Q16a373sVqN13pPoUc3+6OHeNUwxspo11LCvzKDwR2/OyZzn0Yib0XlSLVNkwPA+z9r+YbmnCzdhpVxKJ39LNfHQwdcWxNMtdkX93UyYi1gWeDGsh3adDtbECfhp9VlZmqkE4KPskBSTqh7HROK6DG6W+Kzyfg62xaIh7Bh7lUu3GtVrGSMS1PkZ3TpBzce+BWGdT6IUDonW7hGcrhf40bWMCV3V3sBwkCjbVdPxV7rBUR1VgM33TE/Eovs9O9/ajf4lEvzaDD2rQZMhKtY0baJVEAurjz2vC1sDFyzIWakN8dMraFQ8GdS2+iJsiQI5AHwr35jOcLJ6xrYnw/6spWtXnBGMZbNxyRmJuKLMJdlqUgd3d2GazbiijzWU5XDf+yQG+ReOj5D2KbDddiy6e4qpwSjgofP1J9rwK+pFKSbJUZeOwDrZZ/AHboHP7ik66tzCV2Z9yxkE2FlV2Nm315FXva55/md3X3yfhDJHsb6brJKdvkqpTyfr6YXL1fZ9KdV2GraFoSwO21o7FvSgWY2syqqi0ZiMjITsCwVMputNfgblUq++5lKOfb4m4EFVb43hcoTYHSpWTTc9PMbxdjIfLbxLDIu/nk3HVUZTY6q8YFxkMnxLqaCuRiCpouX229WJ8UEMcQFmp60TeawCrGIkx6jPiaQHWnR6b9Ft6funFJfpdgCFhbKsO8pPC79Lv+Qw3AVeEWMfqGPMiUWwHE9VFd0LpLQ+ieAo8FD8pdTA3rO3De/HkojZfkMreixORttIVWPpS7NZJudSvmMTtEelekz5XMRN5KPRekomNsBP+RzApTi51KAuKdUsq++H07kZ0Q50kYiP6YyJiHfPxJE0vzNoEN3T7cfo9nTrleFIVPVgz3evnFP9I3MByz+xZLhXcHneF7GBr8104fRvH1nAHt8cCW+tR5XkbRhNWD2WGSXeqJBOS7r4h/W6CI5rrsiye56X7VYxuGUQ7r6pw2fq7Dy752DK825aRUH2SyMy4ffYBQoTv0k7HWcVIiMP+SLp/NcaoiMjl+uxvZf1oAqpDOrnbgZ1x7vRWXMfXxFgIbGPRIn4+blA1bCYiQuzb1thYxA3k/dgJ6LsU1Ucvx/T7KnsB7u+vftadUJUl8afZ/TZ9jmGx2zKCo4AquxsZgy3PYNKYMgPMiBtlp64VsA3t3ZSn2u5gRsPHYrpZ2Ui8DlOD/Kmk/K2prnenustsI9SXqtNnG8mRxigmadKpXGtHNKDOu2OqIDLaUjkoXHY/361kdHUps3Pbpt1xu7MOtlZlPyGx+3cxnHw/RYbyW7jXUVV7g0AZM3ENxiTpMCMmuxdNFk3P40TEA86rU9k2Y692y8Jli1lfFc/e/JH0XHtPW0Yi35O+m/VjBhpAvik3SWAF1YyEEkStim/GMcxobmH/mqwfvUDvr47rZT+Ynq0d6r0NYy561a3vWAZL2CP7jlEzEbH92L9nUXTz+iueTOtzuNqog3Hsb8YXUCTuZaBv2AG3E9gte9YL1NejsbH6Zsv3RwVq/zE4cxnVO9E+ZC0Gi52xPU4oY6bXccyn/lWYB4U8WuJ1Fe5dsVXo9+q4jYROohOpzKsb1PeqVFbftDHunXEj5dFgm4BoQUzSFO0EYhwWxXVZWnDhWxiOfjz9bmuDJe+Phfj41X1bxKllMANNnao72NqNeSD+Fp79lmLa9bZ2EG2gjJlQ0rp/4PSkrv0qJkIM05G4xLmpF51A8/TaVMcf6D6IfhhnglZNz6XubstIiBG8kP6Znwc9CPEfSn2ilhyqGIlZ+ASI+74DszbWO0oKs7hhWxG0CI5OdV+JGQbp/hq4iO42PPFOHVIIAU/ERcxTwUREiERoNmbEdSXdG4e+6zMUYxs07aPKiaA1CTgUQYycLNaXlkWnvi+L253sifV1E/zUd1Aq1/aEJHWF2tkYjw/yNyygWhMJwooUQXVvhjMSm+Gqiggr4hKOX1At4TgB36Quw/FYBLOs7joQzrwJl5bNS3VIVTYdYbGrID8ctbHAjx4rGsPPpmdt1xhYEL3PUPS+iNcV2FqPoaKn4iScMxOKBvnFdL+Jm2ZdsKmVcPolRq7p+Kn+rfDYJJune2PYXiX30H1Dm5r3NoyE2ooRUbfIns1AQ8ilBK+j+6Rc9g6UMxLRGEan65PDe/umexfTbpMWIS+LpKb2wE50avd2LKeI+pZD1H9fiTERt+Phdad6g1SAIvCEZUp1vTD17cWh/DK0I9wiqE0DDuXvQjEsdltGcJSg+f8qNo+fTr+lf/4TNl69NpW44eawPLaZH4y5H+dRJO+hmOgrDwalfmozV5/n0R3ZUsZ1VTYX61NMwCU7Bl2LUx8PTn1evqSOnEEqA9GHZXBm6Wvp2Wdol6tmKiDfiNqEy85VZDdhkq22Hk65IeVLsLW7EE/Rfik+1zJWnErQt26R+jaJ0cA6O5oyJiKPEyEcUHj+u7C5yFVATfonfNsHx1HlF/ktTvfjftWGkdB+pWyuUfoxAy1BE/ARmmcDrWMkoGjRLbGZRHfK0PeJ7J1eoDqFwOfRHUdB/6+G20zcgVvhxrbKjOgkylRQn6naIPPveBkuasuvqzEDt+ii1c8J8y2pvrqAQxE0XjkjuLQsOvVvb6x/v8bdwzq4e1hOzHqd1HvlrtBp7jaK4ulYf9WGrfbm0TvXRuxn2Zg/E9dzl2X1vIL+c4NozBTsR+7dWmN7p+fTLZkSaMwvwTciqO+fNpD18XgKhzR4r6oesDV6GK7Pz68LcRdJGMwzoy2Ivm1NMU5Jr6BVUZ1RFWxK3yEvlNPC/Sagdo+nmFn4mbj6OffMGkQicUqq98NZXTPQAjQRygZ6I6Z3gupJ6MVIxHq/kcr8HhPPihjvWvJOrz7K22MR5dnm4u9Vsc1EzIRCU0cx2HycibgQJzz9iMD7gVzy81g8+2IH07HK1uSbeFIyidRzItRGfDuX3gGHIujZ1yhmB1xaFp2IglRnt+P++PJH1xjVnfSVu+IYTCyeSx1uxgxVD8Xm6/G419OFuCqhibSoDSORQzz1bowzntenPj029fGndHuILE7f1jQ3SDxNKmLh5fgpW6LnpUEyBd0bkSQoTfD7i9j31QUsK4P8xP0yinYQv8LWcAdb09F+4sd48Cz1f9QMusboTakPl+A4FL05xBSU2URUBZvSOOyIMyltYoyoPtmpKNOqpOZfL6mrLSOh+6viNk9PbdHHGchAA7oybpGuTbdqQJswEkK+TXEd4dcxndcdeEbMJsYwuWj1Kz36p/ur4FzxnRSzXc7HmYh/YEZ4h9GfL3U/EPu+MaaL1aJbhImN18a9NvbFxuJg3NC0g20Ujw91NSFCantXXApTF4422iBcmd7Zvab8dIFw5WKKEqaHY+NS5V2xI/WRKH9P/ab7SJyZaGNfMwgjUWY0FxNwReiV2OsWPFJmVYp0pRN/OG6sK8nU0iYOzg0mr6A+XLbKP5rmAcsE+WHg8bi3RwdbqwdTVOt+F1vbn6F7zW8c6hrl2hJ+KYbOYRgNlHdTZCbGaZeAC4qqRjEqTVSLhOfrYHT7Hmzv6GB7ySZ0S1DbMhLq3zPw7125xzsz0AM0IQp128vSuQkjAT5Z76NIuM7K2q0D1XkQTvQ2orcoXs9WxvPU34UZYD4MJ/wxj4IkHv1Ed2sKcSEtD7yTYjyIH+IW8OBxJN4U7q2HnbakFxcRinEGehEhPZcE5JdU6zF1ryws9tK06MRESU3XwVVoguhd8XXKjVr/RX1uDEk09Bf6C6XeLyNRxkTkIunYxxweSu/cHV+n2xtEcHwqJ3FwL5uqqQbhZAyXrVTxVfg9htOzH9eUzd8TbETxMHAPNk7rhTJvwte44NH4Gu9gtOAduE1LW9VlE4iqFx0edcjalGI+loen8upjZCJ6GWWOYeOygPaSXn3z2RRx84h0P5+btoyEyn+cYmj9pUWqdr8EDeqrsUm4iHpReVNGQotgBYw46ST0LpoRHyFjdD9TxLQ2KpGV8LDUt+Mb9z8oWrWvhhsh7pTVMSjkdhAvomjpfxEWw0KgxFo6Bbwx/Y6RLR9FkQhdj4UFVrbJOjsP9eUROEPyouyZQGP99lRuusNi5xClVmAuwZJCrZeu52NMxYV02xAoW+c7qM/WWbUmIjMR40zkQaty6IeRUF0x2NR11BvJ1RmQKpvoOzDpVp5NdAk2Zp/AxnA9zI5AQec+kOppetqcKlA/eoXL1ni+CGcAHpE9yyGuq+VS3TqYdLDgTI8K5eem/uSRLaOE7PkYDVAdf8LXo/oyrPWm7/p/qa2bMBG/xmxjnJm4Ag+/P0kzJkKgsZb79fU0D8+vQ4HeXYztIStQjmf9qDYm8DF/VVbPDPQBZRb5W2XPIjRlJOK9l+OL5Jk0YySE8DFM7fK0I1gqO4eijcE/MVGe+qjv/CG2YA7P+t8v5Kf8x+IRGLUJvJXuzT83Ls1zbcQ696Qozr8Ec80TVG2AquMEnLEqG1+NjcIlK1X8dC66qs1xI+wUKk+X31NuI6DEWU1yVzSBMrubXpKJtoxElSRiftaHXtDLRuR5VNuI3IKNqTwQbsPcHCM08QYZNWgsFC5bYdHjuMaDjuK1yPanSsUX778At6vqYGswHgY0BupLVa6NyJS8FWdGJR2RNCXWOQioP0dgtO709DvSnY1wm4QOJlXYPXu/F2h8l8fdpZsGhBOdk5S4g9mdVL3bhpHQeG9Ne8+eGegBmvTfYxPx+nS/6oQDzRmJMcxqXlytELeJ8dMjqQ5T2wTUp4fjyNzBJBzPCmVUTt4MZ6XfgyzaXnYQn6JaHVHHSAgiEVoWc1uLRCg/GeX2E2IY1sIlPnnuDJVfE9+QpyMsdmQc8jkZB7bF3LgUVTAPN30F/XstNIW2zEQbRmJYTEQOcVzbeq1ojC/A3Ma3LalDG+lUMxYaL4XLvpnucNk5s3E9thbyE3N+6HkUxZDQOgzIDiOXBNYxEnl/wWjCpynSis8yPPsJfb/UBoeEfurbx+mWdm4RyjUF9bNteH4908Gug9HrKvVrG0ZCZV+fyv4+lVtapGn3a9DgfgibuFPT72FJJD6Ni0o7uDFTL2OdJmFqqyASdokeL8LDRC/EuWyJxR+Fx5OQfrMtlxoJiewgtFFrg492EGVEtgkjkZcFZ1h0kpSudv2K8qrvQPzksTFOUFRWrn/XUtTfjgrUftXJeX1gD+zbojQmSh0mMRuAx9N/HIW20MZmoikj0cQmYlhQpwZZHhvLKyhGgY3Xxdic7E7vOBqjxh8oD5ctScAYNqYLqF5jcb7Wp2ibtJhmG3wTRkJ9jvdy+4kbKNpP1Kkuq0Dl18eM3ifxw4bUFXNCu3fh7qs3MFioddHdn2X3c1Ddu1LcMz6dPS97p41E4lQ8WWNVvTPQEjSpT8Em4kbMZgC6J6MNI6G65Wp4FU5cq9yr1Jc9cC52++xZLygj6JdiC2gWrve7N7Wjd+biBmh7ZHX1gjI7iCj6vAiXquhbelkVN2EkoNx6XKoIbTwH4zYWIkLRvkB9/UroQ26U9M3w/rChbhPrFdnxXiwDo2KhPBU/iSqipCRPo97EqpiJ3GaiCSNRZhMxKiYih8jMqZ0VcTuKp+I++HfjkkNdt1If2RNGK63QGJaFy9a4yqvgYmwDjWtC78/F1k6MN/NTzLYkfkcvw75ejISgTHV5UWj7EjyBmuppq4J7fqpLUUmjClg0ZzFuFyNpbj+4p2/ZAceRPbJnAo39XBzfxcj8hd52Sr0YCf2O9nBPqejLDPQB0ZJXC6bK97cpIyHk3grjKuU1ofolUov1C5GWxRGpbZjaXqfCMUwfKWnHvfgGP4ZHRzw+q68K8k28qR1EHbRlJGJf4ji9hGKSrz/iMTzUjup8Jk5A5FKqvo4iLHadWH2M3rkr/oV5F7wcs2lZhG1o0neKAO3J1HsWRGlYWaKvSPznUc5IlEki+k3ANShoo5SI+qp0fwtszBdhc/BybL7KvEGuopgbpExFNUzGQuOjcNmKXKhx3RGXqjwzvBPXz6447mszi9Flm/S1LSMhKLOfiEad/dhPqC8nYDROhwYdJkRvFlH8zkGlYfrWz+JroSw8v8pJxfxfbM+4G9tDqqLpNmUkVP9UeOg9aEGDLA7+6PQ7R5amjIR+KwHLhel3DEG7HkWdpPrwDlwy0iZMbRM9dbQrkPvjQtwi+VU456/F2UtyQGrjczhxWoiJ4zasKF8H/TIS8X31eUXsVCgOvIOdJOeH8rIgPy09PzfUMUh+lAi91BXrYonEjsNwJbdz+B/uXfF4ivEOROR06hxj+oNn9cJFiZLn0c1I6FlOwOdndU8V5BvQV3H8Uu6bv4XyK2BzVOUNMonN8XHYZh2TrAkGVYPEg4zyNjwEZ2DPS305LZWLXhTzKSbJuwnzIIjZbtsebNoyEoJh2U+Ijk3gHmP7pWdzqY4TMQz7HM3hujgdkifNRFZmPTy6qEL4X5R+VyV6bMpIqNwxFDNQz0gjhgga5P1xcV/ZADdlJPSu4lMcld5dHo/69rlQVoi0IU54Ds7qatL/+TTXTy+LR+tbhOl2V8dj4ldtnLkdxDvodgHrZQdRB4MyEnk9YAmhvoRv0Hdjm0D0WtgWz2WyT7pXxlg1BZ0Ay+ZvBcxw81Dg57iuWpeCQX0c02+vnb2vfnwolf8PNndqa5+s3/GdqYJeODlGNyOhPi4tTIT6EzegvcO91fFIjUdm7wjWxubw49icxrDMHWzuf465hj+B8qBYwqM2TKwkUVLbyc1PuHEXhvOCdbBN5m6c4TkRWzuxH21gUEYCettPXE9v+wn9fhiOb5tiTGtZnIgyW5FBcFJ1HIKrHTeg2x7r8zhjunx6nsd7yMeujY3EBG5XtX+L/s9AQxCiPQTj3hdjLjLxGTRjJOJpWEQm5iLYDT+175Du6RT2pfTszzQPUxvVGU19+aMOVAtpISa+lf957l88TDuIOhgWIwHdYv0n4d/XwUL2vh4/kR2H6ybn4MyHTvZ1BDCqK8pE11tTnxr7ckzcujf1waCUsn5TPHKqTivCo80xPO7lzjxqqFK1zUv3H4ITdqll5jH1NhFVEE/2iyhmZNRYS+p4GzYn4+lZmdoKbG73xuZarpfxkhrk1XjumwjC6V7rS7gqScqJGE5fk9o5Nj2fA7wh3O9gtjhPCnXV2UHUwTAYCUFOf15At+t3lf2E+qF4Qb/DvkdSyKrcGbEuaBfDJEK0f5C69UtZe4/Co4vuFt6VKuLfFKVCgiaMhMZhG7ozi04HXXhAg8RfSsf9Bro3oiaMhJBuJ1wsvXpWTmqFM3EO+nH4aeU5WV1V0MZSPgchUDQyuh03DhUHHA3OSP3M7SDeRjs7iDoYJiMhyInQK/HAMyIsz6RocPpxnFDtXtKHXuqKDTCDreMxJqtMXfFjTP/7GNyFLkLZhqG2lL/gjzhzIRyOth1VItGpgjIcvQwT466Jjctk+n9Q47ZhQ5WtQRzn2fhYK8lSbvsU7XEiLIvN/dswXJBYW9ckhjvHY7i0QUkdVWoQtSfD7YswnO5gOL4MhvO/C+39HVsbse5B1vIwGQlBbj/xNrrtJ3Jj0HzNHIup/8REyCaiLthUlWSiKY7q/efiEpDH4bRJe4rifqi+NXC8eHJWVyxXx0iIEdQ8iJGasY0YAWhCjsQW8PfT77YSCf3/vlSPwsLGzewRuBWvorgpo+Dp6fcomQhBZCbEnWvD+zdFa/NNMNGb7CDuxeJB9GMHUQejYCRi3ZrDVbA5WoAToS9gKo8ofr4D12NPhCuHlTHm8TBM6nEbxU1B6oqjsNgia5XUETeFqv6DERRll31q9kzjJJHo0qALLVNzXIKJ8u9O1xNwCdd0qjMi5LZTR6Xfs7LnT0vPl9CdnTGHOuZzLQw3jqJcDXIbhluHYbi2ckWfI46uh+FwxMOj8SRdHWwNvA9bE9DODqIORsFICHL7iU/hJ/rFmOp4XiizIp6rR5LbJrkzytoclJk4Pb376/S7Krqo6IBiShxR0k4bicRpqZ4PNuzvDPQBmuSdsQm5iW430DaqDRk0HZyViSJHnSi10O7GxJm9DCzb2ET0guj+dCq+wDrYApmN6fLzeBAx4FO/aowyGCUjkbcBln9Bp5MOpjtehDNM51BO+CewYF8HAN/Bffbj9U+a5a5oOn5iRn+b6leStdg3/R/jX5SJRKcaynD2eowhvRc/VS4tTITGagV8AypLya7/v5fK/JbmJ/k67x0o5gZRRtd4XYvh3gGYvUMZjk7gYfIVzfCuUMfXKOLmMBnOUTIS0Cz+xKEYDdsOHwP9bcNECAaxmRCt3Rq3RXkDLtHKVaiq6+D0/Nz0u41qQ39XxyUb/y9rZwaGCNG2oYpw9GIkRAw2whbrJM6tjoe/49jpQxOrwCPHZO2VQSTIVe51bUEIvgxFycTpeMTEDmZt/vzw3jAZiFgnjJaRgG611VNwgtvBTzdHhDIbYnYgn6RoH6Jr0NwVdaBx2ReXlDyUbmKqemNEzidmdUwXRClaFEfrilk8p/u0pLGqixCpcmPYXCgPxz5ZHU2hTg0Sc4P8hG5vEEl5PonhaJQUHkERp8Ug7xzK9GsHUQejZiQEuery+RTjT1yAn8ZFaxV2uknujBzKmImm7sl69xiKtP8mbE+Iqhv93S71/S7c9i23/6hiJPKDRZWtxQwMEaIubRI3SNJk9WIk9Pdl+AZflsJZ7RyAIdIS7MSxOvU2BsNQZ5TBGMUF9TuKOv3LMV1kVSjcYcJUMRKxPc3RGDZ3f8IjRP4F8444l6KIWKeaP2JEoSrVdi91RROQhGoVPEbER0L9OaitpSlHiEB92BrT1ctG4l+4gfPS1M+6nBUCzcFHU9mrsbnq131TUKcGWQfDuWMozw1yB4azH8JwWBE5/4ThuPo1p6L+YcBUMRKCSJeWxeyPYjCtJZj0S9GFlVSsH+hXzaE+roHRfNH/12X1RpiD23TlUpRejISeH0sxsN50Hyoe0KBB3w/n8KM0ohcjobInYpNWFVBKos+HYXqxJZjvdlnZvG/DZiLie5thdgILUv33pr69I5QdNQKOmpGo866YwE5yOi3kOuoOdtL5MmaAN6rcFTloTOTueQ31G5XGSllLf5l+Lw0nEH3LOpibmxiJv+GM2NJA5PK1XpVFU2XHsUySUnHJHXTYYvwqpnRLzCvhyxRP47qEy8dgOJ73q6k3SBuYakZCEL9hU0xasAjDs3uwjK6bZ+X7bQfaMxN67xSMvt6NzV8uWYllP4f1/4vZ/TpGIkolJEHdt0ffZmAIoAW6Ge4Guk26F5GzjJHQs7m4PvOF4XmEiEjxdFtlqDVMm4jYB/V5JezkFQM36YQziYlEp8r6f9iMRC/viqrcFVEiI5uJezFDuEjIR8E4RBCzsAUuEdkvPetFqB6byt+OG4xOJzMRCa+8M8RIdNK9QRnjYYDGaF3cxVaRFKv6pfv742OuIFCjkN5VMRYTmKGt6FdkhiNOX8zoc4NMFyOhPi+H2a7o1B/H4iaM5smgvF8D07Y2Eyr/JIpSpO9lzwV6/4W4dFj5kaJ6toyRUF3bprbuweOCzLh9jhjEycktKm5kdYyEJu3RuGhRCzRf6GCW3ir35/T/b+lWGwzbJiLnel+Gu3zqxP1MzJCvQ9Ewaypy1w+DkdA3lo1Nr9wVC3FDqGMwkaKYKZX5J7aZR45/1Kqe76S2z6c3gdf9ZYEr03tlLqxTCWUE9w5sXBfiTNIwpGyDgsZIrpNX4Gq9ujEXU6lMwt9Jz0Ypyo8S0/0oGmUuxHD377iU7W6KuNzB1sAv8NwgwwqKNR2MRJlbuzbskzHadhH+7X/F7SXUt7ZruY3NhOi79pc/47j/tKy++D0b4DY4jwrl6hgJPVNiwt8y4/Y5ZaDB/yC2CE9Lv+MGX8ZI6D2FwT4zvCcQsZmDGS52MFHVpvjmtXcqG5EkV2fUBZuqgpzjfjLF4Ez/Bt6EGwi+Lt3/PZbXQeWGmXOiDPphJOrUFeOYVOk1mH5QNgbx+gcWIOgVwC54fPvVMR/zDqbu+TjFIEJnYm54se/DXKQai51xQ7GmFtd6/rX07ifS7+lgJMoI7dVYiOi70rUrPjfTzUxojI7Hxu5rDfui5/8Pd8/dOXs2DMjX8k44TdKp9eO4ivJFmE5eYvRdMFz/Cob7+Xq4Clsrr8HWTr6xNlWDTIeNBBh9lYvlQtwVW3YIy2G0Tkb1HYwWxiBcbdeyvqkuyZzK7I0zdZvirrgXYLZqedv6rrNSubeGOqsYibhf/YAZt88ph0i8OxQDSulZGSPRxMBN/ysf/K14RL+jcAK7CtVMRD8ENpZ9CKZHjeGij8X10yJSW2Oc/O2YTvVEfNG9tuTbhgVNGIl4+is7Pci74gTKU23fiLmJHYJx93PDuy9JZf6En050evgCpgY6Gj8ddLDxHIbONUJkjnTCbRMTQuO1Dy7KHpX6pQ7KmIjrsWiRq+JjuGq6J2+O6WQmtFFKrywvjCb4rr5+G2fEh6n6imOxOYZ7GsM7MQZiJXxzkpRzApd8xqRUc7E1cAi2Jm6ke71cjK2l51MeFCuuxTLXxKlgJEQHYgKuuzD3z5sxWrYVxXlYF6N9MSz4l3Ga3LavTWwmVsEZZsUleQjO7Lw+lCX7/72pTDT8rWIk1JfVmXH7nBaIbqAKca1Ik/JsyBkJ3V8bPwXsmO5F0eMY5uIjFcVh6dksjJBek+7LIn87BmMi4qJZObUX3ca+hyO5+hGtfUV4Xp7ufSu8+7pQbphQxUjIurzs21fGFsnh2NxoUepaiDEDH8VEm2uW1KH6T6IYFhs8AFQHP2HOx9U/YjiHoXMVaFyV7+N2bONoqnNXmWElHusHqgjrdqFveYjsQXF+UNDY5Amv4rNe749hcyWR9TBUgnEtr4jhWoyEeTIuSn9KuhcDZIGHyz4p1VfmUbYmtkY+iq2ZXA1yG7bGDqd3UCzVPxXun2MUmYglmPu+3B7/RNH7Ls7FIynaq92M0cqVQ/k2NBeqcV6ePddgNF/9OAxXiaxJkSlTnU/ApaMKaKe9J2ckdD+6fUbaNANTAJq4b1B0A61iJHSi3RWXKkhFkCPD8anMPzFd5Hiodz9cUvEK3AK8n4iVkejthSN1Bwv1+7zwPD8tCbk/hWc8VLmTQj1l3POgkDMSB9GN+LMxovkG4LuUB4NS7oq9KEoLBNFIMrqMXZHe3yPdEzH8Bi5+jBKM52HjqXb/Crw0+562C1fMwmq4+FViybbqrHFGkwq9F/Q6nY3TnbRL8zBsz6Q2oLEpC4vdFNTPI1Md12KbRj+Gi/km9lKKNk35Wp6Lq02/nu4Jh5+f7l+B47CkFVXSvYdga+grlOcGuRZbg2/A1mQel2EMW8OjYiTKbCIW4Yefr2M07JPpdy7ZjH3ZleJa/jtO49XvJsxkGe5fi9F02WTtl8oovP0KuH3L8Vk9wpnlcWnGrume5rGKkTgO+/6y8O0zMGIQsu2LTc4l1BtbajKlUz0p/Z7I/j4Cs5zt4OLFWGY2FjY1LtRLaU5I84Xx/4CzQ13XYKcDEZaqeBD6/j3xTTlunl8Ldb4he6df0Ka3TPp7GsUFtxk2Zp/FE9/E6yYsm2nb3BXgY/YY/PS/bnhnDNNl5rpWjeMydOtcf45LpWI9TUD9+Viq6yrsdFQ1X1WgOTmaqfUh78VEaNzm0Z1GXM+mi5lQ/QqL/fH0u62x7zg2Z1dh3/DRrP5ekJ+ad8RwSvglmyaNl/7Ktuk2LKx9rGc93AtFGXrz/kSVWg4xN8iPKHp56foLtkZfhHsI6IB0GsU1PujJuIqJECMfN+fnp3tl3xXX1RyMRsbDyVm4WgCaHQ7iGoh5fTrAr3BbiFhW9lh5qOz49/8o2jxVMRKa9z+l+zNun9MAuRvoEtwNFLoZCS08TVquUxUSyH7izOw+OCF4ZWpvYaqvqWFlRJCHYQgnxL0DI4gxHXVdffr+9dO7k1im0kiUvhrqP7CkD02gzi1TicF+AfyMovdIBxuf8xksd4VA/a6Ku6D+vS89/w9mvBalSWDMx3G4zlUx/zcOZXrNo4jUlrgdxt4N3y2rC4rhspVueVTizSZ6Ys3HPLoZiaj3nWpmQmOyAr6RNE2gl4PKy0blTsojkda9CzYun8M9D+7GcGzdUEan2jVwdewRWV35ISga7NVB3RqNuUHOp1sNche2dn+Rfv+4pI6ma7SsX1BUZ8QEXOOY7cckxjyVedCV9UWwNkYzpZ7qYAeoGDum19ipvo0wWr4Qo+2vSPfnlJTV/Pw0u192uI2q3pyRAHP7VBAuMXUzbp9TDLJpUF6DN4ZnOSMBxRStcdI00XIli+nDcyR5JO6u18ESecXnZRCRf3VMnBpdGr+D5YQQND0Zq8w5qZ6D0+85ODJ+ObRzUIO+1nlXzMG+/0BMXxkXsC55V+zFcHJXxPfAmZf3Zt8iaclKuOrj6PQsn0Ow+RVx62AGhG+nWWRQ1XcKjgNtJRECjUEMl/2ErJ1hQhkTUeYG14uRiGXnM7xQ8L1AdSos9i2Uh8VuClr/SshXFSsglo9qtrdTDCX+A5x2QPdB5ZhU7l+YPjye+nODPW3qbfAqrt+y93qlSL8Dw+sDsbWe22g09QYpYyJiAi6d0g9Jz84O9feCXBL0cNz1uoPZJ3wAN8CHelxUXcKBDkbjH5k9Vx074AzZHuGZvnlzPEaIIsFCOSMx4/a5FIAmOM8GCibqyhkJeWKcj0+aCMNyOGHNo11GgqnT1z9xseHrs/KCSHQmMJ2uUmBrA3pWKN92c1W/jsC+X/rNcYptfym0+abs3V7eFZtgi/9zFPW+8boAeAsWXKmNuqIplG22ZYHB9E0vx09bWsj6tvy0uSdFr5E/4UHKVP9Y9hvg6XhI417ZJHtB7k307vR7VEayuSRifkl7TRiJ+M58pkYyofYUFlunwn5Pcerfk3B30LJYATnevBCXbnYwHHp+eB7xRn2LiaAUF2FW9o760sEMCtcI7fcDvdQgj8XWbszXE6+/Ymv/JRQzdQrKvEF6MRGzQ5nTsTE/PP1ug/P5nDyLIjPwT4zmqkwZs69nb0jv3ISrWsrWhsp/Dsf15fDv1yUvLu0N4IzEWeHe95lx+5x20KQ+FZugG/FsoLI7iIyEJu1D6XcUB74z1LEujhBlhPIfqcyhOMJJjC6EqkPwKzAEj6e/fgih2vh/+CLQ90dGCYquoZJclCHtahgh/SCWHTVXV9ydvuX9+GJ5dVZHv6LQKtB3Pju1V2XdrHEfx5N7/SCrQ5CfLN+Cn6o7mJvdo0N5SWikKhHhlbHcIBum5uEduKpIfRwWNFFnRGjKSMR3p0LNobYVX6UuLHZTUP8Ui0WxArSWY92PwWwPhCfXYbhTJ8lS/aend87BJSE5/kIxKeGzsjoGhSo1yKtTe7/H1vZvcKZH110YTfggRiNWoxukRsxtImL+CX3navhhbKd0r5/vjGM+C6OtkkrWHdj03po43r4Lo+2K3ZEzE6Kr6+JuuO8Mz4UrH8L2mlNDu2IkJH1ZPdTxlNC3GZhiEEKujG8Cz0j3JO6XLcRaONJq0manOjbET7pvTs8iF58TyHmhXUkYjkv3FBoVDAG/iyP0rdgijAtwEMQp+/6nZ/XGE8OXQ1/eEvq7HSap+D7FzVTX34DPYwZSm4b2lZb5oNTGMvR/cqoDzcNR2OL8dvpdttHqux+H66zriHG8txHwaVxseQ/mjifdrfpxQHoejeUG2fT1rsJl34bHDBkGMxH1wE3zDbRhJGIdo2Qm1O66uFHtY2v61KbeKmNd9Xt9DBfuTc8XYrgSM3jW4ZeY4EUYblaV13d8G8N1xTEYxUl1DFuzs3Cvje+F55tikpPPYzQgpwvXYTTjIIyGiPbFYFMd3DtDTIa+exccF1cKfeoX4niuhtHaqEL+Ls4UEPp7XHr+L9yddB69g1a9OT2/BcODMfwbn4IfTGUbJlucc9LvZ+LjOIzvn4EBQJN6MrbwPpZ+60QqS9jnpd//wSdNi/MruFhb1spCiCrCKN2hgiPdgxnOgFle5wGRyoyAhoE0Ijzfw6UtkUDkBPbTeLyFH+P5FOL1n1RflZ5UTJaIxaizf2qjlttXr2BbwgnN6yXUW6Hnp87HYQFl4ngcnMqshOODjOUG/W71qSxc9qAbcJREyDL9OpplQITmjESs65E4Q9rGo6kXqP7dU91X0jssdtu6o7Huiun+wbiBZAfDjcdl71bh1TiGe1KDfDk9qxoL9eO1uISgCm+HAWpPcSROp1xiEe2jvkdxPHT9EwsI9zN8g90l1KFDjQ4cH8Zo1vfC80EhX8tbUvRguxOjzeul59viXnqSmojeVUnvJK2ai8/rV9IztR3phFx/ZYR5bvqtg9HJ6feMNGIaQRMnl6o/pt9npd/7Ych1PDZpijwoZHk83SdXcarzqT9dySJX0o/TMZ1YdDE8C5eAqL/DJAqqTyeKX5eUWQPjfj+MIXFMDNTBjMXOwTbGnbHIbjlEdYW+X6LLUTISZQZMW2XPyt4Zw07gkjTJa6VuseYqqZdQdGP9DW5geRk2ToPYfkRQuycxvHDZbWwicuiHkYh1zmf4kgnVrbV80hDqFGjuV8WZ6+9RVEn+hWLEyV5zr35pbd6C4WSdBCvaU8gwfPPs2TAhZySiKrBKDQKG+ztjNONsugPMLcHo4HsxuloWYE5jeyDdDMCgkNf3FHxP6KS+vZ6iukn0HHqvHe0RkjQtxvYS8L1FUqVPpP7sh+8J4LFjRhU4cAZaQL7wFmJiJln375Wea0PYP/0WV/mrdP+0dD8yEXWW6GM4wmxHt1vVZZh19Fh4b5iEQIRPfXgoJja9G9tod8Dcx8pC6k7irnOL8E0rQpkRlWAqGQnVuTcuNYpzUAUqIzuWGzB3sSZqiPjNy2N60zzr6qFZW8M6EevUcnGot5+629pE5NAvIxHrHqaaI66jSyhKG4chEYp9OpRi1sebMByIbrlNcWhtDPc6qQ7ozcyCfdOfKdKwUa6vXpEtexllb4Z5gSgVuKSeuhTy/m0YbdoakwQswr27FLl2mAetePAZw+hILoVdSFHaEHENqj2ctFeclp79iqI0WxFv/5J+74VLgjfEo9nmBuEzME0gQiAC8zL85PgCTKc6STGULvjE3oXHeId6Aphzuo/GDGqUBnchZqy0cta3YX1jlURjG5zxKQtCcw3mInUA5i61AhYVUxujiJxUAHUwlYyE2voqNocnNGxLhG953HBKkfOazkcsNw8LXKQN5mbMla9p3I9eoDHfgsHDZQ/KRMQ259GekYhtDIuZUJsPwzafhbQLi10FsR9rY3OqEPWLsTmfV1G+Sb1aY/+gaN1fBxq7T2I4L7H5KETfTRmJHGQPIFWFQtFPYjYRW6U6v4OnFYiXaNR/Kcb/ifUP6u0VIdazMkajFTNiCUbDy4yre62lCexbZZS+V6jjIdieM4ntQS9IZU7B9qgOHmtixjZiKQAthk9gi/8LmBGQ9FMvTf9Ht89V8Ih2Hwt1VRG+XMS3EbbQZXy1GEOmJbjUIxpetoV4Aihb1OumbzsGsx1YhC/kDiZq/CUWH/7JuF1IDp/EF7eYiV7ql6liJKLtwBWprT1atKV+vjC9ew9+mmhKlHUCe0p6/25cJNnBJDtvxE8h/XrggM+5PEL6CZc9DCYCBmckYlvDYCZUl7wL/shgtgNxnsoiJf4Rm+t7MBG+1mIT0HfNx/XvL8ie1YHaeX5691943IVhbzj9MhJx7KQemMTtDCKshNGgwyjm2RGtWoTRsKMxmrZuSR1RtTrIGIgmvwqj1Xfhh4N7MXq4USivdqF6TUExwu0q+D5zfrr/UtxO7/vYHrUYN9KfUWssBaDNVkZY/8EN83bD4yh8FF8AH8I3gjXSvV6GlWAn+XdQDEJzBqbeUHryWzBjnrbW/BLDlSHViligokOxMLy3hPY72KIQIfwPRe8KQVyMUeR3QqgnxjCoWrBTxUionRgWW0ZSTcdV3L7cBX8S7vcCzd8cikZVY3TnRvkdpi8V9GMLo/HrN1x2L1Fsm/kZBiMR25zPYEGrVO6b2Ngo2FhbnMslis/GM8eqb69M5b6Kq9MU5K3JnKqvigvyi+x+L9D4NgmXPSj0w0iof1VxIkRjqg5Bm+J09lq61SC3YDTuUIzmrVDR77bqYs3fenjixrdhtPuM0P71GI2P7fYywFwDp78KLzCOJwA7EduLOtjeJGPV3amm+TMwhRBPFnOBn8LYCTD2FxjrwNgHMN2dQkiDiaLuwCbyNene9vRmIl5BMSjTJRSNr5bFkexz6V4T476yTWc89fPVWDIXSU/idTVmPPo6zEZic+wUtQgTAcuOo0p0FkV3x4d6Y3r1svemipFQfWLQzky/22zQ6uujcDuW3bJnvd4VkV1AMZT2ylggnZit9dsURbVtCL/KPhdXRzUNlz2IYWUZDIuRiG3Ppz/JhL590LDYsew2eBrxDjaHh1PMlDkP33CUr6YpzuhQE6Pkthk3ffNZqZ6m4bLbQltGogkTkUO05xrDs7behdlWPBSjYd/GE17F60qMBr46vZuPY1M1iL5JwaT+RjGA3ospBhn7Kx4qG6qZie3T/deke3fgBuE7YHvP5bYXjXXS3nQCxmhKQjKIJHMGBoSA7BM7wewTYOI3GOJJXDVpkzdrEUwcgSGu9HkXppe3p3hampe181SKibX+jbmERdczIdludBOQaOxTZ7C0ASa6Px64iG7vilux0817sOh3ZeoKJRQ7iGaW0JGZOC60dVi6V8ZMTBUjoTH6MTYWeVjspqD+fh4nEMtSf8LUwo4p5SODFQntFhRdzO7ATiJrhDJNJSCkNhekuvJU92UwLHVGhGEyErEP/ag59OwJ+Im1TVjsWPea2NzoINHB5m6LrLz6qwiaMXV01fdrfS+Lx11ocqAoA7V/WKrnR+n3sDebNoxEVGc0ZSLytsawmDUdzDgxh5Uw2vYejNbdSpEGTmJ0+3iMVm5Q0c9cDaLv2YHuA8WcUG5ZLGx39Lw7G9sDIsyjKPUTM3FhuvddYDPbc2Ytsj3oPnq+GLjC9qrZJ9jedR+Mwg5mBiogqgx2hFln0sXFrtCBVTqwbHZ//E4YW4Rxw1tiJ3epKS6lqBLYGk9N3cF9kKMOb6Lkf4k0lVhqDuWLbBUsKuXhFHWHVYtm/ZI6RPS0GBQu/JT0vAnhiczEMaH9w9O9nJmYCkZC7a2Bn/j7DUUdRZr/o9kJL5fUXI6nlFffckZtZ4oM5xUUQ/Q2EcXquXBI3iG9+tkm2FQTGDYjEfuSMxO9kt7pvXend5qGxY7quwlsLq6kuEHsnLUT53acYnbKT4S66vopCdpN9KfijG08GZeYiDEdpp1EU0aijIlYTHMmItZxKkajjsQPYVVqkPWpP1zdhtHOwzFaunJJHaKPUK/ijP+vS3csoG9QzJ2xKR6b5XpMCrElcJftMePx3bQXrZL2pny/mvVL3H10UDuQGWgAcVEeBhNJvzZrCTxvEZy4BC6ahOs7cFMHrunAOR14Xwe2CS5dEzdhrkASlV6GR6lbFzu13O7l+Ta9E2tpo9gOl4i8KDyfjYl334BJRSLXq+tfWFbQV9FOjKdF8HScS145vNMLIjNxdOjPEaH+nLsfJSOhNp6FS4HKwmI3BfXtram+/1FN5NX2w/EwwXlK+Qi5i9l+FBMinYfnb1Bfqr5B/WwSLjtKIkTQBlFnRBgFIwHlao5eQas0VspQ+Y6srrLy8dnTsDnQfFyOx5dRm3Xjq9TRd+NB58o22pxZfUuPftaB+rYirk8fdrhsaMZI6NtydYbWRMyuWwXRY0IHt7qcJnXq3ldhNDLmLdJ1LUZb34DhWOzbi3AGaDuK6za2H+frERRVYLdje4MOkxvi7qTXAvukvSWV33ax7T3npL3opo7tTRdN2l713EW+h00swSXBM8zECCFsdmNfhvF0an/eYrioA50e18IOfHUSNhQzIeS4CM+V8SaKerrzKEZnyzfwiPiRGL3P+nZfPIkvUJ706kZMbPk2LFre8nTDREm7ZWMDFlBHcSN02mpKeCIz8fHQx/ene7OyMqNkJFRXHha7XyJaJnb+fEWd+q2cCmfRzI03ztHq2IkrMqP/RzG6aVl9uve49M6tlIfLHrZNRA6jYiSgnc2E2lqH7rDYdeMHNtb/R/H0eiSeFbLNnErS9KNwv6zdL6Ryf8VstgbZEFTndyhG7R3FOqtiJKqYiDaSiFjfU3C6t2q614uuif7lsDy2Tt6GzUseL0fz8AU8fsQkRpsF0Si0jK4LdqHIjF6N7RXj2N5xEYU9ZcMOfG3S9pxe+9KFHdvDmLQ9bexLYcxmmIkRgJiIY9OELYQPTfqELO7Aog4s6cBkupaE+yr37w48adLen5jEMkA+jWIWyMuwgDciZNKNRjuHMuReE8v38WncJTNed2N2DB/Gok2WRXyLjEkbRFJfteC1YNoQnriA5NLUwbPTRf3xqFUb43hisGFEf9N37ZbqLLNj0V8ZPC7CvEbis6btgJ2gvklxM/sARSKan8jAGB4Z2O6W7unbR2ETkcMoGQlobjOhcjJevJLysNiR6K6KjXFUFX4TN4CL9fcClXsMvp5zQ0/9jQa9u7Zspwz07Yraez7DP6nWMRKD2kSUtaMD1mnpd1sD1F60VxF8f0130jH1/9MYjW5Ce6NNzDi2J8SAVhdje8cL0l6y0PaW/4T9ZlHag/J9SfdV7kjtSR0YOyb0ZwaGCGETEBNxTGAgljTg/CSV6HTgzg7smJBhfAGOGDdhhj4rp/Yk6tKVw7IYkXkL5k+tKHY58n4H8yXerKSOKq64Lah/B6d2zwnf0Abi5vYR/DuOTPckLhwVI6GFuxkeFnub7Fm/UGXHorEfx06Sf07PT8zeawplJxoZwnawAEX7ZP0aD/9DebjsqWAiYPSMBDRjJlTmE5SHxc7F0/vgAcg62JjXSRSbgOr/UqrzzxRzt+h5Py7GdaBx3gZzkbwXpx/DnoOckVCExxgnItpENFFnRNCYn5vqenPWfj9QJQ0WbIbR3O9Qfqi7Afu2t2DutcuW1BFpf1TPvIdC4L/xZBT6hLS3xL2m16XDbqcDxwRmorF32Qw0hLF0rQgTVwGTsN8Sn6zJhhMWJRedDvy3A+skcdL4HRinOi+0WxXl8aEYwfoqRV24rmuxOP0HcZ/I676IjIJhMA45COG2x4juHbhVc1vCEwnkh/Fviz7SIjDDZiRUzytxwl1nV9AG9E3z6Q4WJFesN6f7N2Pj14+xnCBudLOw06UkDR3MUGynrH8i0vvhp554MopMRL9xIpr0G0bLSEDvOBMaP0kL9033Z1MksDthKiiN65XYWEcpziBzOIbpw2X4q41QOBODnj0itDkMmIWH+H9luDesuqHISIjeVhlWtmUiNO4bYMaLk7iXwzA3ychYRDgB7lNhvwmjzbKNi9flGE3fB6PxOYxTDDI4D/i07R3jaS/5b7bHNL0mA+Ox7xJgEiauxIx9NR8zMCAkxBh/o7nRrL0IbkmcXFNJRH5J1fHFSWzSbsYDkOQEZz1MVHkMFvEuxuHvYK56Z2Bc6pMpumU+I5TbiWYumf2CkG0ZnMHRJtmvwZcWugJ4dfDUxqcxGkZCbX4ZIzqfGlH9iur5D2zuJzAjKula35mVH0abYO6dR+FhdTtYoKvNs/IPxUTli3CJzCaMxiYih6liJKDaZmKTdH9bPCz2FhTH8iF4ltcONqZH4ambYTjzpz6+K7VzI2a3MYEZREoKogPDsDZI1fNpbC18acj154yEbEDmMrg6I29DIaL/gW/Io9ogdfDYCceNZ4Tnirb5Hox2L6BI0xdjtP4YjPavRxG0BlaEiVuASThxsri3tL20n93cgbWSy+i44peMas94UEE6Ec7+AzAJhy0ebMLEAS7pwD0d2DSJvWYpQ+SqOJL9gt5IVhXSVS5Hp6b3fs3oA49EMWzchAcxUtS7H8TH4L14PI5hMhIiLHNxt7tBmKGqNsYoJlRSjAoFq7mU5rkR2kCch4fjY9jBTrvvxRnReBJ/GWbUJf3sKJkImFpGAsqZicuwb345fqLU+K2EjVUMBvZdip5Vwz7tjmM4oTn4bHr23vT7BoyBGeYJMt+EL2e4m3DOSHwPG7cfMhwmAkbPDJWB6KzUiaem+wrQl8O69D4sKobPk7nPxmnWQfZ8s0Vwb8ftIPrdl7SnvTcZX84edRr5Bw0EffnYQpjdgb9OOiPQ74TFSXtnQprZp2G6WIlY43UV8HXM9WhruhfVHGzzW4ZiMpvZ2GlSOTn2TuXnUtS/Deuam9rcN7X359S32QPUORuP9R/VHPJIODi0PWj/l0l/H5XqvhvbwGbh/ubDGqcxLPhMB5vzl+Dqjpfgosxhz1EcTzBDwgvDuF6Gi7DFvJ2BG57emMaHIY152aWx3hxnJDYfwTzkc0L6NkmFfo+HL5bB714UDd4uSGMo0BoYdv+k6nwJjpsvwd0ZD8FwaphzorGel9pThN64VgYd81l4kKifUoydo8iOyw7QxuzUV6ln9snaHhUe7Z3auxejwepH7NNcitGLSc+3xmj91ymPKnwd8AmYnaQ27xrC4VZSickO/GUSZnVsz7svttEoD6APeJhlf+Ykq+2HLW6vf6qzlZjswM+SH+/4RZg4bxJzG/oqtiFvPoTveEeq92rsVDNqWAWzkVhMed6NQeBNmAhZBkyvri3dHyROnx+PoO4clEpeFvenTEGbZfAKiiF6T8es3GMugr9QDNM9algFZyRWmcJ2N8Y3ng42BkfgdjkdLET9K6oqGDGcQhFnyqI0Dht+kto6sFfBPkDJ0LSmb8Ri0gwLNsXm8A6mBo+Ww2jtJB53ZBDYHNsLvortDZPA6TCeJIY/W2J7yTD3pi3TAXeOmOSl2uhy1nR3oCEkfekmHRvPJQw+rpJAbjxmzN7kmjD2a+j8EvN4+A9GKJ6EWX6Lc43R1XrBeCo3BzvtbojpdM/Gxn7JgB+Rw1hqbwyLQbA8thn9OvVhkPYk3r0NCwajNNe7prqXwQlRv/WPpT7uneqZjRnNLcPwx2oCm5Nr8TETEX19anvYbeagMV2CjetpmHh8VSyh1LNTnyZT+fMxXFwBG2v1edigPq2Bi1XfhFmqT4T+DBP0LbOxDed8inE3pH5ahIXJPi31842hT6MYiwgTqX1JTNTna4HXYifcUeDpvdi46EQ/me43pUNVMAv7nqek32ImLsLsAt6MM7L9wARGQx+PzdWtuBH1KHB3AmN6n4zR2rsx2nRgaq8J3ooOSQKwMNWzENsXLgeeAGNXweR2VmzjseFptLS3bdIxU6H7bIVm1BsDgCQShwEdeOEi59gG5fqkGrlmEpbpADfBWFnQqPvzlYeUnbnuP2O1GKMqS1u/pmtultCtu57ua2ZuHrRjNfZP4CbbO65JhpaDqtvj3vbCdCibcxgGS/Whf6nuXIB7C3+GCgtJh4glmHHb7Zih3yR2wliW4omn00cjkkw8Ejtx3oFJJUYhrtKpfi08kM5Z2OANg6tVHY/G4//Lqv7nuA9623EawzaK9bFxuhvzO1/MaLjxMWxMHp3aVJ//haeO7meuB4FZmJRkI8zwUN/dwcfndmw+F2MeA6M4iQuHlsdyGIC5qt6Jn4SH3d449m2zMGv7FdP/+nbNz4WY2HouNgZTCWMYnm+Lies1P//GJCjLMBqc6WBj8STsuy9MbWp82sI4tmbn4t5kszGJ0+/x+R8UOtiY7JTq/x1mlDoKHALr85Mxid0N2Dg1lURUgXBTY3IPRjeuAfazW4sGqL4K7u36Zwb6h8TozE6W2zsko5ZBLGNzzu+8RIjH/opZ7V+OWWS/AA9PPCzYCUPqu7HwrqOEFTER8CQesGiYIPewS1IbC3GDuEFAVvDfG0JdvWBFPOeJvET+OgXt1sFquGHlVVjegHgaWogF2dm6qoIhwlq4jcRaPcoOA7bBvk22B7pejxu9/R4bo+kEhVkXzlyLu4+PEk5J7b2nV8GGEKOudjAblGHDdhh9uBnPlzMqeBxulLrTiNpYGzPu/SKM3Wtt/SrbUwa5tLdtLyeAl6V27y+H/qUS0ol99nxgElaYtBDXwxAjycL26KQDnH0mduqKC2sRZkh1OJbGODeUlGW1AuQo8E1+RXdQWUVfhHt2VL3X76WgMTLQOiy1scyQ6p7ADd/2Bg4IY3ZCarvNd02E6/xUzxtwz4lhjs14mAulFv8TFglPCZI+kJ7PGUHbdf3ZBI9JcAOeJEr9+gPuWbIY+AzF4E1ybxu0P7NSPZvijMSmFCMJDnJpPYynvm+cvkWqi3vSt3YwRo80FnLX/QeuO57qOZInzb8xnJGBrHK3jKI/WgNy0/wdxTXTdl6XxXPJ3Ab8LP3/Yzwo2jD6PAEcHupmSHXnuCQvjItSW98Ic9FrfCZCHWXuoStiTMn7sL1AHngd86ygA0dne8qg6vZ/d2D5FONo9vzUj6Xa2HJphxBkaSKpG76wZLiT9tiki5r9QczI7TnAcRQt6HX9HYvNsCvlJzQt1DJR/Hi6vylmdNRhODkkykD1vT21U5dFsi0IoSWRkBX54fg4HR/KNlFLqF/zsBPFEjwmwDD6HEH93w4/+b4w3dPp/1ZcdD3s9qv6szHlwabG8eRTH8RO7SL8HYzJOBiPLyACOQjE+Rh2HInYv2Uwt0kxSh3s27bBN+yTQvn59E70NQrQ2t0Mz+GhYEHKKnkvLvkbdn/0/Y/A1sbdFBnIpnWMUUzAtQQL1KRYHQqRPYz+q18KHf629HtUtE45SZqsXT0Tvc5hHha75cuUZxn9O3AMzDrFfj9uyXAPt59XdMt/YvM1E91yCJAQZSIlkXr4Ine16VfFIRHU2YnrG78T00tHmI35bL8D24jvoIhMN2Gn8jdhBCRfIEJULWBwpD0C3zDWyMoMA9TOY/FTR1kWyUHqjoyE6jyU/pgJjd3L0rt/w6Uqw15A6r824zPS79npuoDiqWaUm1QVE6ENST7xCpf9p/Duiym6SF5IMZ5CUyauDEbBSMTgZtAdP+PPeGpq8Hwn+6bfGotHMvXMhOqWNPGPOL6Ax7r42Yj6onmcjePJS9O9Jhuz5ixPwCX32TczXEZC7a2LM15tk981ATEEa+A4cXhFO8K/svFaEbM/eS9mf3QnRVp/Kza3b8PinEgyvU7aOyZtLxlEvaE9bUkHtk2H24lRZHx90EIgahN3AUvgE2nSmiZGySURmrBHTQKLYeJG/FQKxZjqgo2wADRfBq6gm0v9MybW3w3To+WgQCgKqytO99j0fNgLDOqzSPYLOSOhyJYaM4UR7lAMGVy3qanOL2D6zc9l94cFqi/FJWEhHvdfouun4V4CTxpRP2KdVUyEmFAohsuOWSyXx0J5xxTK38ekLYJZtGcohslIjFHEue1TH9XfG7FvWD6U2ZpiWGy1q3qmkplQnU/GvWiemu4JZ3bApVu7jagvqu9zqQ9faNhOFRPxkvC8Ko14v6B50jq7kvKsrYOC+nlsaudfGG3N1TllOPswLOjUNygPOvUXLBrn8+kOkS14Udo7FsOjJ4t7S9t9SXvZcYn2TNxJe6nTDPSAhDDj74aJDiy7EM4LE9BUMhEzrb0xIYxyyNPBIrvtGNqV/UOO/CtgerP3YzEagt6sIK04CBNHliGC/KnvxvS/+YltUFBdJ2GE57j0e1SMhKIJgm0MGotPhvfKiIjuzcEjFupkOkxOXKeXZXFjuZxh0d/vpee/xXWooyCAG1FMwBWZiLzfF6Zyr8JF1IJNsI1FNgZ3YeF+o7FwG9waFiMR21wn9Uk5RhanPs8LZSTGfVUqcwHd0rrITMREX5IoDpsh1/z/LrV1ctaO/sre5q8Yjg1byqjvVmTNS3FGpqqdMiYiJuCSlGdUjMQnKM/aOgxQXdviKcNfRvfaEKyFqa2PpjwM9o3Y97+ZcglzTFb2BDyDcNhD3thxqURTZiIm7Dq3A3NT9s/xQ7PvnIEhQBBLjZ8NdGC1hXBWmJBFnfJY5xIZRZuKt8V0rW8CPooHU1oCfJFiREhxtVU6tS0w8fM3MNe0nLu9GNvIn0tRWvHj9PyHoZ1hER8tBInFL2I0NhIx10Y8fUZmQjk/yoir+vRIjOjchW8Kw+TE1e+3pj79DztpRF2q+vdQXLwp0fqwmJpeNhF5O/p9DDY+UeWSn/afiKnhNO7XYPMjItjUfmJQRiK2Mzv14ZrQr1+kvgqEO1GFMIkRfT0nKw+jt5lQO/umNu7A1noZzqyP4VQHS009zH6oHbBvlGfC/OxZWfloE5HnztD3DZORiGrcixnNGlL94Eaj52bPZ2OSuTdjh7ootetg43cBhmPPodrmLTIlm2F7g4J0LcL2jjenvWSh7S1xTypTwSvFQ9yTzurAqkmqNX4W9fZ2MzAAaMGuDeNJf7rMQvj4pCVMySUPZdlB/9GBXRMSTAiZJCLcgWII3huBd+NJlCKhq9O3rYRb+Z6HW9nr+h/GQLwJeA1+Qntuel8LfFAkKhOLPzR71g/UMRJk/78D/+5Ph/fLTpgHpXIKNzzMBSTcWReTFnVw46+caOr3R1K5q7GwvsM4YbZlIuI7zwv9kY5W/Rmn+B2vCPV3MJfJ54TnvRjWfhmJnLF5Du7Kqs0+hrWWRX38luVxpuO5oVwOo2YmxCysgh8OPlxRt36/DZdIrkuR4RgGyOhOyahk6FxmnwX1TET8O0xGQm1vSbl6ahDQeGpzfy7cZ8PwCIyZexHmARTth3T9G0vu9jpMfVZ2qNGhMdKplbC94KZQ1+nYngH3qWQlmdh1ie01Tfakeztw1KTtZXRg/E948rcZlcaIQAO7NozJwKljxinHLoFLJ7uNXW7vwDmTcMBiWCGJsyYWA9/COcvvhDb2wERfQpi/Uk38Yr+qpBWbYmqMkzBdYY7cyltxKcbx5iCGpR+kysXi+6f7g5wMmjAScUOR50gHW+CqI26CYBn6JvFYFKM4vXwW33CqxM86Ta+Kb2gfyuoZpA85E1Gmzoig/q2FZ6KV+q1sQ1P5FTG337oMmVVttmUkcgbi4akttavMpiuG8lWb8Y7pnQX4KbGK6RmlzYTeVaK6a3CGMh+DqDa7lG5cHxboe4/E1sop6XfsTy+biDKGf5iMhOrcP9VZpp5qA1WHtglMRbkEY/R+iicS1HU3xnQdidm1rFrR35we5Ux5jHj8R2yPEHwHl2R/CybSnrLCYttzzp20PSj3zrh00vasbRZ53WM/x3F+hokYMQSR4vjbsXzwaSJmdyyx186LYJdF8PhFsH4WmnXid5jhFHiymg7wbRyBlsUkBv8Oz38Z3oN6nb8QP38un+QjMFFcLq24C4t4+R5MD7d89r4IdlNphRbfsRjh+b/Q936hCSMBxc1FJ7WcwKquVfAYAU8Nz4cBqmc73JZlj+xZ1TtSC5WJtPvpQ7SJaMJECNTmz9O77+rxXvyuh2DJhjT+d2Di2DUqysf25tGbkYjvrpHqjh5OX0l9qGpLoG+R5488IHqNdxUzMYjNhDa+LfBvkXi+F848P5UfhTuo6nlaauN6PAlWxM0qm4gqFdEwGQm9+3WM5hxb0XYV1NHPMUyS8BrcUya/LgVOxFxaN6UbyrzpYruCnXDXVUkz3oQbjU5ge4aeK3nhk9MeE/q0waTtRbsssr3pYYttr7pvT7rZ9rKCumwGpgAiAmwEE0fArEuojMU/djPM+iGMKz00uN74VaHstygaV66DLYS7KBJGieqgmdV0lbRiM4zjVeCo/PoXtgnsRbm0ompRCLR4d031XUW3WLwtNGUk8j7INqGDSQbAx/op6f4NFAnjMED91Sb88+x+GZQZ2X23wXt17UdJxHXUqzNyyO1O5LJaN0a5lGBnLOmQ5uBKLNGU+hdP2k0YiVh+ItV1Zaj/nNRm/IZe/QXfIN4Z3usFUc0RDTD7lUyo/MmprhgAqon30ajcQdX2qrjO/ynpntZSrs54cXiew7AZCfVP2Tc7GO2pq1MMUBWNXA/zhDmOoruwrlswO4mDMdfMMkPLXoev2O4WGI2Ph7tjcMPlMWwsvxXKvCo90xhP2F4z60e295TS9kUw62LbuwqhB2ZsIqYYcg5yHOZsCXN2hWVeB3PeDMvsC8vsRLchjd7TQorMxDfT87jw5uNERcj7PlxUViaqretzTlQnME56CRZ29/upjYh49+BiuqdRLqYTscs3hHVwf+7HhbL9QFtGIj57C/49nwvPP4idXr6f9XtQUF93T21Gd89e36/nO9Ht9td07Pqxiair5/Gpjltxo91ehCcX1e6LR8/sYDi1S3geCfo8uhmJXMy8C66z76S698n63ms+I+N+K/3h6bBsJlTuqdi8K39Dkzr0fHtG5w6qsTwNw8n343PcyyYih2EzEnrvcdTjaZ2N2QqYNPZdGNO/gCIdvBuTEi3CvLw2rOhHE3VwZC5WxWh6pLsn42sV3H0/hhYXE6FvycduLduDltk37Umvsz1qzkPp3gNmYBpB3GyTcmVcaWQmpAb5ZigfGYrn4CfUDobIe4fnTYhm3idx0NrsbsFiBayT7h2Hh36N138xHekbMWTPTxw6keq+rPnfkX13W+iHkYjPIzMhQ9dz0+83Ddi3CFFvLXdPSULabioiHH+kXgJU9u6gTAQUT3pX0eykV9Yf1bMaxrxp0+5gouiHZeXnUWQkYlsPS+/o/VtTnW2Z6/gNuzGY5GxQZkI4M0hgMpWTO+jfGK47qL7xzal+GSc3sYmoqmtYjERuZC3JmQ44ZZv7GMWYDldSLpn9P0xd8WLco2r3VIdcz5uOcRlzLddzSaCicXIM9y9aMEk3ExG/qele0K/92wyMCEQEhLBtvB+qJBNCzDjZc7DwuFeHsmfjIkYathlBSC3f5LOy5+OYv/TrsRgHEt/G6y/YRvlCuqN0ghnedVIbqrMf6JeRiKL2Q/B+n4pbQ283YN/K+imVyk10u3v2As3/prgh12uz+uvazpmIpjYRdXVK93xcn3XFfm9F8XQlZmD19HwTnJHYJN1bnW4m5BsUA2W13Yj0DccxuC3PIAaYevba9N5ttA+VLpxZj2530GEwyOrHdrjofTNcYhptIsrUGRGGzUiob6Jjh1G+oa6LMcLHYgybjN4jHp6B2cvsSNFWTO6eomNtGfL4bU/FaLfavRqjsdFdWtLjyESUSSJ6tZnvScNiLGdgKYMym4nITORc7FqYYdntofxJuIsltD/FzMcNMF9EdXCV1YCnY94Ev6E7INbtWAKy92Ki+eUwS/olmKhwTVxa0RaZ+2UkBCp3cNbnvzG8uPJlxPytLfsp0Pe+P9Xzb2wzLbPej+U3wi34B2Ui4nuyhr+I9gyrICeou2An23gCfAX2DYvStVG6F3MP/IqiWmTQ/lyU6t0v3R90rCIzcSn1BpiazzXw3B/vqylfByo/CndQje9c/DBzBc5E1NlE5DBMRkJSh7UxGjOJZ6hdEVPLvROzG4nqA10XYWH198DcOCOIJrw0lb0Hc/ds09dYbkuMVkd6+VGKKvC42VcxEU3GeAYehFAnmYgbRyRwW1M0vLkFI0CrpOdNRbwqcwKua14+a7tKDLY5pmL5Kp7aOF5XYCcW2Uk8J3s/Gjs1Fdn3y0jEsm/GTlSTmJ5dfRmUkVAf5e45iHhZhGQlnGB/PGsnb3cY6owcNO8PxTf3QeOC5AaWr6UY/v1PmK5/IcUkdleksmWGl/30ATzuwCKGE3egrZpDv4/Gv3ElBsOZ5XA8GKY7qL7tM/ic1Hln9KqnH0YinrTjPO2S6roBO91/lfKUAldjdPO1WJK2MpVHPMGvAFye3j2hRT8jTVuFbjuIb+IMD/iYRLrbjyRiBh7k0EvNIaTMreKfiYVU1juXYt4Wgl46M9W9FubW1cHcQGOfYtkqY6XlqOf+JzE95MeBZ2HSiRzqjJWGwUjEk1k84Z6Y7g3CTKh/29Hc3bMX6NtegYuTJcqPngswGiZCoHm/MNW//5DqjuOyLhY7Ibo+6/p3erZuxbv9QL7eLmT49gTzqWcmNIdb4+GWX57V0RZU9x6pvntx1d0gY6axWQbz9prETugvS8/bnJLbMBK9vCvWwQ4oZ6c+5R50t2J2Wu/BctisVFKHpBpx7tXH96R6rscDNtXhSC5B3puiHcRvMZod24m0fRB1xgzMANCbmYgbbDyNzca48Gg/cRamXoh1Vy2AfGEvwIheL5Fo3QKP+shora/rRixK28GY+9TckjqitGIYjIS+ZT5GcKKO9EuhTD+bifrXxt2zF0TjqfNSvaeFekdhE1EGqudYjFh/PfRhUJigmHH1/7DNT54L96Z7mhMZoA2jXfCw2Mek38MeszqbiRynz6XaOLsNqN5huYNGO63T8TWzELOTaCsZ6sVIRJuzHJbFsgu/DYvUKxWiriUYU3gcZhRZlvgqHljKxln35+HeG73oTX7A2wmjwVES8vpQJh+zXuqMGSZiBlpBL5uJHPEjcVgTOAq3Lp7ENsjNK8oLhMBz8Dj1X6spXwZVIkcw6+jFmPj4F5SLHC9LfX0lxUBCAllIi5ANotp4Q6rjbJyYdbAMq9CemRjVKTC+/3j8tPXM0L9+g021AdW1K04UZYjW74aXn9xeSTnDqesfqYygl6StDtTn5XHm+3np3ijGLWcmZDMxhknnpCJ4fLo/LJzZHncH3T171hTKmIg7cXuOg9LzftZhZCQmcFulHLbEPBxOolyFej1OX55WUoc2+aYMmsboa6n+i7Dvr6ILcUw3x+iIPPHuwGjymhXl1b8Zm4gZGDrkBm51kgno5oYfQTH+xP8wEV0MFZzXIeR+Bk7YnpA9awO5rlEMygswNcj/S336JW5DEU86vwM+BjybojHSKTgBm4VnImwC+uaTsYX+0fQ7GmB+OZRtQnQ0lsviG3pbd89eoHq+mur/U/q9Af0Hm2oDGoe1ca+Jfje93HbnCbgUR0zKkRgzdm/6P0rafo7jpdrv13BXYbFvpXl8jLYQ1RwxaNUG6b5sQL6S9W1QUD2fS/X/DZP6tWGSozpDUpMl2Jo8HFtD3w1lm8LsVP6gVOf3s+cxGFSZd8UtmJTl3cBjsJN+B6Mxguil0AY0bk/AGfdnZM8EcSxXxOhZlJCcjBtnqk/52FdJIoalPpyBBzk0NcCMkDMUzwP+EN7/G66Dhe6FpoVyair/a4oi2H5A/flEqvPrJWXWx0L8noAzHPG6CRNjvhnzFokLLbZTt6no/kr46fAZ+PdHyYSIehOiO0pLeYH6sTHurfMhPDHVsG0iqvoAzcNll0HEo02weB7aJO7BcGRNzDhNqo1VMEbyE7hn0ZL07iYVdfcC9bltWOx+ocxm4vd4Po3bMCnFKHCmzB20yViVMRGLcPrx7HTvPxQPKHX1TVCkJzoo/RRj6g7DJJZiVnUtxujY0VjCrJimHpzB/gTdNLAtqH8KdnZquJ9/i+DleMyYTurrc8PzKrXyjGHlDEwJRGYiD1pVt8lFRmMOlq3vWhxRz6B4qos+y2OYKFHqkb1SmX6ZCb23W6rvSkwiId14mapmWyxT3ncopoGO13mYIdOWJW2WeYOoHzvhUprV0z2JDqXy6GDESXXVjbOItWJStCHWbUD1vZPiCe06RqPOyEF1vwuXDECzjS/i4wqpjphe+fu4KghMPKw4ElEtt10qq/duTHWtUNJOHWg+xRS1CYvdL0Q1R4zHsgQP1jYqnMmZ3F7jFGlHZCJeEp6vjjMoT87ag6KqM18/czC3cKkOcjfyDqbC+CoWrfShdIPW+Ap4sLTdSvrRBvTeXrgKZ0uKtDHiyBMo5t64FqO1kpLWjfMY3UxEXbCpGZiBgaCOmeh1gsmt4o/FrcMXY2LPeVl5vfOxVO4qYGXqN9Q60DsxXPZjs/7VGVetjG3+h2PGS3nCsYXY6e4outUggglcrHt4eu+Hoe1IICIz8bWsTFm9UBQfDzOaYAT1bytsDBZiG+m22fNRQa4OWEDvLJm5GuNFFN05L8B19+CM5TyKkS3HKOqJd8cjQErV86Ksr70kU8NQ07QFzdG22NwtxOZyq+z5sKBM7dbLHbSMiciDTamMgjQdltqaQ7XX1Tws1sRngD/TzTj8L9X3Now+LFdSR5nx9WNx9VTMS9EWNFYr46q0j6VnuVR2EyyCqFQfd2G0talXUZk6Y4aJmIGRQ5OgVVWQc9HbY5b/qucG7EQm4zlt6KviUowjw7N+QP1rEi5b31PlDfKzVMdvKKptohrkR1ggqMfgWfMEZ6dyynoX+6D/pXPtYAZe+oYyNdB2DG7Q1guid0YUod6GnZjaWs33A3UGimXGY/HeYzHVVJSiHILPTa6um0d50q5YZllM+hNP9z/G5lxQxlCoX89L71zN4AnlmoL6vyVFu6C/MZwU5GVQZgj8yOxZ7B8U1RllESslZXh7KnNWSburY4aPH8SkhzEBoU77cvX9NdUHgCrGRGs1D4vd7zrQWHwIly6sSpEOLY/RyihNOw3Po6N+9VLxzBhWzsC0QRvX0DLIifvuFLPa/QWPTidQW3cwWDpr9f3duE6UhnWp37LoFhMkG4ntsI3/ZMpjEPwDs3l4KSaKvB0TJ0tcmsfLV18PCHWcRFEUCaNx9yyDyEToVPkvnIkaVbt1falzmYz92BD4NCYWl/ToU7ihYV6+FyNR1cancGZuUWpzw4ryo3Rl7QU5zvwe90IYJGto03Ylhv9pdh+qbSIiE6G1KNG9otbegYX0fjhmx/R9ysPp/wMzZt4Hswk5MN0/NbTR1LtC+KCDxaHpdz+neX17TN/+qqzMizEaqW+5kKI0rWmf65iIGUnEDEwJ9GImmpyo4ma4DOaxIFcuneoeG8r/Md3vN511fOcJqa5bcHeopqdA1SEid1BJmZUxb5DDsVOSDBPz61bshLZGRTuKafG68I5iGUQx++74BqlTyTAlA2VMxHUYwdsG36B3zcqPCnL8uwDHvWi4OxeTFsiwUKqkR4e6yghvU0YCuhnjR+Oi9k5q+y34XEp9JkIu1chUWcfntkKLsDncguGkIK8Djd0OlGcHrbKJeGm6P5dyvN4atw2Kcx2lnadj0qeyWDEycD6d7vmsA+HNWnichx3D97QFvSNPtz+GZ4+jKE37D0YzlUKgjV3ODBMxA0sNDGIzESEuuA2AT+JGTwsxF8b1sFOGdIFPLXm3CUSxuIwnZdXctK6ckXgjvfWyGwJ7Yt92MfZ9GrNI6A7GiGxZfpFoM/F1fENaDvhruq/U5MMk/mVMRIwTAea50En9aOva1w9ojB+GbTQLMclOnaSrjf1CG0ZC0MsOo+zk+NDU90W4se4oVUPRVkE48/nw/JEMloK8CaguZQf9C4Yzup8Hm3p5XgHGeD8D8zb5NW6vpDV1d7r/4VSujlEfp/9cGyr33PT+NfQf10R1PRVX5Twco32fxRmvezE6UiVNq4MZm4gZWCqhymYicr1NILefeAzFU911qY1vYYh/AW5s1XbBqk/fTHUdnX43XURljET+fi9LcYWq/QPlaYPzoFhq86X46f876d6b0+//Ye6rw3Td68VEzEntrc9oMj026d/Fqd290r1H43PTwfTI76SdR0U/jER8V3O+At267B9gp2Jwq/yLmRqVhuZEGWH/h2eElZpg1MyExmcD4ObUziHp2bI4E3EHHjdhBWzMDknPb6B7zSis/rWUB5KTHVKcn7KAVND8W/X+0RgtaZtyXaA1q/TtkxitexVF1cyPKNre9LKDiBClxTM2ETOw1MGgNhMR8lPdnsAlod5/45z5AalM2wWg/r4aFx+2YUiaMBI5jOMSi60wZuBeTD+7POa29h7MCDQav+kE8jssN8iTsI1JqpLTcJezQXSzZVClzpiftaO/ZfErRimVkA77BFy//SGKNgpl3kBNYBBGoqyteRSt6xemvp6afh9PtbfQsEA4XpcRtipo1bCZiTx+xo2YROaU9Pt2zI5pV8xjqSzS6L8xFcCBmPfJNti43ovZSYCtuTrJ06CMRK6e6vdkLxome6iFFO2sLsFooaCJHUSEGZuIGbhfwDCZCSieGpfDLKJ1qluCbRI34BlG2zATUSy+GFu0D8me1UE/jER8/lpcGlFGsNbH7CaqgmJdidl2xKRAF4T3Jd1pS2wiVEki5mffovYkLpcnxyhULBF0egMPlx2vPOpkm5Ob6ofBGAko9/eP0TN17ZqeR5fGYUOuUqhyES4LWjUMZiJ6QcUx0SYsG4eFGCOxgOIY3Q6cidkd/T987UeQHdXraBYQahBGQvO0Bf2rp6Kd0yoYjVuEx2e5EaN98ubpxytqhomYgfsVDMMAM4e4oDcBvkiRuJyChxTOy9eBJB/aqPdN95ssqn4ZCb0n9YxScSv5U9lmN44Hxfo23UGxlOL6AsxYb+uSOtoyFr3UGWXfqXfKjD6HyUzkEqvnAudjxHcxvSOmNoVhMRKxvthvRSBUXobzKUYgHIQJLAO1XWXkmEMMWjUIM6HvLsOZFTADwlPxjTPaDXWw3BLHY9FmNyipQ4yJ1DIfT3V8s2E/B2Ek9O5+oa9t5i22sTYujdH1RfqPmCqYMaycgfslDFsyAd2bxxOAc0L9/8UMEcXZN9k81M9PYIRHMRqaLNZ+GImoM1dMjOdUtFlHfFfGgmIdQbc/fAfbmC7Bvms32mccVF/6ScCld3+a3vtFdn8QyE+Xj6CYw0XX20M/BznZD5uRiPXqOxT7IF5NciL0A5qDX6Z2ytwuc+iHmaizDRrH1HqvwoyFpZITAzGJMTnfxqR2W1HuIVPGFKsvz8HtJJoYPQ7CSKjMSanvx2V1VkFkKmentqOnyTkMnsNF7cwwETNwv4VBglbVQVyAY5hVdhTv/xY3zoJ6IqxFpBP0lXhQol6Lth9GQu+UuZ3WjUcUB8dyT8CI7p3YiW0SN8KM1wLMZ//dwBPxXAR53yLjsjFwKW4T0YSJiN84H7eif0H2rB+I766JRfmTj30H+/5P4RtkP+LfHEbFSOj9cZzh+iT2DfqeO7BvrMvS2Ab07gtS/ffgKqqmJ/ZH4jYTl+LMhPCyzlvp+dj3XUS3xGFJuLcoXTuV9KHX4UDP1sTWVodmif76ZSREI5bDjaV36/Fuzgw/E6NZ8RDwq1B3v9I0mAk2NQMPENCC2Z9uZmJQQi8x5mNwe4m4if7/9s47XJKi6v+fmbl7d4m7y7JEgV1JAqJLEF8l/gARfEFUkFfJkgSRJAivSpYMkkz4gkQDAgoIKKJIkoyCgCJxQRBB0rLLsuHemf79cepQp2u6e7pn7oUN9X2efu6d7srdVXXqxMvxrn4h/+QEohSoyo2hu+w8dENI6LNuHGEp9LS3IJ5bcJF7puPcRHRHfoY4iwoJi38iopV9EeW0sK8hETGpRN8stDzd2J9w7e3WukbHp+Ha/Cy+L7cCm7nn6p74dbypXy8n+eEiJLRNdsNTLfzNkD5p/55F+qxj2s280c1kIbyl0Pfds6qWCZPIJiYsxgKbIhyzW2n3nzKIHADOQfwgKBHxWfw383fkm+lWr0UJtCOD9hf1rSohoc8/5vJNpdgtti1vdWQO6pjo+tXEfwtVIgmHsGtsjOIZMdejSMzRq58BLfsiV+6/SE+aaYhW/DiXLsvJjNZfxl22RS+ijap1ZdV7EJ6rsZy5r7LaQcSvwyIIF+IoRMFPNy57PYx4X/wcYjapRMQT+NgZVfxCqEx2KbyJXtXonOHJbUt8pNUEeArRabEnt0XxWu6fMve7xXAREtomjVj5L6TtltO2B9JH7e/dlOe0hQitI/6DyOOr6CzV8H5N1gIm44mJ1REC42BExm8dyullvUiqKfOlCBHRBHZyZa+A/0YPdPeqvEPtq7qqVtHacIg2NN83XD51i50lKtR745A1yXLTLsd/t3oo6GWjV8IxijMi5ikMFzER2qIPujo+hrAH7aazJ9nswnCRLRtFsiohoeUVBQvrBB2vJfH28naD1rr3ID3OFksjcR3ORCxGskQhyvo+hGynWFa/Ig/aloNJEzxlxFp2DFdH7PKtmObbeG19JQ51DK9ANicNcNTLojlchIS26XSkrVe439oP/U7HACeQtlz4OWlOWxlZfA3Rd9EN+qASea2eQ1Zft8fr50ynXVxhvUiuR7sXyetduhbe7bWmUY7dy4i3yCpcmJBL8CZeETuvjG4JCS0vL5R9KIbdkzRxeKdr597It/U6vfuAiURExDyNoXJaFSJUWnsDUUZsAF/Gn5yUDb6JyWs3oI/jNypdeIoInKqEhN7/jEv/HNWDM2mdKkt/EmFXW2JMx3kP/OL+K7wtfYjVkdPgDWQTFf9G3JHvjygAhv3LU3zTdzoS79nx4qAfef0DYY+fiI+ImSBuwVfLSa/tUjfi99O7D4vhFG3UkTYmiOgC0mNr+7YaIqbScXgTGZuxprxOY3oxnvs0knYC3urhZJW1BMLlOQ2xLrHvRQmCh4HjXbrFM8roQ775G/BcszB2Rh1RRtYN99ygH51g9RZUkXNbU38WuiEktJ68qK027yakxVWTkbWpgaxVSuBZJeFuYC3jok5ExDyL4bLmqJPWGbjAPFfFvOmmzkuAlYJ22SiSuvAULSTdEhLnUN1CBPzYrIkPva5BzcI6LWdCiYkr8ZuEmppq3aMRZ1fKZj8WuBFv02+vvyGuev+HbPm4VbrTdigLfwA5gUG63/bkVkfkuBo8KkHk6VsE/cuyBgDR+Rgk7ZCoF2U1GFpCQvOtiLRxEDHXzSozFO98EhkLHZenyee06W+QMVeF5P82zyzXIcSCCMfscCS2Q9a3oAHolC3/F0REY/uqnDIVjeh8sQG4sgioL7p0M5B3WmV90DJ+inz/Z2fUY9ENIaHPtiV9MLB1rISMj47XdIQQswq06lb+H2T78yiLaJ0RMV8hi5j4OUPjZ0KtL9R/gZ08ayIna63zdURvwFowqLvsMiZcVQgJ7VcD0VpPkA2gUx1Z9SlL+DaKT6JZnIkr8RuIPp+I9xj4MunYGeOQzeskhA0bmpq+DdyBsN83BxbLaEc/8m7V1fnt+AUv3Cg3I23SOxnxPKobSBGLW7+bPnxUxF3NvW4wHISEtmU3pI2Pmnt5336ocLoPaU7b7Yhyo63DsrjvcOmux2/oWUTLB5Dv8iekCTm9XkR0IA5EvhMVe03Ci9qeRIgkbav2qQwRQZBPv4Wyogbbf/DKxw9SvL50Q0honnNJu8UGIaaOwrv+1rm3ZpB/Xbw/j8+WqDMPlqtrxYCRiIiYp2GJiaxAX70QExrGVxWfrO4AiMMfZSnrCVudF33B3fsrne22qxASumivitfOXjV4VgSt61N4lnAZ/Yo8zoQSERPIj52R1a4JyBj9iHQIY71eQkI2H0J70LGV8JwUjeKodayMKN5pOW8Bp5Jmj5dZYLW/P3D9vbhC3iwMByGhbbkEaaNaT5RZ7G0/FkfGyCrtXUq7d9ad3LNZpMVCIP5FtkVO7H8mbUat7+E2RFyxGV6UYqHf0lpk+5mo0x7Fs4iIsP20nJStgmdFqDrfuhVtNPDO7HZw93cmPTfux/uK0bq0Pg2jflOJ+oraEXIiYgCuiPkGncQcVYkJnYRr4aOGbmee2VPdSEQJ0GqXX4cscNOQhWc1itmpVQiJrBNSJ0JFoW3oxy9alwRtKEIWZ+LniL6DmgLmOZuyrO+wrX2ujP0RB0o2JoBeGnRsd0TZ7wxEQ3+ya9dCiImglbdnndyqWieor4Sn8MRMt+xiGDpCQtswCn/i397dq7Lg27QfIs1pm4KM6ULIGE9G3vvx7vfGiDLj72l3P61E9PeRMVwuo24rurJcIGgnJpZ195WLZnUiylpFKYH5EJ7ALTtvynIAqxIS2gaNlzMN6ZeuBcq9OQhvwqnrj5a5HZ7A07lXlZDIIiIiJyJivsNQ60zoRPyhK+tx2v0X2Mm6DMKaVMKjibd538elybJasOWUISRCmW0Z0YlC02j48CnIaa/K+CgxsSdeoVK5A2U9VkKxMt5oJPbBsWT7DhhA3oeeMH9FOrz23Yg1iaIKAWHbB2LF8xYy1usGz7opbwJD5yIbJIJly7Vx2eBZWYRirW1Jc9oeQcY4QdjnvyftRVKvZxHCch9EVyN8t3nKtCH025mEF3M8hFesbOJ1esoo/emcXQFP8Owf1FWEUPRQpJNUlZDQNUED/k3Du/ee6eq03mS1HKvPpSbWP+xQVx6iTkREhEF4WrfERBWzL/CTayl8cC/11WAnaiibXxd/atJF72b8gpHVjrKEhNUif9al/UxGm/L6U0fY2HrSOzqnnk7Qvnwd6d8shJjQUNZVNbo7afkvh5y2v4+wepVYU6JC/5+NEFijM8pQhdAq34COt8rXD3W/u1lYh5qQ0DYc6tp2Wxdl2XHPyncaaV2W0BJnCuKs6RvA+viw6hbdjDv4/lluV4LoCvTCeTkGT/QuTjmuRKg39Sz5XmvLEhIhV/OPeAIiQdaQdU36kBjW8tTvxCvIWlX10GTXxuhsKiLCoYgzUVWLWSfrIfhF7H1kT9bwVPd5hCWrIoCH8UpQWnbI2ehESGg69bo4FfHloPWX6ctZLu8ziHJot2PyftKn1iZyUuund1PJIjEIiLXAC3iOxCB+ER5AWPBXImZxWd42q56Mj0fe4/Xu95zEkbjBte0493soOEEnIFExVVzXJD3WryPhqUN/DpD2F9HLN2BZ93/Az6NnEfNRqHby1jm7CN5D65kly9F+LI3njqnHyDBvJ0IiXCc+i6wNCdLHx/Bu4DVfllVRDe/zJkHWqDJ9sbBKtJETERERoBMxUXbh1ok2CtGIT4AL3bMimac+WwqR2duTxq+BtYO2ans7ERL6+3CX7o+mziLoYrQ6Xgyxk3lWFpp2Bbxi5XPIJqb9u8rU160SYVin1jsa4Qr909R3N0I8tBACwmq36/Uwws3YHtGvCJElq9e6QTbXBDFbXMzd61ZUMoHeCQmtezG8KeUm7l4W0aSbe4gRiPjgq+TrpryBj7tivYE+jXBD1FIpjzjpBjoe/XhxxgzgNff/k3QXglzT7uzKeRuZE0UWSwod81tc3sPd77w5GhISoaL22shaYAnxKXi32EVcHG3rhS7vo1TzFgv5nIhIREREGAyV0yqdtNvg2efrBc+K6lfLj+fwgafeRjgDumgo8dGJkNA2/5Zqoglt57Uu358ot3hmlWGJiJfwRNGe+FPjUBATYft2IK0H8TDihht81M5bkTH9HKI78hfarQem4a0HNsV7tQz7ajfG0fiYEFuYNFUwlISE1v1JPJtefS7ot5QnrpiIWLqcj8SgCAkHay2zDuIwSt8piGJf+B46naCrwBIROh+ayMl9NbzORDchyDVtHZkDCRJyvEwZoWjkN0F7w3SWkLBEwVLI3FeR0Uy8vonGyykSDWo7P4oXNeVF/c2DVUKPzqYiIjqgSGeiG2JC/RfcSueNWNnyX3d5bkRknhobI0FO1vvjJ67qVmQREro4j8OfzDYO2lfU9i2QjX6QclEMs8qwRMS/8QG4VGdid9LEhI5BVbm9bddH8KdS3egOI81WXwXvJGxXc79G2p9BVtCxFxFFQvVnEAY3Uo7Ita5vJ7v7VU9sQ0lIaN2nuDZd7crI2gDGI3E1TkEcUClHSq/ppP13WLNMdeT0FjLGigWQd/CSKed6vI4MdEdQ6LzM8xMB8s2VDUGeBU23AfIOWsAnSpShzzZ2db9GOu6OIiQkVBw2Apnrlpt2M7ImaFCww2jXucpqRw1ZgyxBU5WIiDoREREVMBQ6E7rQl/EEqdCJvS6yWL2NX6R3w2taJ4iuwaZ4jsFBtC8oWt6W+A1Q2cpFfVC2/Z9dvp8F5XVCJyKiL/j7JbwoxxITZcbZtmlZ4Ht4JzuDwHmkRROWZX+KS/cCokSnbpItFkT8CRxBvofFx5DT+o54b5YgRJKKUor0N/IwlISEch00ZPRe5tkCyGn16wgBpoHO7PUoMpZ5HkX7EAJEdSQs8WTf0fKuHOX6zELe2bImTZUNDor9RFhrjqEgJtTh0gPkc3AU+q4XNXVr4DNbr34XB7k01yJz2+oTPY4neMcia4q1Csrrh/ZffdTMwJs3l/mGok5EREQPGArTUJ3c57r8TyFa6nnEiLXzV1//XyC9IB1LOoKm/r+PyRv24VRk0VFWc1Hbtc1qWjYV8RRYtc8hEZFn4plHTHQSc4Qa7IeQ9stxI95pltZTC/KOwZ/2TjXpipQLbcyHu/GiJ71muPvHIxvDoEuzhCmjSIwQ9hG6IySsnoP2Y2nXltkI23834DKyvUi+QPkYJ8rVOA3PNRtD+h2FRO5/Ie/IcnkOodhSyaITEWE5LVrvWnRPTOj3uCJeeXJv86xTO3+JzMFTgjaBn7NfJj2n9f9j8WKoGp4o6OSnROdPt7FD8jgRkYiIiKiAXnUmdDFcAs/SPco9y5vIev8iZOFRO2/rT2JVhO2ubWoBvyDNYtaFr4Y/hX7VPctbALS9Y4HnXZ4TO7Q3q+3LU46IUOg4f4nOOhOhGOPTyOlQx+JvpNnaeexyLeNLeHb9qhnl2w05632viCihXoBwJsINWWXSP0LY+AtmlJFnDVKFkNBxyiOAlkailiqxE5plTkWUAo9FlDBHZ5SRNQ7a7g/gRUW7m2chwvH9ImlPjA8gukVh+RZZREQYgCtEHjGh3Koq3/dJLv/zyFwpInq0XvXDco/7HY7DWGQO2yiml5EWD+kacJ5L10mJW+8fjRfxje/QXkXUiYiIGEL0ypnQyazyzykUO3TS+lRL/DH8pA1PdZsjpz89yT9DexClicjG0US8EFLQZm3rybSfLDux5PMUKycF/cqD9nF3smNzWMsWkFOyOjxKEPnzkXjRTdnFsoG3LLg66EsWiiwa+pGN6gDkBKocErs5PIm4zt4N7046bJMSA9qOCWQTEvUgncUiwIbImPwB773TtuWviFhhO8QsMK8tRe9f674aL8YpO/aaZhGEwFY9ngR5tx/OqKeTTkTRd2bFHErYV+FM6Hc4Bk9on9Qhr/bxw8gcnIHMSU1fQ+as6uI0kXm3edBuHf8ReIJ1Z/M8q94aaYdaepDo1M/IiYiIGAYUKWCWXTSti+lL3f2sCW1PoUoAfDh4ZpXkfo0/ZWrbbsMvRDvgF0xLkGTVW0NiUijrdk/3rKyFRyjOmFQyv8KKOXTDu4L0OC2BuLpWDfYWwr1ZMaM9naDpNsIr0VW1sCjiAozBO/+ZQba3zfuB7yBa9EtmlNFA+qaExIo59TUQ/xf7Iidbq6Cnl+qOnI14kSwSV1TRT/kkXil3w+BZ2TJA+qacuAR5x2fgxUK9EBGKXnUmwrVgGjJn8g4GlgDQuaEWK5sjc1Xfj87hX5s8ds5ru5UgmRA8s9B+XObKfIj8GDYWdk2LipUREUMMy5kIA311OrHrpN4Kv/h9PHhmoSxFDdl8UNAGzdfAWyccDXyLtFfBH+BP7efjN72iNuricT/lnARV1YnoBE2/h+nHFYgy5H6k3SzfgrdC0bxVtf61/T91ZT6IX8CrlmXFC9qPpZB3MoC8/88A33X1WF8hCeLPwnp9VO7KWDwhsbipz3rvfDgoS7lfNyOKovu4NrxtylDuSoPqypva1358PImfuGdliQhblv1ONsb7XkgQh1L7mbLVUqkqEaHoRWfCvmMVqWnkzSKFxzo+ZPcvkbmp/XsbmbsqgriBdk6Ttvlgl+Yu054Qmm99vL+ULCXPvL5ZIiIG4IqIGGL0IubQCawchD8V5NF6TkAmsp5QQtk0+JOZLrSTSAdR0kudSWXJ+u3JvOnq3Dx4VtSnoSIiFMo52QmveKYLfoIojn0paEfVjVCh724inv1fJaZCHuyifCfpd6TPV0NOej8l28z0BYSIOgYfRXIn9/tPeJ0EvQYRS5uzkdgXNt6CfrN34kUiVQkli1D2/yZyQi6rlJsFK76qIe9YQ8wniPmi+lh5C8/a70Ze3wsxoc82R+ZKk3xOjCXeVVxpr6vwnLv93L3rMsrSMb3O1XlC0I+wzhre78W1JfoUxRkREe8iulXA1IXbeorc2TwL04KYgCVke0cMCYkDg3K2RrgKugH9DR8+W/Pr4qH/KwfkVzntymqjJSKq6ER0KhdkY3qYtKvlk0g7hKp6+s2CtvUYfD/KKqWVKfdEPEGop/gQiyJcqoORE24WYdEKfs9G3vH3gV2QbyvLKqaB34BONPe7RZYScbcxWLJgiZzFkE3TWuTMBr7pnofcjCroRWci1A0JCbRQp2cnZA4O4kVaNrx3A5nDWYSEHQs1P940p436exc8t6OTJ86oWBkR8R6gW86ETuQzXZ7JyAYSstGtuaeelrYKyggJCXVI1Y/fqPSEY6/fIX4RFKoJbheesiHMQ07EJHe/m4Xdbh5jkc0j1ClIEOsHSMuPe4U1k1NTyCpmcnnQvJ9wZb6MV17tJ3uBXhixWrgaOXWH4g+9BhD31Kcj1iBZlg39rg1j8b4hynCayvbrXDyHqMisuVvY8bmNtMfRFxGiUi2VijbKInSrM6F9XQ0vTtSDgbWw+hjeeZS99nXP7XzNi7URikZfJG0Oivm/7p5Ndmm/U7IfkRMREfEeoIiYyFtQdcKOw5+wjnfP8k4WVyInyTOCevMICT2B1hFXvi1k8z0Jb/I3gJiQ6WK5EOWDEg21OCM8ue1OOnLjvYjM3OpMdBtQrQjaBvXMOJPOVi6dYE+SapGwaZBmNBKX43jEW2Tol+JtxL20nmSvJT0+ev0H4XgchLggt1yPTfCcrXGUd/aVBR2LD5m2qqO1oeAOhfWMwnuHbSKcD2XZJ8hY7G7ydSPm6lbMER4MnkbmEi7veaTn3EnIXLSeRRum/jxCQp+f4fJemdMu/X28K+dfyPvutB5FIiIi4j1EkQJmJ/2HfV36qYg3xDB9mO4B0gtCHiGhpzjLzdjM3fso6XDlryARGU/Ab0ZLkM/SH0oiImRJb4LIwLVt/0Q4KjaNJdp+zvARE9qOqq6EFdZEVPP+wpV5KmJdcSD5Qa8eA36McIkmIL4OBhBiYhzyjtdD3CNfh48lYa9/IH4GPo9X7FOlQEhbm1QZP+2Pxm65he65AXnQby/0E6GiuT7k27CWKbci3xAmTZV+dUNM6Pe3JJ7jcwIyp14xbbseH/lzc/y8Ua6Cztmi6J91vKfZLwdt1rbUkLVkKmmuR5EeRVSsjIiYA1BVZ8JuMrowZGl9a77VkE1kNt45jT3Fh4SEslU3dvdfQ7T0bdnb401R9WrhzT1H0r4Ia37rbOoluiMibFtWIm3yNx1h148P0mv56nEzQVx321NVr9B2fRRvKvnpjDaHsJr8We1YAd/HMG6FjuM1CDdhLdpFHhNIm3+GGIeYrZ6EyOqz6mgBv0fY43lmpnntt2lAFDkTygejq4I8IuKL5r5iPHJKV6XTXkyBIU1MWJ2JPKdVaooKojQb6rD8FZlrti2L0x73RsvIIiR0PFZBxnsAWRMg/a60berC+8/kWx9FnYiIiDkQVXUmrOxctb43Cp5ZzsNDrkxry51HSKi73WNc2TbioN1wF0RiK0xFFqcmspmtndHOodKJsIvawoizJBu74peknRBlKQ5CPjExFJwJ7euPXfl/JzvcshJzWRvVYsjJ8wREXBFaV0xHNvwTkW9gsYwyGni7/wmkHVIpNydv438/PlrnE7RvcK8gJoaHIUTTAhllhNwKHeNR+AigF5i2DgW0L2X8RNj/P4yP5qoinG8h35htexmU1ZmwfV4bmTtN196pyNxSL6bh3PsN8k6Ocb91zmYREqHfiodoH2/9vTGdra6iTkRExByMTsRE3glf/TzcRb7t+FnI4mA5F51EG7e4+18PygJ/qvsAIoO3G81MxHxwaZdGF79eiIiQ9f1F0uGo/4ycchVF7HatT+MSJIj55FARE1rGsviT42HuWT/ZLPN+ZDM5CNlQrKmqXo8jfiJaePPSsN7Qb4eO/QSKXWRbLleI/3H1v4jI5bPa9hRwCaJrsEpGGXX8qfkwPKdrWXoz9wzrgGrOpsLvals8ly+hvLv0EJ2ICW3r0shcsXotGmxvVZfGclC03MPxYiEoFm1o/y53ZZ8VlGXTqYfWX5r7FpZLGomIiIg5FJ10JuwipouajVGwq3lmy9vaPX8Bf8rSZyEhAbLAqcWDymbtoqIs09vxC9eGwB9J6ygc4Nq4HD7yaBWdiFAPItRg/xdi7lg2UJMi1B9JEGdIQ0VM6FipV8pX8YSVYgKySZ1PdoyN/yDj+jWE/d+H53J815UxkuLNrSwhkZVPy/6Rq/N892xxPLfkdsQyxLZ7NnAfIjIIvW0uiSeuvuHuDcXmkyXOqOJsyn43I5FvypqLhpZKZfQnsnQmHkfmQg3RcXne1PFHZA5p+2+jndCxorMEmaP2uwoJCW3Dwnhdmq2DZ1rmrnhuV17MmKgTERExl6CKmEMn+uku3bOkzUF1sRuPd8ykIhA9xWQREp815SnbOlTS3B7PgZhk8u6C5zwop0Q3ysn4sMWdFh67iC2HBB9TvYOZyGa6TE76MsgjJqB7YkK5AnajudeVfRGizHcSIq6wHkS1T/cg0R23JO2BUqEOiTq5K7ftgeqEhJYZxmXI09/YAVHIfCTok3IebkIIoivcvXuDurpR2lR00onoVvdmGeQbU27BbOQbXC4nfRa07nXx5pSP4f2t6LvcxeRZCwmNniAxTGw9Oj4LIHMzQeaqIiQk9BvZ2N1/nbRXUmvuqeWdntG3KM6IiJgLUZaYyDIHPc4904UglKse637rKT6LkDjXpdWNNdT+HoXfYDS6aD9pPw5H4hXO9IS4oyknbxG2p8NRCCvclnMDXkEPunNrbfNC98SEFQlkiSs+hMQqUAIovJ5ACIxdEaXRECFhMhHZ2JrAmiZNHnrhSODa33R1TnT3lA2e1eeGa9d+FMfruAvxOrka7ahiDaLvKBRnqDlpN0p/IRdsPbz5aIJ8i4fi9RKKuGC2DzuSjpj6EjJHxpp6VYzxQzzREerX6Lz5CTJHzzX1hYSEzvFjadd3smUdhxdfjQvqi0RERMRcjE5+JsLFQDfDN0m7GtZyDnXPbw/yZelIPOTuqRVGyAb9GmmWvSVudPEaS7u/glcR88VxLo0lKMIF/HOmHQly2t3BPO/2BBtC67TOty5z90Jiwo5pFiG0vGvjecCjtG+ig4ivhkORDWpURhl5m6ieIJXDUcYNd7eEhJZpQ1dn6eloOXlKo4siHLCjEAXC0DmWuuQ+C7FuWSqjDGsNEiqrZhER3XAishASuzuQ5rg8hHyjCktY2fc3DvnmrVKwEpFKRFjRXA3hhmj6Q0yZWg/I3NR2dDL/VBHkoaYMrWsi3rX7vkE+u9ZEIiIiYi5Fkc5EeGoYgQRyshuhNf9a25UxHW+OBn4RPsj9/iDeXFQVvmx9S+Bt3o8w9di/E/ExDl507dd4EQminKdEis0Hwtq9xqT9D/C/eBFLWT2IKtBx/oqp9xJTXx7hMBoRVxyHyLRDfYGZiALbDxFRxiBpt8ZQzmzStvFU5D1eZdqXh145Er90dZ0StCEPltCy5W+BfE8zEQLoLISAsJ4mE0T8dhNiMbEBXp/HooHfOLvViagC+70tiHyL+v0nyLc6KWifYk/kW9e0dyJzQbmHT5Lm9Ni//+vSvIzMOR1bbcuqyJjORiKxgsxhS0iAzHVViF7b9EnruczleZC0t1dbX9SJiIiYy1HGmkMXBQ3HnBUdtB+v8KgBuMAvxHryUWuGh3LqOAe/CC5EO2dkBdJ+ItY2z/fBy4oTRFdgM/d8POLhT30YNBHzwAmmrVX1IKogPIUnwMUZaT6EbIZXIcqrIdfhH0i7d0LMKBXfd8+fRgiQMsSDhfZ9S1eOdUg0lMqWWpZ1SPbJoA1loN+Mlb9/L0izKiLiuBTvWtxezyHf+pcRAtfWPxLvHK2FF5sNlw8DW/cE5B0rh+Vt5NtV3yWbkfaeORn59rWMtSmOzVFH5pYSIeeY51a34SH3XB1MHUI7IWH1avpNOSBrxCAyfvYdR+uMiIh5EHlOq6z8UheHX+M36dCs7zxk0bjYlK2ExMHut5qJ6eJlWe2r45UE9fRn2drLk22dYU3YFkcUuqyy4bX4zUbFLxuZPL3oQXSCPUUri3l3PLv3xwhb+wKyxRXWGdTatAfU0rKXxHuQPNI9q7oxg7DK1fJhkw7ldENIaFmbuDpeIy2KKgst5yjSJ+s+soOOLYBYIxyOyPJDUYCKt/4PMUm91t17Bc/lGUm2GGSoEIrfNsKLDRLkG77W/H4b+dat4qz2PbTmsE6rdOx2NOXYwFnaBtVlutz9Pph2QuISl0Z1mXQ+15E1IsFHB9b7RUREdDYVETEXoxNnQp+vgT/V62avG+R2+AVPffrrqe4r7reesj9j6tWFTX1W/AnP9tR6LSciz0+E/X9FxHOfVUR8i7TS51AG1rIIF2SLsciGdh9eez4UV5RxBmU5Djp+Gp1xCjJeoRVOJ2jaG0grzuadELshJLSs41wdN3RIn1dvDenjFKTP+l5Da4A8sdF44FPIRnwv2QqrsxBfCh8l/z1Y8d5QQUWJigNIi7VmI9yCFU2arHkwiWw/E/rt1PGcDRtRV/OrddUL7reK5q53vxfCE+iqz6FrgRIpM/CiESXYIyciImIeRidiQhc3FT9oVEVdqJfEn7Q3dPdUI/1LiOVAQto+XcvcFNlYBk1ePV2VISLsZrEa4pdgCl6+rf25h7ToZSiUKi3hEG4qNWQh/TJinvg87RvWACIX35G0uEJh9QKy2qqLcz/etbjVYykLHc/DXBm3mvKz0Ito4zZXx2FB3WVgLQsSpM/qZTOvrUXvCGRT3gf5fu33ote/EJ2O/RFPlWF7ldju9XsKlTB3Qr5Z+60osXg+4udFYfN1IiZ0bm2EvLcmPmCbzknr72UlZA4neOuMjdzvN/H+PBrImqBik7NNmZGIiIiYT1BETOgJbAm8DFbZ6Lr4qEOn45CFQ4Mn7YR3o3uLS2vLVGuBX7hneUSEijP6TBm6cI929U4xbb/K5dmfdPCom/B6HlpelQ2g6LS7JGIlcDbwF9pdQL8O/AGROR+L3yBOdflV4a/KpqTt2ApPkK0fPOsE3WDXc2VMw/vSyNp8qxISem9Z/An7IwXps6B92QAvf98yeFYGumFbs+LL8C7hD0Dez01ki0EeRdj5nyetXGzbWUUMEoo11nd1a30vI9/wWqTdbU9BvvnRphwdSy3PijmyiAkN2HYv7VyWW9yzvZA5nCBzuoY36/ydS6trwJF4sdz4oMxIREREzCcoCvSlk17Z6G8gTnR04dHT7J3ut4o29sTbph/jnikbdDe86GEV0joReUREeHLbmbSjqnvwG4xiaYSboqIZDVduN4K8zcieaMONYRSy+X4dWWRVx0CvFqK1fg7iJjk0QzzUpP2RaUfVk622XeXod+KJtbKbmfZHw7Zv5+5lLfZVCQktY3tX9tN4E9Wy7dMNSZ0uXeuedaMoa02Kb8C/qy8G6ZZA9CTOAO6nnWMxDeHeHIvofoymHUXcCtv25UmH956BfDeh59ItSXMqHkPmgC3TzteQmLA6E6vgvdfu5u7r3DwG7/NlD9KiDbWUUq5SHVkL3nD3DzR9rxF1IiIi5jvoAqRchFDMMRJ42N2/0ORbB1l4ZiJKdFchJ7yj8Rv9xi5tA1gEb2lxuinHciJewosz9KSuCN1aP49YRugCpRuPzfMR0uHKX0IWw9AJUBHXYQVEFPFj2v1ZJIizpMsRdvkatG8gWra28+sm7w9M26tySUBEO6psGro17wRNp0p0agkxlITE90kr5VZtmxKebyN9raoLou3T71gVgq2J5wjyxSBqDXIZ2dYgzyNirH0Ra5CwDPtd6bMFkG/AOke7Du+pFdq/5REI58SKy0J328rdAplDWdYc4L3XPoPMSa1jY5P+aGQuX4XM7ZnIe1zHlHOhS/8wPkpvyInYy6WNnIiIiPkAeWIOXWQ+jV+A1RvkAngfD9vg3Rbfij+9jcUvoKp1/2/k5AeyGWXpROgpCeTkcx7eV8AsRMvcntzCDSrkYnweTwzp4rcd2RgN/D/geESTPnRBPRWJZ3A0IjteJKOMvFOpjvMRprzvmz50Y81whivnOdf2six2bcvuLv8jpswsYgjKERKatw/veGk3c68TdEMajfTJEp5VuRGdiIgs/Yc85dkFgf9CrEF+S7YY5CHyuVEg35y12HmY9vDe4djbPi+DfPuqvKucNutuW+fOJNKciQnu/hLm/lHuXh2Zq6oncav7ewUytxNkrqsPlvXwnBQb3j6KMyIi5nPkOa3S+ze6e3/EL3Z6urkIaqdD7W9Q+wES3fFMU7Zlgx7s7k0kW5yh8txRiCjAntyuJ30q6rT5KrcBRPP8m4iZny1vXUSR7SuIRnuWT4dHkQ1/O+B9GfVUkZPreKqjoAQfPKsKMaEb7mL4QEonmnI6QcdlZWRjGkBMA+2zMO0EOhMS+nt1V+YsvNvuMtwEbftJSJ9eQPpY1RRT6+rF2VQRp2oJiq1BlOD8FkJY3GCePYcQJEqEdrIICQnjdWjntB2K57RlmYb+A++06mDS4krFmcDVModrf4PaaYjrdUvM1fBB9W509/qIzqYiIiIcsoiJK5BFbpK59wVgVei7EvpaUBtE9AVeBV6E+oMw4mro+yqicPd/Lt/jyII4kbSfiLWDdmxLOgzzwwhXQVFmw83T3h+PsGz1RDWbdvPM15HN52DX76HU3LfybI3qmdDuLKgMdHNRTtJbyKZdVgSg6f7i8u/j7of9rUJIaN59XJl/pjwRoOlWxitpKnu8Cjcii4iwAbi6jZ1RZA2yMsLd+QlyetcgXfaaiVg5bJHT5k7EaBanTbk+OtbbBnnWJu1nYqIrQ+ff/wHLQt8BMmfrDyIeM18FXpO53deSuc6qyNxXgmGSa+8VRCIiIiLCIEsB80p372SgBfU3oKabryMu+hIYmUAjWDwbb0BtJrJZr4+IJFQk8hJp2fCHEW6G5n8N4SKorwrLYQihm2LWQt+HnM4ORYgIVTC01wxEh+MzeBZuWEank2MV6EL7LdOGs929KkqT2uf7Sb+rMhuvtuEs5D3+PCdvFUJC86pDMuVMldlYNO9VSF/uo7pjKKtYOVRERBaKxCCLIARFFjGRIAqPDyJjE4ZIV4RWFRZ2HiyMzBGr+Hs1MpcU6+I5e08ic3B9YJbMzcaUdPsabi736T03x2uzZO7TQtYCkO8tFGdExcqIiIhMnYkfA4ekCYUNmnBGArcn8EwLnm/B4y34XRO+MQirGK33+puIPFh1Ff6D14lYEmGdqkZ5E1HmUlYsZG+MupjnmWZuiygR2lObZQdfhWirK2EzAPwecRClUL8FwwEdZ9UfSfAbb1liQvv+/5Bxa+LdhXciJkIdmH8iugAEdZclJDTPQviIndtUbMtmeNPMTUrmte2sohMxFAjNObdB4qLo+3wSUYTdmuIQ6b9FlDA/QlpHyNYRfhN2XCYic0bdbU9H5pQSKZPwsT0ch6/+pm/DKgPwzUGZu4+7ufxMS+b2GW6uW0KDQ5A1ISQiIiciIiLiHVgWtVPCUiJi/Rbc3IIkKb7eTuCCFizTSudnMj6Q136kOQS34K09tB26eBZxHfqRk9dhiCOd10kv1jMQ734nIJvVGJN3NGIrP9Wk/wXeUx90Z3ZYBjrOR5u6zzB1ViEm1E/AA5Q7yesz62BMLQFsf8sSEprn464s68CoUzv0vapIS/2MVCEi4N0JwKWwbVsDP/7a9+PwcUxsO9dALD2uID/OirrwLuO7wvZtY7xPiASZW/u5Z6vyjuWUzsVlWjJH3+4wl5NE5vzHw7k8jXyRWERERMQ7LMrLodEEZsNBCQy6haWVwID73TTXoLuvC9DzCWyYSP5GC5Elr0P65PY04oNCNxxl6xaxkJdBFCDPQ+zrwwX5GcT0cCfS3A2Fbl6KVfFeFHWRPJnscOVDBbsRHGvqPs3dK+NASwmOFfGa9182z4qgG/AfXL5vmHrDNBMoJiRC3Y8/ZKTJaz/4EPZTkb6UHe9ORMRQs9otgTcO+UZ03BPEXHSVIH3eNzwa4SZ9GyF01feJ/Qb/iHCt1seL+SzUvFjLryFzyZqs3o3Mud3dHJwNG7m5qfO0aC63XJrBBA7UudzEx+eI4oyIiIg26AK+ETSmA004ouUJiEGzAOVdrQRmu/+nJ7CBO83UbfjkaYiG/mKuvhr5tv19iPLYoQgr+A3Si+4MxGTzGMT9drjo5rGIww1rM3wgIiVI9jLtGUpdCdsuELNTrVfl0GWJCZANKUEsOcZRrFeiZYP3UqjeC22esoSE/q/+Pr4V1JEFbd/i+LDY3w76VIQ8nYgvuPtDucFZ3w515Juw3LQ78GIlyOYoWe5LVv8mIoTvhWT7LZmMECq7IwqeISxBMQ6ZW4bIqTurpQ1bMicTN0eVUCi6Bk26w534qTEd7+p+uLh2ERERcynqQD80HgIS2GbQn1rKLDrhApQk8FICyyRQT6A+CznNWPGBOraxGI/Inc8lO2rmswgXYTey41cUadpn9VkXwxoi97UbxW3I6VFRZoMvC0tMnGjqPKFkXbpB2XDbVt8iD/psA5fnDXwYa62vDCGhacfjXZdvUKH+s/Ab5aKUU7DMIiKGQ5wRig82xccQSZCT/960c9PKlq3faNhf9aSq4rrQk+psxPT0FMQSZGxOHR8CLpc5V0tg2QReDuZm2Uu5kEkCWzvfLo0HGb7AeBEREXMp3KJZ/4IsPIsMwnMVOBFZly4+l+lJZhreMVW40ayG+HW4lrTfhwRRIrsN4TpshGitW/Rimqmw7VkciY2h5ogJ4g1y5Zz0vcBuWKeY+o5z9zptjPp8FzyHRgm1ImsXkHFUfxSfcvfs6RuKCQlN+9+ujBfw7ybvPWjeD+JZ+ur+uVNf3y0iwr7blZF3r+/lLeTbWNw9HwrRVyffFdsg1j0Pkp4XCcLRuRLRWfhAkHdxN+ea8JNWek5WvZQz8WwCCw/KGlH/H1dP1JOIiIgA3lmkR/weaMFXBntbePQk03RlrOasOfqOcPUtjLBHj0dkuWGMg38i7NydSbv7VVThOlSBXczXxJsl6sn9GLwyXVnfDZ1giQl1+JUgyphQvFDrRlbHi2aud8/KcAWuRCwm1PmQ1lWGkLBtbiGKhGXrVWdNd5g+dHI0BsOrWGk5Iosi7/oN/Pu4CvkmFMPB1i/yXVFHCLD9gWvwFhl6DSAxOk4FNoSGE3mtNihzsJlU5yxmHQz2cwHVRtxk2hURETGfw2jy15wVw12t3rgR4eLzbccSHXETogegrpDt9Qhy8toKr+yoGIGwfUfiZcLDdY0gbY63LWlnWU/QHq58KOs819SlOgdFfR7p/m5g8qkJ5sicPKPc3wNc+vtcP7Sefvd3JTwhsVLwTGOj3OfKOCAoO6ud4F0wJ67Ntg95Y1Nz9V5v8u7iyltgCMbfEgU7k9ZVCJ0+vRvfYPhdjKKdcFka8YHyPTJFgH1OP+nbwVzs9lKuxJ3qY2IqnsM4VOK+iIiIuRRugRq5KZDAskYpq5cTjJXH3qGLz2P4CJZPIGzjncl2Qz2nYRfSPgH+QDqI0lDiGLz3zf+tkO87CHfgb5Rb3Jd19cwkO1bEGDwhMSbj+VIu/yx8WPIi1F3bWniT1zKwRMQrwCcr5C2LjwE349/vw6Sjbs7pWJZUsLlaC2jBHcFc7IXDmCSyNiyrJqGqPxSVLudzRPlWhG44E9yfJizYJ2tprwcNW/QoYOZ4qP0GkhsR2/fJyCb0cfzJMsG75p4T0ECc/kwFfobociyBaOtvgmjb34N0Vtvcbftr7noKGZsVEQ7O4sDf3bPBjHx1V99riELe6oiJ7D2mPWE9CXLineL6cxTiLbNm8ixufu+JuFFWVnaCOFPqR9jsn0LY63YcbPtAgmCtjrzz1xBLhFpG+7SNfe7ZDgjxMICEGV/UtSdrLDrBiqS0rR9Don42kPH7D/KupyNKvfoNzElQUYx+EzOQ9t4ItRch+SaMqsMEN5GHYi4niP+yFZrwrz7omwjNW4gciYiI+R6OmOw/BEhgywE5eTR7PMHYU8yrCYxJgDckOFCbWCNe7+3Veo/yxmtYrpr7OyaRuTcU3EW7JmzpdJr6D0EQD6TzOeIHEOFQmy1/Zw9D2U3c4bGBeGF8gznvhFcGVku/hpyQl0U4Bwly0lYTvSYSg6Fb7kSfK2MMouQ3Gwlxfg+irJp1ilfOxJouzVtIgC7l9IQnxxZivrmGa/sDyItSLsGCCNcBhFvxtqmjD/EsOhIRV7xCu+Kd1jmI+APRNj1CNicicWUMunI/gj91qy5GQvVvR7kQ05D391GEk6Lmx08jFiwj8O+qSXfv7d2A5ao0EW7ETHfvfQj7bxUYbAzPNNM1ojZrGAqPiIiYC6Ecic8ACaw+6E8evZ5itJyHW+JLgqkwOs/2fW7Foogeg7ronolo+H9wiMrvw8c4eAsf46AIn3Ppp5EO5pSFZRECwYYVVyyD15EIdSA0bPh0V0YRJuGdJH22Q1qFWsy08NYZveKDrlwNrvU68u4WKco0F2B5RD/ifOApqH0XmCxz7pFWei72yl1sJmIJQuLWDIgH0oiI+R7uZNO/KjAoUQCfGaLFR51ZXeJOd40HkZNglnKWtRqw7rLn5MuewFcALsCfmmchFhi6yarMv2r5ykW42JT9FXevn/Q4WRfgv3Vpbzf3w7T6Hu50aQ929/WkPhFPSEx090a6NE4Uxp2ujPCd2Tpvd2l/49KGbbFmrKPwipVNPBHRoNrY6Vjj3sG5eAXWFvKuVsBjTvve1Booy1PneMS66XSEU+M29neuG6Fxj/x/aTPtVKrXQ8HTLehPpM5+jZ8TTUAjIuZzmIW3z2nUf7fpCYFeFh/VFN96QModcSLiZvhh4IdIfIj1kPgDWe1SM7gyXg/fK2g7FesjEUV1UX8eOBC/IXRyYZ1Vvqa/zJSrgZPCjUaJgzXxTp92dPfCk6P+PhHZXK8J7k+g3Y+EPrvG5TmxQ9k7uTbMwPthCAnJoYziace3Hxn7F/Dj9nvkHdl2zgnfVkh8WfQBayGE3q+Bl0kTDi1EhHUWYhI6Hkb8QO5vM5Cei70cCpIEzm1KuX1/ozcncBEREfMY3ELdcHEfVhvwAX26FW9o3kcSGNFEFMAmIU6QkuB6ATmFHomE9M4yRdQNe05dvOwJH8Rc9B/4Pt6PhJZWVOmHJSZ+Zsrc3d0LN1ptx9ku3TMI+z4kyDTdJ1y6l0kTdRNoJyRwaXQz0xDstu/a3kXwLsfPzkgH6U2/FyJCT/GKbZAx17H6B2lzzqGOn9INLOchhLqKPwchvMM58yIiptkP0XEJvqW+jWTOjWjCo0lvfmE0r3Uu1zheKxryUYmIiJgroQvq+7xb3e848cbsLhcePcFspf75b3d1rAnsgTjSuRsfp8FebyJeD08DPk22n4k5lbAIPSQeTTrE+a9I6y1U2Si17CtcWU28cyzLmbCBsf7t0urCH274IDEb1DX5pub5BLIJCedzhFfw8R6yCBQNSPaia0vIjckiIgapTkTYdJOQMdbxfh15B0PtkbQbFHEdaogOx1cRXyt5nitPRoi3sbRD54ObEw3n7XSrQT+XuzkYzHJ/z1B391PxIrv3mhiLiIiYg+AW//oRoqQ1cjbcnlRfgNQtdpLAiS1gwIUf/khOvUsiG9M3Ebbt87QTFtOQkMunIqf6pTPKsTEL5gTCwm7YKwIX4S043kIcMi2Rkz4PSkg08JvlAKBxDywxoeV1CtWtG8F1rn3HmWcTyCYkjndprwvK0Hprri7nKZV9M/qYJ86oEsXTlrcEMqbTXVktZMxXzEn/bqGI67AE8j2fTXYsjeeRQHd7ISHvQ4S6Lwrt53pu7g3ASSbeRlndJxvN93a3JtQTqB8e1BMREREB+AWvAfU/AgmMNcREq2ARsnE19N6ZCTAbGgnUj3J1KDu5aMNfFDHPOxhh3T5H+wL7BuKF8FjEMVToUlvreq/1K0L9iU0QR1zaj+cQ1rQNltXphKc6LfYUPwux1CCoT8daXXz/wt23G4CmP9SluR0/XqGypdavypNfy6hTy1auyQO0n8B71Ymw49RAxtB+J7cgY237+G59A0VchwbCjToIEeW9Svq7noUor34biTq7KO0oSyzrweBomYPMljlpdR7y4m/oXNZnt7m1gATqN5PiekRERESkoQv8eKg7//2jZsM5rXb56qC57P2XEtjLnYLqCdQucmXnnV7siS1rE10IUcg8ENmcsgiLlxBuxqEu7QIZ5byX3IpQf+JLwJP49t+DaOErygSxqiEWDje6MmbgY2zoRqx1boqc0Jt40UUj+PsRPLdkOXfv/XhC4v3u3nL4yKjr5pS1qasrq75edCJCbsqnkLHTcXwSGVvFu6UHUcR1GIe08yzgIbK5Dj9H2r1SRv6iuVGmTUDtYmd+PSBz8+WSc3kwgbNbsgaQQP0RRHfjvRQPRUREzAXQBWIpqDnOBAmsPQA/akoo4SyN7kdacFQTlnTKWPUEONOUWUWxUBfPLOJjYcSl8WEI8aA6APZ6CrFw2IP28MranveCsLD1jUFEBFPw7f4Faf8TRZuqvqcFkbgfCeIPYssgbx6HwJpTghAlqhj5eXdvJdJBu3DPEsSJ0yh3LzRZfMClCSOCWiJCTTytTkSeOCPk7HwQGSvLoToOHw8kJDiGGp10HdZATHR/hRC59tscQEw2TwY2p91iaSh1f+yGf5abkwksNSBz9ZFWtmXWs4nM9bVNVN7azYgYkow+R0RERLTBsI3rRznlKregLJjAOoPw6QH4/ABsNQAfGPSLFAk0Hge2M2X1siB2IizGIqfeYxGWtmnrOxvVn5ET4afJ1q/o9tTXLWw/VgV+gm/vVGSTGZeT3kLbuzBwG56jsJm7b0U7K+KdQu1rntvyL0E4Fz9wv7MICWdWyCVBXi0rSycjNMnMUqzMIyJs38cBp5B+xz8hrT8wXAREJwuLrZFv7C+kvz/lOhTpOgzn92eJie2gYSKb1hOZu1sNwA4DMqfXGZQ5/s5cngr1I2knBiMiIiI6wm7+K0LjNEcghIukXjNgxF1Q/yreU+BwLOqdRCHvQ/QFzkUU2MJYEG8ANwHfQIJIhWKQd8saJDxlb44olGo7n0G8WGof8/Qn9N6ieMdSU4GN3X1LgGVZUdh27O6eP+p+TyCtbFnDh6ze3ZSvm1WelUg3OhFWHFRH/GYoxyRBrHo2N+mHWg/Cch2yvuM1gP0Rfxp5FhYn0ruuw1BB+7CIzNHGXXg/IxlX43FonEpaWTXqRERERFRGyCLuhxFrwYidoP8I6D8G+g8WV7kjVwzyvlsa3ZawCBe6GuLKeR/kRPhP2hfNJ5EInjuStkxQDDe3whIIdYR4eNq07094Xw2Q3U8d67FInI8EEZl83N0f4cpeFIkqmpD266D1r4wEUmgiypVLIoRYy/0/0T2b7dJqm7X+s/FE0KLBs7I6ESGBtQWeQFKRyl5mDMooqJZFEddhjGvLaYjoJiRQX0R8pOzNu891KItgTo5cUeZu/yFuLh8uc3vEJOR92XyRiIiIiOgJobJgHnQTeC8XHW1r1mawCLAR4lfgVrzSoF7TERHBMcCGiMggxHCdJO34LgacRJqF/1PS+h55TqgWx1tpvIoon4JwAyDf06SewDXvroj8Xusf7e4lLo01RYVsT5oqrsgjIkJxhu3TB1yfrcjnJDc2YZ+7RRldh30R66EXSX8rg4jDq9OREOdFfh3mpE24yhx9rwmfiIiIeRB24bXXu6UdXxWd2NMrIH4LzifthVKvZxEZ/JfwJ3CLvE2oF9jNdA2Ek6LtmYKYBo4xaRoZ/y8J/NXleRlxrwyyodfw+hS/Mfm03rPwPhgWM3UvhveFcZZpq9apsT1uc3WMoN1MNU8nwvZhrOvjFFP35W4sFL14U+xkYbEV8B1E1yHkOvwLUfLcm2Il3jlxLmTBEt32ei9NpiMiIiLmaBSJQfqBdRAT0iwbfw0PfgrC4h7OE2goUtqStJnjU8Ceph5LyGm+ZZDw3roBamTPOuKnw5n0sa27rxyLT7v7TyCb92x3reHuJS6NzbMtfozWM+3vpBMR6kHs6fqm/bwbb4Wifas6tkVchzrCSfkqcDXtFhZNhOtwKiJeGpNR/pzIdYiIiIiIeJegG1kWt6KTJr7KxPdh+GTioeOlfREuibbhNrIVDrU/K+D9VTxLWnFOQ5P/HVE4tdyMqfjIm1Pd9UV3byreDLDh8v7dlXWBaXeRTkSWoukdpl+TkYBulsioMo5FXKglEULoHLL9OryEmG1+hTQXRDEn6DpERERERMyB6CQv/yDltfQXoR29nFzthjgeUfhTU07Vn1gtSK8b9cp4J15PAMu7+8sBr7n76vJYxQ23uPsXIiKGKe7/xD2zaQ9391/Dx18o0omwBMRqpPUgprm+jc/pex6KxBUjEWdbhyGiHO2zXrOQd3cKouuwWEYZkesQEREREVEZZfwGnE32qfafSJTOPYBVMvJ3e6otcsr0Ju3KiKp5vwZeWfBRROwBcIS79zpiNqtt+pa7fzsi4nkV7xb7W3iC6334gGRKjIwi29mUikFAdBFOdm3W9ldxxlVE9IF44dwR4ZBkmSw/A1yKmLB20n2JxENERERERM+oImfX8NpWt0KjNg6FJ8Ms/Ym7TH0qFtCNWImJtfERPv+CEEMj8UqmF5oyN4HGpTDiuzDiT+46V+6xiUmnXIrHEBHHAqSJCA3ApUREn2vbZNPeuxBOgCJrHDopzY5D9FZOduWF/hHeQjgpRwLrI95AQ0SuQ0RERETEu4YysRXOZHhjK2T5n7CKineRjt8B4ldiint+L7Lxb8U7Ioj616DvV1B7BWH5h22fJc/6fiVpURfK/+3a8Btf1jsmoIqtSBM8T1HscKvIjHcUEufjECTkdqgkqcTN+Qgxs3xGGVHXISIiIiJijkAnbsWH8dEeQ/n8TMTh1HGIf4tu/FaE/idOpF1kYJUGN8f7z7jV3bs+7eKcBJZP4BNN+EJLrk805Z5NU09cv1wZ73Aidjb1fRAf5yNBCJkTafcHUUQ41BCF1t2Bi/HWI/Z6GYm9cghifdOfUUbkOkREREREzPEo4lYsiZhKnov382Cv5xDlwzy/FUWnaEtQrI7oaFjW/mn4OCNb4rkJ90DDedJsDMAug3BzC95KaAvm9FYiz3YZlLQkLq/1PKnijKVcndbp189IK4WOzBknEC+jOwDfQ0Qxg8FYve3qPdn1Z1zOmMypPk4iIiIiIiI6oohb0QA+BByAnKRVf8FaE9wFnIDoJYSWIFkn7FB/YjO88ykVqxzsnm0KTIOGe7ZOAvcGhEMzkeiQA+5/++xel4fElTENEeng6nje1Hs77W6+QyyHEFlnIDolWXEgHgHOQ4iVCRllRCXJiIiIiIh5GkXciiUQ/wbfRTbMcBN9FvGyuStilRDCcitCl+a7kxYH3A/sDY03gSZs3YTpjkAYSGAwgVYGR6Llnmno6emJ5KXpytrLla31PINYrmRheYRwOB0R71hzVr2edH3eGxGR5MXliOKKiIiIiIj5DkXcihGIlcWhiOtpNbHUawZyyj8WifKZp1vRb8oeg+hivIHXb0hggwRmOcJgMIN4yLs07UxXhi2T14GvmbYsgHBfdkXCkN+PxDUJCYdnEH2KAxA9h1EZ/YriioiIiIiIiAwotyLLvHEpvG7Fw2TrVvwMcTGd5WVTY2wArAS126E2AGMG4bkuiIiQmHg2gdGDUmbtViQOxccRPxXX4L1rZnEcfoY4+lqHbLNMy2mJXIeIiIiIiIgS6MUSZAC4D1F0zFFC7HMuv49tenFGVSJCL817bFPKHHE3IqYJiYbZwIOISeYeCIdiZHvbIuEQETG3IU7UiIg5H0pY1BDrBYslgY8hipUb40ODK15Ggl/dAvwOGstD8yZYOIHHa2LIkdC9pKDlmvVvYNUE3qpBY1NofgVYFLGseAjxqDnZVWah+g020mZERERERETEMKGIW9GHcCsOQEQKoaOmV6HvUqAFWzW9ZUa33Ahr3ZEksJUzCe0/MqNtishxiIiYx1Dkzz4iImLOgxIFLfdbCQsQbsVf3fVdxOnTukggsU8AU6G2oOT5r5Yvple9ReVKfLQmuqF8yN0cAW0ijmaPlUVEREREREQMEzpFMB0LI5xfiR8P9q4fEepJXOCcRo24gzSBExERMQ8jciQiIuYd5HEraggn4A3eUXAc0Z67Z4yw/0Rdh4iI+QSRkIiImHdhRQkNhMCYJj/fHIbqpuo/rg5qRIIiImKeR2Q9RkTMH3Cbeu0Z+fmPYdjgtcza0+5GXF8iIuYDxIkeETFfIblP/t5aE2ZFlv+rqmggZd3irDCS+4eg0IiIiIiIiIg5CHpomAj1mUALbmv5+BndKlpqXI5bW1JmfSY+oFY8qERERERERMxDcBt73zVAAlsMgeWG5v2Es9jouyZdV0RERERERMS8ApVjrAv1JjAIF7WEEJjdBRGheS5sSVn1JhIzw9YVERERERERMQ/BbfC170AjgQVmw82Gu1DG02XTcCL+kMCo2VJW7Yx0HRERERERERHzGjTKaD/U7gASWGg2XBnoPShRYa+BQJ/iCpeXRCKK0o+PnRERERERERExj6LmrnFQuxvx9TAIezfh8RIciccT2MuJRkigdpeU9U65EREREREREfM4VBlyYahdBDXnFXOBJmw/ABc24f4WPOWu+1tyb/sBSUMieWoXShmpMiMiIiIiIiLmA9iN/7PQeIC2IFt97grvNx4APpNTVkRExHyEyIaMiJi/oeIIFwa0sQXUt4HWetCaAMlCLtl0qD8L9fugdR00b/J53iEwIiIi5kNEQiIiIgK8e0qLMTBqtPw7801gSok8EREREREREfMp1KKjKJhfH9EyIyIiwiAuBhEREXmwVhhRfBERERERERERERERERERERERERERERERERERERERERERERERERERERERERERERERERERERHxruH/A9c7pDyy/GygAAAAAElFTkSuQmCC;" parent="1" vertex="1">
          <mxGeometry x="300" y="275" width="180" height="180" as="geometry" />
        </mxCell>
        <mxCell id="tobCYrUzQc5iDKJvixrN-24" value="&lt;font style=&quot;font-size: 13px;&quot;&gt;&lt;font style=&quot;font-size: 14px;&quot;&gt;&lt;font style=&quot;font-size: 15px;&quot;&gt;&lt;font style=&quot;font-size: 16px;&quot;&gt;&lt;font style=&quot;font-size: 17px;&quot;&gt;&lt;font style=&quot;font-size: 18px;&quot;&gt;&lt;font style=&quot;font-size: 19px;&quot;&gt;&lt;font style=&quot;font-size: 20px;&quot;&gt;Graph&lt;/font&gt;&lt;/font&gt;&lt;/font&gt;&lt;/font&gt;&lt;/font&gt;&lt;/font&gt;&lt;/font&gt;&lt;/font&gt;" style="text;html=1;strokeColor=none;fillColor=none;align=center;verticalAlign=middle;whiteSpace=wrap;rounded=0;" parent="1" vertex="1">
          <mxGeometry x="302.5" y="225" width="175" height="30" as="geometry" />
        </mxCell>
        <mxCell id="tobCYrUzQc5iDKJvixrN-26" value="&lt;div&gt;1. blah blah blah blah blah...&lt;/div&gt;&lt;div&gt;2. blah blah blah blah blah...&lt;/div&gt;&lt;div&gt;3. blah blah blah blah blah...&lt;/div&gt;&lt;div&gt;.....&lt;br&gt;&lt;/div&gt;" style="text;html=1;strokeColor=#d6b656;fillColor=#fff2cc;align=center;verticalAlign=middle;whiteSpace=wrap;rounded=0;" parent="1" vertex="1">
          <mxGeometry x="30" y="235" width="210" height="80" as="geometry" />
        </mxCell>
        <mxCell id="tobCYrUzQc5iDKJvixrN-25" value="&lt;font style=&quot;font-size: 13px;&quot;&gt;&lt;font style=&quot;font-size: 14px;&quot;&gt;&lt;font style=&quot;font-size: 15px;&quot;&gt;&lt;font style=&quot;font-size: 16px;&quot;&gt;&lt;font style=&quot;font-size: 17px;&quot;&gt;&lt;font style=&quot;font-size: 18px;&quot;&gt;&lt;font style=&quot;font-size: 19px;&quot;&gt;Sentence rankings&lt;/font&gt;&lt;/font&gt;&lt;/font&gt;&lt;/font&gt;&lt;/font&gt;&lt;/font&gt;&lt;/font&gt;" style="text;html=1;strokeColor=none;fillColor=none;align=center;verticalAlign=middle;whiteSpace=wrap;rounded=0;" parent="1" vertex="1">
          <mxGeometry x="40" y="205" width="190" height="35" as="geometry" />
        </mxCell>
        <mxCell id="tobCYrUzQc5iDKJvixrN-27" value="" style="rounded=0;whiteSpace=wrap;html=1;" parent="1" vertex="1">
          <mxGeometry x="70" y="355" width="130" height="130" as="geometry" />
        </mxCell>
        <mxCell id="tobCYrUzQc5iDKJvixrN-28" value="&lt;h1&gt;Summary&lt;br&gt;&lt;/h1&gt;&lt;p&gt;Lorem ipsum dolor sit amet, consectetur adipisicing elit, sed do eiusmod ...&lt;/p&gt;" style="text;html=1;strokeColor=none;fillColor=none;spacing=5;spacingTop=-20;whiteSpace=wrap;overflow=hidden;rounded=0;" parent="1" vertex="1">
          <mxGeometry x="70" y="365" width="140" height="120" as="geometry" />
        </mxCell>
        <mxCell id="tobCYrUzQc5iDKJvixrN-29" value="&lt;font style=&quot;font-size: 13px;&quot;&gt;&lt;font style=&quot;font-size: 14px;&quot;&gt;&lt;font style=&quot;font-size: 15px;&quot;&gt;&lt;font style=&quot;font-size: 16px;&quot;&gt;&lt;font style=&quot;font-size: 17px;&quot;&gt;TF-IDF / Word2Vec embeddings&lt;/font&gt;&lt;/font&gt;&lt;/font&gt;&lt;/font&gt;&lt;/font&gt;" style="text;html=1;strokeColor=none;fillColor=none;align=center;verticalAlign=middle;whiteSpace=wrap;rounded=0;" parent="1" vertex="1">
          <mxGeometry x="450" y="20" width="160" height="70" as="geometry" />
        </mxCell>
        <mxCell id="tobCYrUzQc5iDKJvixrN-30" value="&lt;div style=&quot;font-size: 18px;&quot;&gt;&lt;font style=&quot;font-size: 18px;&quot;&gt;m[i][j]= sim(i, j) &lt;br&gt;&lt;/font&gt;&lt;/div&gt;&lt;div style=&quot;font-size: 18px;&quot;&gt;&lt;font style=&quot;font-size: 18px;&quot;&gt;&lt;font style=&quot;font-size: 18px;&quot;&gt;cosine similarity&lt;/font&gt;&lt;br&gt;&lt;/font&gt;&lt;/div&gt;" style="text;html=1;strokeColor=none;fillColor=none;align=center;verticalAlign=middle;whiteSpace=wrap;rounded=0;" parent="1" vertex="1">
          <mxGeometry x="630" y="180" width="200" height="60" as="geometry" />
        </mxCell>
        <mxCell id="tobCYrUzQc5iDKJvixrN-31" value="&lt;div&gt;&amp;nbsp;nodes -&amp;gt; sentences&amp;nbsp;&amp;nbsp; &lt;br&gt;&lt;/div&gt;&lt;div&gt;edges -&amp;gt; similarities&lt;/div&gt;" style="text;html=1;strokeColor=none;fillColor=none;align=center;verticalAlign=middle;whiteSpace=wrap;rounded=0;" parent="1" vertex="1">
          <mxGeometry x="360" y="240" width="260" height="30" as="geometry" />
        </mxCell>
        <mxCell id="tobCYrUzQc5iDKJvixrN-34" value="" style="endArrow=classic;html=1;rounded=0;entryX=0;entryY=0.5;entryDx=0;entryDy=0;strokeWidth=7;fillColor=#f8cecc;strokeColor=#b85450;" parent="1" target="tobCYrUzQc5iDKJvixrN-4" edge="1">
          <mxGeometry width="50" height="50" relative="1" as="geometry">
            <mxPoint x="180" y="105" as="sourcePoint" />
            <mxPoint x="230" y="55" as="targetPoint" />
          </mxGeometry>
        </mxCell>
        <mxCell id="tobCYrUzQc5iDKJvixrN-35" value="" style="endArrow=classic;html=1;rounded=0;entryX=0;entryY=0.5;entryDx=0;entryDy=0;strokeWidth=7;fillColor=#f8cecc;strokeColor=#b85450;" parent="1" edge="1">
          <mxGeometry width="50" height="50" relative="1" as="geometry">
            <mxPoint x="440" y="104.5" as="sourcePoint" />
            <mxPoint x="600" y="104.5" as="targetPoint" />
          </mxGeometry>
        </mxCell>
        <mxCell id="tobCYrUzQc5iDKJvixrN-36" value="" style="endArrow=classic;html=1;rounded=0;strokeWidth=7;fillColor=#f8cecc;strokeColor=#b85450;exitX=0.5;exitY=1;exitDx=0;exitDy=0;entryX=0.5;entryY=0;entryDx=0;entryDy=0;" parent="1" source="tobCYrUzQc5iDKJvixrN-6" target="tobCYrUzQc5iDKJvixrN-22" edge="1">
          <mxGeometry width="50" height="50" relative="1" as="geometry">
            <mxPoint x="450" y="114.5" as="sourcePoint" />
            <mxPoint x="650" y="245" as="targetPoint" />
          </mxGeometry>
        </mxCell>
        <mxCell id="tobCYrUzQc5iDKJvixrN-37" value="" style="endArrow=classic;html=1;rounded=0;entryX=1;entryY=0.528;entryDx=0;entryDy=0;strokeWidth=7;fillColor=#f8cecc;strokeColor=#b85450;exitX=0;exitY=0.5;exitDx=0;exitDy=0;entryPerimeter=0;" parent="1" source="tobCYrUzQc5iDKJvixrN-13" target="tobCYrUzQc5iDKJvixrN-23" edge="1">
          <mxGeometry width="50" height="50" relative="1" as="geometry">
            <mxPoint x="450" y="114.5" as="sourcePoint" />
            <mxPoint x="610" y="114.5" as="targetPoint" />
          </mxGeometry>
        </mxCell>
        <mxCell id="tobCYrUzQc5iDKJvixrN-38" value="" style="endArrow=classic;html=1;rounded=0;entryX=1;entryY=0.5;entryDx=0;entryDy=0;strokeWidth=7;fillColor=#f8cecc;strokeColor=#b85450;exitX=0;exitY=0.25;exitDx=0;exitDy=0;" parent="1" source="tobCYrUzQc5iDKJvixrN-23" target="tobCYrUzQc5iDKJvixrN-26" edge="1">
          <mxGeometry width="50" height="50" relative="1" as="geometry">
            <mxPoint x="570" y="380" as="sourcePoint" />
            <mxPoint x="490" y="380" as="targetPoint" />
          </mxGeometry>
        </mxCell>
        <mxCell id="tobCYrUzQc5iDKJvixrN-39" value="" style="endArrow=classic;html=1;rounded=0;entryX=0.5;entryY=0;entryDx=0;entryDy=0;strokeWidth=7;fillColor=#f8cecc;strokeColor=#b85450;exitX=0.5;exitY=1;exitDx=0;exitDy=0;" parent="1" source="tobCYrUzQc5iDKJvixrN-26" target="tobCYrUzQc5iDKJvixrN-27" edge="1">
          <mxGeometry width="50" height="50" relative="1" as="geometry">
            <mxPoint x="310" y="330" as="sourcePoint" />
            <mxPoint x="250" y="285" as="targetPoint" />
          </mxGeometry>
        </mxCell>
        <mxCell id="tobCYrUzQc5iDKJvixrN-40" value="&lt;font style=&quot;font-size: 13px;&quot;&gt;&lt;b&gt;&lt;font style=&quot;font-size: 13px;&quot; color=&quot;#FF0F0F&quot;&gt;&lt;font style=&quot;font-size: 14px;&quot;&gt;&lt;font style=&quot;font-size: 15px;&quot;&gt;&lt;font style=&quot;font-size: 16px;&quot;&gt;PageRank&lt;/font&gt;&lt;/font&gt;&lt;/font&gt;&lt;/font&gt;&lt;/b&gt;&lt;/font&gt;" style="text;html=1;strokeColor=none;fillColor=none;align=center;verticalAlign=middle;whiteSpace=wrap;rounded=0;rotation=39;" parent="1" vertex="1">
          <mxGeometry x="260" y="265" width="60" height="25" as="geometry" />
        </mxCell>
      </root>
    </mxGraphModel>
  </diagram>
</mxfile>
